<?xml version="1.0" encoding="UTF-8"?>
<!DOCTYPE svg PUBLIC "-//W3C//DTD SVG 1.1//EN" "http://www.w3.org/Graphics/SVG/1.1/DTD/svg11.dtd">
<!-- Creator: CorelDRAW 2021 (64-Bit) -->
<svg xmlns="http://www.w3.org/2000/svg" xml:space="preserve" width="789px" height="312px" version="1.1" style="shape-rendering:geometricPrecision; text-rendering:geometricPrecision; image-rendering:optimizeQuality; fill-rule:evenodd; clip-rule:evenodd"
viewBox="0 0 9.73 3.85"
 xmlns:xlink="http://www.w3.org/1999/xlink"
 xmlns:xodm="http://www.corel.com/coreldraw/odm/2003">
 <defs>
  <style type="text/css">
   <![CDATA[
    .str2 {stroke:#C5C6C6;stroke-width:0.01;stroke-linecap:round;stroke-linejoin:round;stroke-miterlimit:22.9256}
    .str3 {stroke:#9D9E9E;stroke-width:0.01;stroke-linecap:round;stroke-linejoin:round;stroke-miterlimit:22.9256}
    .str1 {stroke:#434242;stroke-width:0.01;stroke-linecap:round;stroke-linejoin:round;stroke-miterlimit:22.9256}
    .str0 {stroke:#2B2A29;stroke-width:0.01;stroke-linecap:round;stroke-linejoin:round;stroke-miterlimit:22.9256}
    .fil6 {fill:#C5C6C6}
    .fil3 {fill:#B2B3B3}
    .fil0 {fill:#9D9E9E}
    .fil4 {fill:#898989}
    .fil5 {fill:#727271}
    .fil7 {fill:#5B5B5B}
    .fil1 {fill:#434242}
    .fil2 {fill:#2B2A29}
    .fil8 {fill:#E7E0E1}
    .fil9 {fill:#2B2A29;fill-rule:nonzero}
    .fil11 {fill:url(#id0);fill-rule:nonzero}
    .fil10 {fill:url(#id1);fill-rule:nonzero}
   ]]>
  </style>
  <linearGradient id="id0" gradientUnits="userSpaceOnUse" x1="5.14" y1="1.2" x2="5.6" y2="1.59">
   <stop offset="0" style="stop-opacity:1; stop-color:#EFFE25"/>
   <stop offset="1" style="stop-opacity:1; stop-color:#75EF0A"/>
  </linearGradient>
  <linearGradient id="id1" gradientUnits="userSpaceOnUse" xlink:href="#id0" x1="5.14" y1="1.2" x2="5.6" y2="1.59">
  </linearGradient>
 </defs>
 <g id="Layer_x0020_1">
  <metadata id="CorelCorpID_0Corel-Layer"/>
  <path class="fil0" d="M6.69 0.59c0.02,0 0.02,0.04 0.09,0.05 0.04,0 0.16,-0.03 0.26,0.01 0.04,0.01 0.07,0.02 0.1,0.04 0.2,0.12 0.27,0.46 0.34,0.66 0.01,0.03 0.08,0.24 0.09,0.25 0.01,-0.01 0.05,-0.05 0.05,-0.05 -0.03,0 -0.05,0 -0.06,-0.02 0.01,-0.01 0.08,-0.03 0.11,-0.04 0.05,0 0.07,0.02 0.09,0.06 0.02,0.05 -0.02,0.06 -0.06,0.09 -0.01,0.01 -0.03,0.02 -0.05,0.02 -0.02,0 -0.05,0 -0.06,-0.01 0.02,0.21 0.17,0.33 0.12,0.57 -0.05,0.27 -0.36,0.44 -0.62,0.39 -0.42,-0.06 -0.58,-0.97 -0.72,-1.33 -0.12,-0.3 0.06,-0.39 0.19,-0.57 0.04,-0.05 -0.04,-0.22 -0.09,-0.26 -0.02,-0.03 -0.05,-0.04 -0.09,-0.03 -0.04,0.01 -0.08,0.05 -0.11,0.06 -0.1,0.1 -0.18,0.16 -0.25,0.29 -0.08,0.16 -0.12,0.38 -0.06,0.55 0.23,0.69 0.44,1.99 1.47,1.61 0.27,-0.1 0.56,-0.21 0.63,-0.54 0.01,-0.06 0.02,-0.11 0.03,-0.17 0.01,-0.17 -0.01,-0.29 -0.05,-0.45 -0.01,-0.03 -0.03,-0.13 -0.05,-0.15l-0.03 -0.09c-0.05,0 -0.13,0.03 -0.17,0.03 -0.01,-0.01 -0.04,-0.08 -0.04,-0.1 0.01,-0.01 0.1,-0.03 0.12,-0.03 0.01,-0.02 0.02,0.01 0.04,-0.01 -0.13,-0.33 -0.18,-0.68 -0.44,-0.94 -0.01,-0.02 -0.03,-0.03 -0.05,-0.05 -0.07,-0.05 -0.17,-0.1 -0.25,-0.13 -0.11,-0.04 -0.24,-0.05 -0.35,-0.03 -0.12,0.01 -0.24,0.04 -0.19,0.17 0.02,0.04 0.05,0.12 0.06,0.15z"/>
  <path class="fil1" d="M2.36 1.29c-0.05,0.03 -0.04,0.02 -0.07,0.04l0 0 0.14 0.08c0.07,0.03 0.06,-0.01 0.01,0.1 0,0.02 -0.02,0.07 -0.03,0.09 -0.02,0 -0.06,-0.02 -0.09,-0.03l-0.13 -0.04c-0.02,-0.01 -0.03,-0.01 -0.05,-0.02 -0.12,-0.04 -0.21,-0.08 -0.32,-0.13 -0.02,-0.01 -0.07,-0.05 -0.09,-0.05 -0.03,-0.01 -0.01,0.02 -0.05,0.07 0,0 0,0 0,0l-0.01 0.01c0.03,-0.01 0.04,0.02 0.06,0.04 0.02,0.01 0.02,0.01 0.03,0.02l0.08 0.07c0.03,0.03 0.05,0.04 0.05,0.06l0.2 0.06c-0.02,0.11 -0.03,0.11 -0.03,0.24 0,0.14 0.03,0.18 0.03,0.23 0.1,0.17 0.2,0.38 0.34,0.52 0.11,0.1 0.11,0.08 0.17,0.12 0.06,0.03 0.1,0.05 0.17,0.08 0.04,0.01 0.07,0.01 0.11,0.02 0.02,0 0.09,0 0.11,0.01 -0.01,-0.01 -0.09,-0.04 -0.1,-0.1 -0.01,-0.1 0.03,-0.21 -0.07,-0.33 -0.02,-0.02 -0.01,-0.01 -0.02,-0.03 -0.01,-0.01 -0.02,-0.01 -0.03,-0.02 -0.11,-0.1 -0.13,-0.08 -0.15,-0.1 -0.02,-0.01 -0.03,-0.04 -0.06,-0.09 -0.08,-0.14 -0.11,-0.22 -0.06,-0.4 0.01,0.01 0.04,0.02 0.05,0.03 -0.01,-0.02 0,-0.01 -0.02,-0.02 -0.01,0 -0.01,0 -0.02,-0.01 0,-0.05 0.02,-0.11 0.05,-0.13 0.01,-0.01 0.01,-0.01 0.02,-0.02 0,-0.01 0,-0.01 0,-0.01l-0.01 0c-0.01,-0.01 -0.01,-0.01 -0.02,-0.01 -0.01,0 -0.02,-0.01 -0.03,-0.01 -0.03,-0.01 -0.05,-0.02 -0.07,-0.04 0.02,-0.03 0.05,-0.09 0.07,-0.12 0.01,-0.02 0.03,-0.02 0.06,-0.02 0.02,-0.01 0.06,-0.02 0.07,-0.02 0.01,0 0.01,0.01 0.02,0.02 -0.02,0.02 -0.06,0.02 -0.07,0.04 0.02,0.01 0.08,0.02 0.11,0.04 0.04,0 0.04,-0.01 0.06,-0.02 0.25,-0.16 0.84,-0.57 1.1,-0.57 0.15,0 0.22,0.03 0.31,0.1 0.05,0.04 0.08,0.06 0.15,0.02 0.03,-0.02 0.11,-0.07 0.14,-0.09 0.01,-0.01 0.02,-0.02 0.03,-0.04 0.01,-0.02 0.01,-0.04 0,-0.06 -0.03,-0.08 -0.19,-0.19 -0.26,-0.24 -0.14,-0.08 -0.33,-0.13 -0.54,-0.09 -0.27,0.05 -1.06,0.55 -1.34,0.75z"/>
  <path class="fil2 str0" d="M8.54 1.52l-0.18 0.68c0.01,0.03 -0.02,0.13 -0.02,0.16 -0.02,0.14 -0.03,0.29 -0.05,0.43 0,0.02 0,0.06 -0.01,0.08 0,0.01 0,0.02 0,0.02 0,0.02 0,0 0,0.01 0,0.01 0,0.01 -0.01,0.01 0.01,0.03 0,0.06 0,0.09l0 0.06 0 0.03c0.01,0.01 0.01,0.02 0.01,0.04 0.06,0 0.12,0 0.18,0 0.03,0 0.08,-0.01 0.15,-0.01 0.11,0 0.37,-0.02 0.44,-0.01l0.23 -0.04c0.02,0 0.01,0 0.03,-0.01 0.03,0 0.07,-0.04 0.08,-0.06 0.01,-0.03 -0.02,-0.08 -0.03,-0.1 -0.13,-0.21 -0.19,-0.33 -0.25,-0.6 -0.05,-0.2 -0.09,-0.47 -0.19,-0.65 -0.02,-0.04 -0.04,-0.06 -0.06,-0.08 -0.01,-0.02 -0.03,-0.03 -0.03,-0.04l-0.03 -0.04c-0.02,-0.02 0,-0.01 -0.03,-0.02l-0.1 0.01c-0.03,0 -0.02,0 -0.05,0 -0.03,0 -0.05,0 -0.07,0.01 0,0 0,0.01 0,0.02l-0.01 0.01z"/>
  <path class="fil2 str0" d="M1.05 1.6c0,0.02 -0.02,0.06 -0.02,0.08 -0.01,0.04 -0.01,0.06 -0.02,0.09 -0.01,0.06 -0.01,0.13 -0.01,0.19 -0.01,0.01 0.01,0.01 -0.02,0.01l0.01 0.01c0,0.04 0,0.08 0,0.12 0,0.08 0,0.16 -0.01,0.23 0,0.02 0,0.04 0,0.06 0,0.02 0.01,0.03 -0.01,0.04 -0.01,0 -0.02,-0.01 -0.03,-0.02 0,0 0,0.1 0,0.12 0,0.02 0.01,0.04 0.01,0.05 0,0.01 0,0.03 0.01,0.03 0,0.01 0.01,0.02 0.01,0.02 0,0.12 0,0.17 -0.05,0.28 0,0.01 -0.01,0.04 -0.02,0.05 -0.01,0.02 -0.02,0.04 -0.03,0.06 -0.01,0.02 -0.01,0.03 -0.02,0.05 -0.02,0.04 -0.03,0.01 -0.06,0.04l0.04 -0.01c-0.01,0.03 -0.03,0.06 -0.05,0.1l-0.12 0.22c-0.01,0.01 -0.01,0.02 -0.02,0.03 -0.02,0.05 -0.02,0.03 -0.03,0.05 0,0.01 0,0 0,0.02 -0.01,0 -0.01,0.02 -0.02,0.03l-0.03 0.04c-0.01,0.01 -0.01,0.01 -0.01,0.02 0.01,0.01 -0.01,-0.01 0,0.01 0.02,0.02 0.03,0.01 0.04,0.03 0.08,0.04 0.1,0.14 0.2,0 0.04,-0.06 0.04,-0.09 0.11,-0.13 0.02,-0.01 0.05,-0.03 0.06,-0.04 0.01,-0.01 0.03,-0.01 0.04,-0.03 0.01,-0.01 0.02,-0.03 0.03,-0.04 0.02,-0.02 0.05,-0.07 0.06,-0.09l0.08 -0.13c0.04,-0.07 0.11,-0.24 0.13,-0.32l0.03 -0.15c0.01,-0.01 0,-0.02 0.01,-0.03 0.02,-0.12 0.04,-0.19 0.04,-0.32 0,-0.03 0.01,-0.03 0.02,-0.06l0.04 -0.32c0,-0.02 0,-0.01 0.01,-0.03l0.02 -0.16 0.01 -0.14c0,-0.02 0.04,-0.01 0.06,-0.01 0.01,0 0.02,-0.01 0.03,-0.01l0.01 0.01 -0.01 -0.02c0.01,-0.01 0.02,-0.03 0.03,-0.05 0.01,-0.01 0.01,-0.04 0.02,-0.05 0,-0.04 0,-0.04 0.02,-0.07 0.01,-0.02 0.03,-0.04 0.03,-0.05l0.01 -0.01c0,0 0,0 0,0 0.04,-0.05 0.02,-0.08 0.05,-0.07l-0.04 -0.02c-0.04,-0.02 -0.18,-0.14 -0.21,-0.17 -0.01,-0.02 -0.03,-0.04 -0.04,-0.06 -0.02,-0.02 -0.04,-0.04 -0.05,-0.06 -0.02,-0.03 -0.07,-0.1 -0.07,-0.15 -0.02,-0.17 0.11,-0.21 0.23,-0.18 0.12,0.04 0.18,0.17 0.22,0.21 -0.01,-0.05 -0.1,-0.22 -0.14,-0.26 -0.04,-0.01 -0.16,-0.04 -0.18,-0.03 -0.02,0.01 -0.08,0.05 -0.11,0.07 -0.09,0.08 -0.14,0.24 -0.16,0.36 -0.01,0.1 -0.03,0.2 -0.05,0.3 -0.02,0.1 -0.02,0.22 -0.08,0.26z"/>
  <path class="fil1" d="M4.19 1.86c-0.21,0.14 -0.48,0.29 -0.71,0.42 -0.02,0.01 -0.03,0.01 -0.04,0.02 -0.09,0.05 -0.08,0.05 -0.17,0.07 0,0 0.06,0.41 0.06,0.42 0.01,0 0,0 0.03,-0.01 0.33,-0.19 0.88,-0.46 1.13,-0.69 0.41,-0.35 0.31,-1.19 -0.03,-0.97 -0.08,0.05 -0.12,0.1 -0.1,0.18 0.04,0.22 0.04,0.42 -0.17,0.56z"/>
  <path class="fil2 str0" d="M8.35 0.22c0.08,0.1 0.08,0.23 0.14,0.29 0.06,0.06 0.12,0.03 0.11,0.23 -0.01,0 -0.05,0.02 -0.06,0.02 -0.01,0.01 -0.02,0.03 -0.01,0.04 0.06,-0.03 0.11,-0.01 0.13,0.04 0.02,0.05 0,0.13 -0.02,0.17 -0.03,0.11 -0.07,0.17 -0.14,0.26 -0.02,0.02 -0.03,0.03 -0.05,0.05 -0.04,0.05 -0.1,0.1 -0.17,0.12 -0.06,0.02 -0.1,0.03 -0.16,0.04l-0.16 0.05 0.03 0.09c0.02,0 0.04,-0.01 0.06,-0.02 0.02,-0.01 0.04,-0.02 0.05,-0.03 0.07,-0.03 0.15,-0.07 0.21,-0.11 0.04,-0.02 0.17,-0.11 0.21,-0.11 0,0.01 0.02,0.06 0.02,0.08 0,0.03 0,0.06 0,0.09l0.01 -0.01c0,-0.01 0,-0.02 0,-0.02 0.02,-0.01 0.04,-0.01 0.07,-0.01 0.03,0 0.02,0 0.05,0l0.1 -0.01c0.03,0.01 0.01,0 0.03,0.02 -0.01,-0.07 -0.01,-0.1 0,-0.16 0.01,-0.03 0.02,-0.1 0.04,-0.13 0.04,0 0.02,0.03 0.11,0.03l0.12 0.01c0.1,-0.01 0.17,-0.09 0.21,-0.15 0.04,-0.07 0.07,-0.13 0.05,-0.22 0,0 -0.01,-0.03 -0.01,-0.03 -0.01,-0.02 0.01,0.01 -0.02,-0.01 0,-0.03 0.02,0.01 0.01,-0.02 0,0 -0.01,-0.02 -0.02,-0.02 -0.02,-0.03 -0.02,-0.04 -0.04,-0.04 0.01,-0.01 -0.02,-0.03 -0.03,-0.03 -0.02,-0.02 -0.03,-0.03 -0.05,-0.04 -0.03,-0.01 -0.08,-0.02 -0.12,-0.03 -0.09,-0.03 -0.14,-0.05 -0.19,-0.12 -0.1,-0.11 -0.14,-0.22 -0.24,-0.31 -0.02,-0.01 -0.03,-0.01 -0.04,-0.03 -0.05,-0.01 -0.07,-0.02 -0.13,-0.02 -0.03,0 -0.09,0.02 -0.1,0.05z"/>
  <path class="fil1 str1" d="M0.96 3.48c0.03,0 0.07,-0.02 0.09,-0.04 0.03,-0.01 0.06,-0.04 0.09,-0.05 0,-0.01 0.08,-0.07 0.13,-0.05l0.05 0.02c0.04,0.04 0.01,0.35 0.05,0.41 0.03,0.03 0.07,0.03 0.12,0.04 0.03,0 0.09,0 0.11,-0.02 0.02,-0.01 0.01,-0.08 0.01,-0.11 0,-0.08 -0.02,-0.17 0.01,-0.23 0,-0.03 0.01,-0.08 0.02,-0.1 0.01,-0.03 0.02,-0.07 0.02,-0.1 0.01,-0.06 0.02,-0.15 0.02,-0.22 -0.01,-0.03 -0.02,-0.06 -0.02,-0.11 0,-0.03 0,-0.09 0,-0.11 -0.02,-0.02 -0.01,-0.08 -0.01,-0.11 0,-0.03 0,-0.06 0,-0.1 0,-0.19 -0.04,-0.47 -0.03,-0.62l0.04 0c-0.02,-0.01 -0.02,0 -0.04,-0.01 0,-0.05 -0.01,-0.11 -0.02,-0.16 -0.01,-0.05 -0.01,-0.1 -0.02,-0.16l-0.01 -0.01c-0.01,0 -0.02,0.01 -0.03,0.01 -0.02,0 -0.06,-0.01 -0.06,0.01l-0.01 0.14 -0.02 0.16c-0.01,0.02 -0.01,0.01 -0.01,0.03l-0.04 0.32c-0.01,0.03 -0.02,0.03 -0.02,0.06 0,0.13 -0.02,0.2 -0.04,0.32 -0.01,0.01 0,0.02 -0.01,0.03l-0.03 0.15c-0.02,0.08 -0.09,0.25 -0.13,0.32l-0.08 0.13c-0.01,0.02 -0.04,0.07 -0.06,0.09 -0.01,0.01 -0.02,0.03 -0.03,0.04 -0.01,0.02 -0.03,0.02 -0.04,0.03z"/>
  <path class="fil3" d="M1.68 3.03c0,0.11 -0.01,0.21 -0.04,0.32 -0.01,0.02 -0.02,0.07 -0.02,0.1 0.06,-0.01 0.1,0.02 0.14,0.03 0.06,0.02 0.09,0.03 0.14,0.05 0.05,0.01 0.1,0.03 0.14,0.04 0.08,0.03 0.22,0.07 0.29,0.08 0.05,0 0.15,0.01 0.19,0 0.05,-0.01 0.1,-0.01 0.16,-0.03 0.03,-0.01 0.11,-0.04 0.14,-0.06 0.1,-0.08 0.49,-0.4 0.33,-0.51 -0.03,-0.02 -0.17,-0.07 -0.22,-0.08 -0.05,-0.01 -0.06,0.03 -0.09,0.06 -0.28,0.4 -0.57,0.21 -0.96,0.1 -0.06,-0.02 -0.17,-0.05 -0.2,-0.1z"/>
  <path class="fil3" d="M0.88 1.74c-0.02,0.01 -0.07,0.06 -0.09,0.09 -0.01,0.02 -0.04,0.06 -0.05,0.08 -0.06,0.07 0,0.02 0.11,0.03 0.03,0 0.05,0 0.07,0.01 0.02,0 0.04,0.01 0.06,0.02 0.03,0 0.01,0 0.02,-0.01 0,-0.06 0,-0.13 0.01,-0.19 0.01,-0.03 0.01,-0.05 0.02,-0.09 0,-0.02 0.02,-0.06 0.02,-0.08 -0.02,0.02 -0.07,0.05 -0.09,0.07 -0.03,0.02 -0.06,0.04 -0.08,0.07z"/>
  <path class="fil3" d="M2.99 2.88c0.05,0.01 0.06,0.01 0.1,0.02 0.02,0 0.1,0 0.12,0 0.03,-0.01 0.1,-0.09 0.12,-0.11 -0.01,-0.04 -0.01,-0.03 0,-0.06 0,-0.09 -0.01,-0.12 -0.01,-0.18 0,-0.02 0,0 -0.01,-0.01l-0.02 -0.08c0,-0.02 -0.02,-0.08 -0.02,-0.09 -0.05,-0.03 -0.07,-0.11 -0.13,-0.18 -0.2,-0.25 -0.34,-0.26 -0.59,-0.35 -0.01,-0.01 -0.04,-0.02 -0.05,-0.03 -0.05,0.18 -0.02,0.26 0.06,0.4 0.03,0.05 0.04,0.08 0.06,0.09 0.02,0.02 0.04,0 0.15,0.1 0.01,0.01 0.02,0.01 0.03,0.02 0.01,0.02 0,0.01 0.02,0.03 0.1,0.12 0.06,0.23 0.07,0.33 0.01,0.06 0.09,0.09 0.1,0.1z"/>
  <path class="fil4" d="M0.09 2.5c0.04,-0.01 0.11,-0.03 0.15,-0.04 0.07,-0.02 0.22,-0.06 0.31,-0.06 0,0 0,0 0.01,0.01l0 -0.02c0.07,-0.01 0.1,-0.03 0.2,-0.02 0.03,0 0.07,0 0.1,0.01 0.02,0 0.07,0.02 0.08,0.03 0.01,0.01 0.02,0.02 0.03,0.02 0.02,-0.01 0.01,-0.02 0.01,-0.04 0,-0.1 0.01,-0.19 0.01,-0.29 0,-0.04 0,-0.08 0,-0.12l-0.01 -0.01c-0.02,-0.01 -0.04,-0.02 -0.06,-0.02 -0.12,-0.04 -0.29,0 -0.41,0.02 -0.07,0.02 -0.13,0.04 -0.19,0.05 -0.07,0.02 -0.14,0.03 -0.2,0.05 -0.16,0.05 -0.15,0.44 -0.03,0.43z"/>
  <path class="fil5" d="M1.73 1.33c0.02,0 0.07,0.04 0.09,0.05 0.11,0.05 0.2,0.09 0.32,0.13 0.02,0.01 0.03,0.01 0.05,0.02l0.13 0.04c0.03,0.01 0.07,0.03 0.09,0.03 0.01,-0.02 0.03,-0.07 0.03,-0.09 0.05,-0.11 0.06,-0.07 -0.01,-0.1l-0.14 -0.08c-0.12,-0.01 -0.15,-0.07 -0.23,-0.13 -0.07,-0.05 -0.1,-0.04 -0.2,-0.16 -0.02,-0.02 -0.03,-0.04 -0.05,-0.06 -0.03,-0.04 -0.03,-0.07 -0.04,-0.08 -0.04,-0.04 -0.1,-0.17 -0.22,-0.21 -0.12,-0.03 -0.25,0.01 -0.23,0.18 0,0.05 0.05,0.12 0.07,0.15 0.01,0.02 0.03,0.04 0.05,0.06 0.01,0.02 0.03,0.04 0.04,0.06 0.03,0.03 0.17,0.15 0.21,0.17l0.04 0.02z"/>
  <path class="fil1 str1" d="M8.8 1.49l0.03 0.04c0,0.01 0.02,0.02 0.03,0.04 0.02,0.02 0.04,0.04 0.06,0.08 0.1,0.18 0.14,0.45 0.19,0.65 0.06,0.27 0.12,0.39 0.25,0.6 0.01,0.02 0.04,0.07 0.03,0.1 -0.01,0.02 -0.05,0.06 -0.08,0.06 0,0.04 0.06,0.11 0.08,0.14 0.05,0.07 0.12,0.19 0.17,0.25 0.02,0.04 0.08,0.07 0.09,0.12 0.19,0.15 -0.05,-0.22 -0.06,-0.25 -0.05,-0.07 -0.06,-0.09 -0.11,-0.16 -0.03,-0.04 -0.05,-0.04 -0.03,-0.07 0,0 0.01,0 0.01,0 0.01,-0.01 0.02,-0.01 0.03,-0.02 0.02,-0.01 0.04,-0.01 0.05,-0.03 0.01,-0.03 -0.01,-0.03 -0.03,-0.05 -0.01,-0.02 -0.02,-0.03 -0.04,-0.05l-0.12 -0.25c-0.02,-0.04 -0.03,-0.1 -0.05,-0.14 0,-0.01 -0.03,-0.1 -0.04,-0.12 -0.01,-0.04 -0.02,-0.08 -0.03,-0.13 -0.03,-0.1 -0.11,-0.46 -0.12,-0.5 -0.02,-0.05 -0.03,-0.07 -0.05,-0.11l-0.07 -0.1c-0.01,-0.01 -0.04,-0.05 -0.05,-0.06 -0.02,-0.03 -0.02,-0.07 -0.02,-0.1 -0.01,-0.04 0.01,-0.12 0.02,-0.16 0.01,-0.02 0.02,-0.02 0.01,-0.04 -0.09,0 -0.07,-0.03 -0.11,-0.03 -0.02,0.03 -0.03,0.1 -0.04,0.13 -0.01,0.06 -0.01,0.09 0,0.16z"/>
  <path class="fil1 str1" d="M1.25 0.63l-0.03 0.02c-0.1,0.05 -0.15,0.19 -0.19,0.3 -0.05,0.14 -0.1,0.44 -0.12,0.62 -0.01,0.06 -0.02,0.11 -0.03,0.17 0.02,-0.03 0.05,-0.05 0.08,-0.07 0.02,-0.02 0.07,-0.05 0.09,-0.07 0.06,-0.04 0.06,-0.16 0.08,-0.26 0.02,-0.1 0.04,-0.2 0.05,-0.3 0.02,-0.12 0.07,-0.28 0.16,-0.36 0.03,-0.02 0.09,-0.06 0.11,-0.07 0.01,-0.02 0.02,-0.01 0.03,-0.04 0.01,-0.02 0.02,-0.04 0.02,-0.06 0.01,-0.05 0.01,-0.09 0.01,-0.15 0,-0.06 -0.04,-0.13 -0.02,-0.2 0.01,-0.06 0.05,-0.11 0.1,-0.13 -0.01,-0.01 0,-0.01 -0.02,-0.01 -0.1,-0.01 -0.28,0.05 -0.24,0.22 0.01,0.08 0.02,0.15 0.01,0.23 -0.01,0.06 -0.03,0.15 -0.09,0.16z"/>
  <path class="fil4" d="M0.79 3.11l0 0c-0.04,0.03 -0.09,0.04 -0.14,0.05 -0.05,0.02 -0.1,0.04 -0.16,0.04 -0.03,0.02 -0.37,0.1 -0.42,0.13 -0.08,0.04 -0.08,0.34 -0.02,0.37 0.03,0.01 0.09,0 0.11,-0.01 0.07,-0.02 0.15,-0.03 0.22,-0.05 0.02,-0.01 0.05,-0.02 0.08,-0.02 0.03,-0.01 0.05,-0.01 0.09,-0.01 0,-0.01 0,-0.01 0.01,-0.02l0.03 -0.04c0.01,-0.01 0.01,-0.03 0.02,-0.03 0,-0.02 0,-0.01 0,-0.02 0.01,-0.02 0.01,0 0.03,-0.05 0.01,-0.01 0.01,-0.02 0.02,-0.03l0.12 -0.22c0.02,-0.04 0.04,-0.07 0.05,-0.1l-0.04 0.01z"/>
  <path class="fil3" d="M0.56 2.41l-0.01 0c0,0 0.03,0.32 0.07,0.4 0.07,0.16 0.1,0.17 0.15,0.26 0.01,0.02 0.02,0.02 0.02,0.04l0 0c0.03,-0.03 0.04,0 0.06,-0.04 0.01,-0.02 0.01,-0.03 0.02,-0.05 0.01,-0.02 0.02,-0.04 0.03,-0.06 0.01,-0.01 0.02,-0.04 0.02,-0.05 0.05,-0.11 0.05,-0.16 0.05,-0.28 -0.01,-0.05 -0.02,-0.04 -0.03,-0.1 0,-0.02 0,-0.12 0,-0.12 -0.01,-0.01 -0.06,-0.03 -0.08,-0.03 -0.03,-0.01 -0.07,-0.01 -0.1,-0.01 -0.1,-0.01 -0.13,0.01 -0.2,0.02l0 0.02z"/>
  <path class="fil6 str2" d="M8.53 0.8l-0.01 0.01c-0.02,0.01 -0.01,0 -0.03,0.03 -0.02,0.05 -0.06,0.09 -0.09,0.15 -0.02,0.04 -0.03,0.07 -0.05,0.1 -0.02,0.02 -0.06,0.07 -0.08,0.09 -0.06,0.08 -0.3,0.21 -0.41,0.23 -0.01,0 -0.1,0.04 -0.11,0.05 0,0.02 0.03,0.09 0.04,0.1 0.04,0 0.12,-0.03 0.17,-0.03l0.16 -0.05c0.06,-0.01 0.1,-0.02 0.16,-0.04 0.07,-0.02 0.13,-0.07 0.17,-0.12 0.02,-0.02 0.03,-0.03 0.05,-0.05 0.07,-0.09 0.11,-0.15 0.14,-0.26 0.02,-0.04 0.04,-0.12 0.02,-0.17 -0.02,-0.05 -0.07,-0.07 -0.13,-0.04z"/>
  <path class="fil3" d="M1.58 1.65c0.01,0.06 0.01,0.11 0.02,0.16 0.01,0.05 0.02,0.11 0.02,0.16 0.02,0.01 0.02,0 0.04,0.01l0.38 0.12c0.02,0.01 0.04,0.02 0.05,0.03 0,-0.05 -0.03,-0.09 -0.03,-0.23 0,-0.13 0.01,-0.13 0.03,-0.24l-0.2 -0.06c-0.09,0.01 -0.21,-0.04 -0.27,-0.07 -0.01,0.01 -0.01,0.04 -0.02,0.05 -0.01,0.02 -0.02,0.04 -0.03,0.05l0.01 0.02z"/>
  <path class="fil6" d="M1.51 0.36c0,0.06 0,0.1 -0.01,0.15 0,0.02 -0.01,0.04 -0.02,0.06 -0.01,0.03 -0.02,0.02 -0.03,0.04 0.02,-0.01 0.14,0.02 0.18,0.03l0.01 0.01c0,-0.03 0.02,-0.08 0.03,-0.1 0.12,-0.01 0.2,0.04 0.24,-0.08 0.04,-0.09 0.01,-0.18 -0.01,-0.27 -0.02,-0.04 -0.05,-0.13 -0.1,-0.14 -0.05,0 -0.11,0.03 -0.16,0.04 0,0.01 0.03,0.12 0.02,0.15 -0.05,0.05 -0.06,-0.02 -0.1,0 -0.04,0.02 -0.01,0.08 -0.05,0.11z"/>
  <path class="fil1 str1" d="M8.58 0.19c0.01,0.02 0.02,0.02 0.04,0.03 0.1,0.09 0.14,0.2 0.24,0.31 0.05,0.07 0.1,0.09 0.19,0.12 0.04,0.01 0.09,0.02 0.12,0.03 0.02,0.01 0.03,0.02 0.05,0.04 0.01,0 0.04,0.02 0.03,0.03 0.02,0 0.02,0.01 0.04,0.04 0.01,0 0.02,0.02 0.02,0.02 0.01,0.03 -0.01,-0.01 -0.01,0.02 0.03,0.02 0.01,-0.01 0.02,0.01 0,0 0.01,0.03 0.01,0.03 0.02,0.09 -0.01,0.15 -0.05,0.22 -0.04,0.06 -0.11,0.14 -0.21,0.15 -0.02,0.01 -0.05,0 -0.07,0 0.02,0.04 0.14,0.06 0.2,0.06 0.07,-0.01 0.13,-0.06 0.17,-0.1 0.06,-0.06 0.12,-0.17 0.11,-0.27 -0.01,-0.02 -0.01,-0.04 -0.01,-0.06 -0.01,-0.02 -0.02,-0.03 -0.02,-0.04 -0.02,-0.02 -0.03,-0.04 -0.06,-0.07 -0.11,-0.09 -0.16,-0.07 -0.24,-0.1 -0.03,-0.02 -0.06,-0.03 -0.09,-0.04 -0.06,-0.03 -0.15,-0.14 -0.16,-0.19 -0.01,0 -0.01,0 -0.01,0l-0.09 -0.12c-0.03,-0.05 -0.06,-0.08 -0.11,-0.11 -0.02,-0.01 -0.08,-0.03 -0.11,-0.01z"/>
  <path class="fil1 str1" d="M8.46 3.13c-0.02,0.05 -0.03,0.1 -0.04,0.16 -0.03,0.12 -0.08,0.2 -0.1,0.3 -0.01,0.08 0,0.09 -0.03,0.16 -0.02,0.03 -0.07,0.07 -0.07,0.09 0.13,0.01 0.14,-0.03 0.23,-0.03 0.02,-0.05 0.1,-0.63 0.15,-0.64l0 -0.01 0.49 -0.01c0.03,-0.02 -0.02,-0.03 -0.04,-0.04 -0.07,-0.01 -0.33,0.01 -0.44,0.01 -0.07,0 -0.12,0.01 -0.15,0.01z"/>
  <path class="fil5" d="M9.05 3.11c0.02,0.01 0.03,0.01 0.04,0.02 0.03,0.01 0.16,0.12 0.2,0.15 0.01,0.01 0.04,0.04 0.05,0.05 0.07,0.05 0.16,0.18 0.2,0.27 0.01,0.03 0.01,0.08 0.05,0.09 0.04,-0.01 0.06,-0.07 0.06,-0.12 -0.01,-0.05 -0.07,-0.08 -0.09,-0.12 -0.05,-0.06 -0.12,-0.18 -0.17,-0.25 -0.02,-0.03 -0.08,-0.1 -0.08,-0.14 -0.02,0.01 -0.01,0.01 -0.03,0.01l-0.23 0.04z"/>
  <path class="fil5" d="M8.19 3.69c-0.01,0.02 -0.05,0.07 -0.04,0.09 0.04,0.03 0.11,-0.01 0.14,-0.03 0.03,-0.07 0.02,-0.08 0.03,-0.16 0.02,-0.1 0.07,-0.18 0.1,-0.3 0.01,-0.06 0.02,-0.11 0.04,-0.16 -0.06,0 -0.12,0 -0.18,0 0,-0.02 0,-0.03 -0.01,-0.04 0,0.05 0.01,0.08 0.01,0.13 0,0.16 -0.01,0.32 -0.09,0.47z"/>
  <path class="fil0 str3" d="M8.33 0.6c0.01,0 0.14,0.03 0.15,0.04 0.01,0 0.03,0.02 0.04,0.04 0.02,0.03 0.02,0.04 0.02,0.08 0.01,0 0.05,-0.02 0.06,-0.02 0.01,-0.2 -0.05,-0.17 -0.11,-0.23 -0.06,-0.06 -0.06,-0.19 -0.14,-0.29 -0.02,0 -0.01,0 -0.02,0.01 -0.04,0.05 -0.05,0.11 -0.05,0.17 0,0.06 0,0.11 0.03,0.16 0.01,0.02 0.02,0.03 0.02,0.04z"/>
  <path class="fil2 str0" d="M1.59 0.03c-0.05,0.02 -0.09,0.07 -0.1,0.13 -0.02,0.07 0.02,0.14 0.02,0.2 0.04,-0.03 0.01,-0.09 0.05,-0.11 0.04,-0.02 0.05,0.05 0.1,0 0.01,-0.03 -0.02,-0.14 -0.02,-0.15 0.05,-0.01 0.11,-0.04 0.16,-0.04 0,-0.03 -0.07,-0.05 -0.09,-0.05 -0.03,-0.01 -0.05,0 -0.07,0 -0.03,0 -0.03,0.02 -0.05,0.02z"/>
  <path class="fil1" d="M8.1 1.57c0,0.02 0.02,0.04 0.03,0.06 0.02,0.01 0.04,-0.01 0.06,-0.02l0.23 -0.12c0.02,-0.01 0.04,-0.02 0.06,-0.03 0.02,-0.01 0.04,-0.03 0.06,-0.03 0,-0.02 -0.02,-0.07 -0.02,-0.08 -0.04,0 -0.17,0.09 -0.21,0.11 -0.06,0.04 -0.14,0.08 -0.21,0.11z"/>
  <path class="fil6" d="M2.58 1.66l0.02 -0.01c0.01,-0.01 0,-0.01 0.02,-0.01l0.06 -0.04c0.01,-0.01 0.04,-0.04 0.05,-0.06 0,0 0,0 0,0l-0.02 -0.01c-0.03,-0.02 -0.09,-0.03 -0.11,-0.04 0.01,-0.02 0.05,-0.02 0.07,-0.04 -0.01,-0.01 -0.01,-0.02 -0.02,-0.02 -0.01,0 -0.05,0.01 -0.07,0.02 -0.03,0 -0.05,0 -0.06,0.02 -0.02,0.03 -0.05,0.09 -0.07,0.12 0.02,0.02 0.04,0.03 0.07,0.04 0.01,0 0.02,0.01 0.03,0.01 0.01,0 0.01,0 0.02,0.01l0.01 0c0,0 0,0 0,0.01z"/>
  <path class="fil7" d="M1.62 1.53c0.06,0.03 0.18,0.08 0.27,0.07 0,-0.02 -0.02,-0.03 -0.05,-0.06l-0.08 -0.07c-0.01,-0.01 -0.01,-0.01 -0.03,-0.02 -0.02,-0.02 -0.03,-0.05 -0.06,-0.04 0,0.01 -0.02,0.03 -0.03,0.05 -0.02,0.03 -0.02,0.03 -0.02,0.07z"/>
  <path class="fil8" d="M7.57 1.6c0.01,0.02 0.01,0.03 0.02,0.05 0.01,0.01 0.04,0.01 0.06,0.01 0.02,0 0.04,-0.01 0.05,-0.02 0.04,-0.03 0.08,-0.04 0.06,-0.09 -0.02,-0.04 -0.04,-0.06 -0.09,-0.06 -0.03,0.01 -0.1,0.03 -0.11,0.04 0.01,0.02 0.03,0.02 0.06,0.02 0,0 -0.04,0.04 -0.05,0.05z"/>
  <path class="fil9" d="M5.36 1.84c0.28,0 0.5,-0.22 0.5,-0.49 0,-0.28 -0.22,-0.5 -0.5,-0.5 -0.27,0 -0.49,0.22 -0.49,0.5 0,0.27 0.22,0.49 0.49,0.49z"/>
  <g id="_2207156622080">
   <path id="Path_7392" class="fil10" d="M5.49 1.61c0,0 0,0 0,0 -0.01,0 -0.02,0 -0.02,-0.01l-0.22 -0.21c-0.01,-0.01 -0.01,-0.02 -0.01,-0.03 0,-0.02 0.01,-0.03 0.03,-0.03 0.01,0 0.02,0 0.03,0.01l0.19 0.19c0.07,-0.05 0.1,-0.12 0.1,-0.18 0,-0.08 -0.04,-0.15 -0.12,-0.21 -0.01,0 -0.01,-0.01 -0.01,-0.02 0,-0.02 0.01,-0.04 0.03,-0.04 0.01,0 0.02,0 0.02,0.01 0.1,0.07 0.15,0.16 0.15,0.26 0,0.09 -0.05,0.19 -0.15,0.26 0,0 -0.01,0 -0.02,0 0,0 0,0 0,0m0 0l0 0 0 0z" data-name="Path 7392"/>
   <path id="Path_7393" class="fil11" d="M5.23 1.61c0,0 0,0 0,0 0,0 -0.01,0 -0.02,0 -0.09,-0.07 -0.15,-0.17 -0.15,-0.26 0,-0.1 0.06,-0.19 0.15,-0.26 0.01,-0.01 0.02,-0.01 0.02,-0.01 0.01,0 0.02,0 0.03,0.01l0.22 0.22c0,0 0.01,0.01 0.01,0.02 0,0.02 -0.02,0.04 -0.04,0.04 -0.01,0 -0.02,-0.01 -0.02,-0.01l-0.2 -0.2c-0.06,0.06 -0.1,0.12 -0.1,0.19 0,0.07 0.05,0.14 0.13,0.2 0,0 0.01,0.02 0.01,0.03 0,0.02 -0.02,0.03 -0.04,0.03 0,0 0,0 0,0m0 0l0 0 0 0z" data-name="Path 7393"/>
  </g>
 </g>
</svg>
