<?xml version="1.0" encoding="UTF-8"?>
<!DOCTYPE svg PUBLIC "-//W3C//DTD SVG 1.1//EN" "http://www.w3.org/Graphics/SVG/1.1/DTD/svg11.dtd">
<!-- Creator: CorelDRAW 2021 (64-Bit) -->
<svg xmlns="http://www.w3.org/2000/svg" xml:space="preserve" width="400px" height="156px" version="1.1" style="shape-rendering:geometricPrecision; text-rendering:geometricPrecision; image-rendering:optimizeQuality; fill-rule:evenodd; clip-rule:evenodd"
viewBox="0 0 2.48 0.97"
 xmlns:xlink="http://www.w3.org/1999/xlink"
 xmlns:xodm="http://www.corel.com/coreldraw/odm/2003">
 <defs>
  <style type="text/css">
   <![CDATA[
    .str1 {stroke:#434242;stroke-width:0.01;stroke-linecap:round;stroke-linejoin:round;stroke-miterlimit:22.9256}
    .str0 {stroke:#2B2A29;stroke-width:0.01;stroke-linecap:round;stroke-linejoin:round;stroke-miterlimit:22.9256}
    .fil6 {fill:#C5C6C6}
    .fil3 {fill:#B2B3B3}
    .fil0 {fill:#9D9E9E}
    .fil4 {fill:#898989}
    .fil5 {fill:#727271}
    .fil7 {fill:#5B5B5B}
    .fil1 {fill:#434242}
    .fil2 {fill:#2B2A29}
    .fil9 {fill:#DB739A}
    .fil8 {fill:#E7E0E1}
    .fil10 {fill:#434242;fill-rule:nonzero}
    .fil11 {fill:url(#id0);fill-rule:nonzero}
    .fil12 {fill:url(#id1);fill-rule:nonzero}
   ]]>
  </style>
  <linearGradient id="id0" gradientUnits="userSpaceOnUse" x1="1.3" y1="0.3" x2="1.42" y2="0.4">
   <stop offset="0" style="stop-opacity:1; stop-color:#EFFE25"/>
   <stop offset="1" style="stop-opacity:1; stop-color:#75EF0A"/>
  </linearGradient>
  <linearGradient id="id1" gradientUnits="userSpaceOnUse" xlink:href="#id0" x1="1.3" y1="0.3" x2="1.42" y2="0.4">
  </linearGradient>
 </defs>
 <g id="Layer_x0020_1">
  <metadata id="CorelCorpID_0Corel-Layer"/>
  <path class="fil0" d="M1.69 0.15c0.01,0 0.01,0.01 0.02,0.01 0.02,0 0.05,-0.01 0.07,0 0.01,0.01 0.02,0.01 0.03,0.01 0.05,0.03 0.07,0.12 0.08,0.17 0.01,0.01 0.02,0.06 0.03,0.06 0,0 0.01,-0.01 0.01,-0.01 -0.01,0 -0.01,0 -0.02,0 0.01,-0.01 0.02,-0.01 0.03,-0.01 0.01,-0.01 0.02,0 0.02,0.01 0.01,0.01 0,0.02 -0.01,0.02 0,0.01 -0.01,0.01 -0.01,0.01 -0.01,0 -0.02,0 -0.02,0 0.01,0.05 0.04,0.08 0.03,0.14 -0.01,0.07 -0.09,0.11 -0.15,0.1 -0.11,-0.02 -0.15,-0.25 -0.19,-0.34 -0.03,-0.07 0.02,-0.1 0.05,-0.14 0.01,-0.01 -0.01,-0.06 -0.02,-0.07 -0.01,-0.01 -0.02,-0.01 -0.03,0 -0.01,0 -0.01,0.01 -0.02,0.01 -0.03,0.02 -0.05,0.04 -0.07,0.07 -0.02,0.05 -0.03,0.1 -0.01,0.14 0.06,0.18 0.11,0.51 0.37,0.41 0.07,-0.03 0.14,-0.05 0.16,-0.14 0,-0.01 0.01,-0.02 0.01,-0.04 0,-0.04 0,-0.07 -0.01,-0.11 -0.01,-0.01 -0.01,-0.04 -0.02,-0.04l0 -0.03c-0.02,0.01 -0.04,0.01 -0.05,0.01 0,0 -0.01,-0.02 -0.01,-0.02 0,0 0.03,-0.01 0.03,-0.01 0,-0.01 0,-0.01 0.01,-0.01 -0.04,-0.08 -0.04,-0.16 -0.11,-0.23 0,0 -0.01,-0.01 -0.01,-0.01 -0.02,-0.02 -0.04,-0.03 -0.07,-0.04 -0.02,-0.01 -0.06,-0.01 -0.08,0 -0.04,0 -0.06,0.01 -0.05,0.04 0,0.01 0.01,0.03 0.01,0.04z"/>
  <path class="fil1" d="M0.6 0.33c-0.02,0 -0.01,0 -0.02,0l0 0.01 0.03 0.02c0.02,0 0.02,-0.01 0.01,0.02 0,0.01 -0.01,0.02 -0.01,0.02 0,0 -0.01,0 -0.02,0l-0.04 -0.01c0,-0.01 0,-0.01 -0.01,-0.01 -0.03,-0.01 -0.05,-0.02 -0.08,-0.03 0,0 -0.02,-0.01 -0.02,-0.01 -0.01,-0.01 -0.01,0 -0.01,0.01 0,0 0,0 -0.01,0l0 0c0.01,0 0.01,0.01 0.02,0.01 0,0.01 0,0.01 0.01,0.01l0.02 0.02c0,0.01 0.01,0.01 0.01,0.01l0.05 0.02c-0.01,0.03 -0.01,0.03 -0.01,0.06 0,0.03 0.01,0.05 0.01,0.06 0.02,0.04 0.05,0.09 0.09,0.13 0.02,0.03 0.02,0.02 0.04,0.03 0.01,0.01 0.02,0.01 0.04,0.02 0.01,0 0.02,0 0.03,0 0,0.01 0.02,0.01 0.03,0.01 -0.01,0 -0.03,-0.01 -0.03,-0.03 0,-0.02 0.01,-0.05 -0.02,-0.08 0,-0.01 0,0 0,-0.01 0,0 -0.01,0 -0.01,0 -0.03,-0.03 -0.03,-0.02 -0.04,-0.03 0,0 0,-0.01 -0.01,-0.02 -0.02,-0.04 -0.03,-0.06 -0.02,-0.1 0.01,0 0.01,0 0.02,0 -0.01,0 0,0 -0.01,0 0,0 0,0 -0.01,0 0,-0.02 0.01,-0.03 0.02,-0.04 0,0 0,0 0,0 0,0 0,0 0,0l0 0c0,-0.01 0,-0.01 0,-0.01 -0.01,0 -0.01,0 -0.01,0 -0.01,0 -0.01,0 -0.02,-0.01 0,-0.01 0.01,-0.02 0.02,-0.03 0,0 0.01,0 0.01,-0.01 0.01,0 0.02,0 0.02,0 0,0 0,0 0.01,0.01 -0.01,0 -0.02,0 -0.02,0.01 0,0 0.02,0 0.03,0.01 0.01,0 0.01,-0.01 0.01,-0.01 0.06,-0.04 0.21,-0.14 0.28,-0.14 0.04,0 0.05,0 0.08,0.02 0.01,0.01 0.02,0.02 0.04,0.01 0,-0.01 0.02,-0.02 0.03,-0.03 0,0 0.01,0 0.01,0 0,-0.01 0,-0.02 0,-0.02 -0.01,-0.02 -0.05,-0.05 -0.07,-0.06 -0.03,-0.02 -0.08,-0.04 -0.13,-0.02 -0.07,0.01 -0.27,0.13 -0.34,0.19z"/>
  <path class="fil2 str0" d="M2.16 0.38l-0.04 0.18c0,0 -0.01,0.03 -0.01,0.04 -0.01,0.03 -0.01,0.07 -0.01,0.1 0,0.01 0,0.02 0,0.02 0,0.01 0,0.01 0,0.01 0,0.01 0,0 0,0 -0.01,0.01 0,0 -0.01,0.01 0.01,0 0,0.01 0,0.02l0 0.01 0 0.01c0,0 0,0.01 0.01,0.01 0.01,0 0.02,0 0.04,0 0.01,0 0.02,0 0.04,0 0.03,0 0.09,-0.01 0.11,0l0.06 -0.01c0,0 0,0 0.01,-0.01 0,0 0.01,-0.01 0.02,-0.01 0,-0.01 -0.01,-0.02 -0.01,-0.03 -0.04,-0.05 -0.05,-0.08 -0.07,-0.15 -0.01,-0.05 -0.02,-0.12 -0.04,-0.16 -0.01,-0.01 -0.01,-0.02 -0.02,-0.03 0,0 0,0 -0.01,0l0 -0.02c-0.01,0 0,0 -0.01,0l-0.03 0c0,0 0,0 -0.01,0 -0.01,0 -0.01,0 -0.02,0 0,0.01 0,0.01 0,0.01l0 0z"/>
  <path class="fil2 str0" d="M0.26 0.4c0.01,0.01 0,0.02 0,0.02 0,0.01 0,0.02 0,0.03 -0.01,0.01 -0.01,0.03 -0.01,0.04 0,0.01 0.01,0.01 0,0.01l0 0c0,0.01 0,0.02 0,0.03 0,0.02 0,0.04 0,0.06 0,0 0,0.01 0,0.01 0,0.01 0,0.01 0,0.01 -0.01,0 -0.01,0 -0.01,0 0,0 0,0.02 0,0.03 0,0 0,0.01 0,0.01 0,0 0,0.01 0,0.01 0,0 0.01,0 0.01,0 -0.01,0.04 -0.01,0.05 -0.02,0.07 0,0.01 0,0.01 0,0.02 -0.01,0 -0.01,0.01 -0.01,0.01 0,0.01 0,0.01 -0.01,0.02 0,0.01 0,0 -0.01,0l0.01 0c0,0.01 -0.01,0.02 -0.01,0.03l-0.03 0.05c0,0.01 -0.01,0.01 -0.01,0.01 0,0.01 0,0.01 0,0.01 -0.01,0.01 -0.01,0.01 -0.01,0.01 0,0 0,0 0,0.01l-0.01 0.01c0,0 0,0 0,0 0,0 0,0 0,0 0,0.01 0.01,0.01 0.01,0.01 0.02,0.01 0.02,0.04 0.05,0 0.01,-0.01 0.01,-0.02 0.03,-0.03 0,0 0.01,-0.01 0.01,-0.01 0.01,0 0.01,0 0.01,-0.01 0.01,0 0.01,-0.01 0.01,-0.01 0.01,0 0.01,-0.02 0.02,-0.02l0.02 -0.03c0.01,-0.02 0.02,-0.07 0.03,-0.08l0.01 -0.04c0,-0.01 0,-0.01 0,-0.01 0.01,-0.03 0.01,-0.05 0.01,-0.08 0,-0.01 0,-0.01 0,-0.02l0.01 -0.08c0,0 0.01,0 0.01,-0.01l0 -0.04 0 -0.03c0.01,-0.01 0.01,0 0.02,0 0,0 0,-0.01 0.01,-0.01l0 0.01 0 -0.01c0,0 0,-0.01 0.01,-0.01 0,-0.01 0,-0.01 0,-0.02 0,-0.01 0,0 0.01,-0.01 0,-0.01 0,-0.01 0,-0.02l0 0c0.01,0 0.01,0 0.01,0 0,-0.01 0,-0.02 0.01,-0.01l-0.01 -0.01c-0.01,-0.01 -0.05,-0.04 -0.05,-0.04 -0.01,-0.01 -0.01,-0.01 -0.02,-0.02 0,0 0,-0.01 -0.01,-0.01 0,-0.01 -0.02,-0.03 -0.02,-0.04 0,-0.04 0.03,-0.05 0.06,-0.05 0.03,0.01 0.05,0.05 0.06,0.06 0,-0.01 -0.01,-0.02 -0.01,-0.02 0,0 0,0 0,0l0 -0.01c-0.01,-0.02 -0.02,-0.02 -0.02,-0.03 -0.01,-0.01 0,0 -0.01,-0.01 -0.01,0 -0.04,-0.01 -0.04,-0.01 -0.01,0.01 -0.02,0.02 -0.03,0.02 -0.02,0.02 -0.04,0.06 -0.04,0.09 0,0.03 -0.01,0.05 -0.01,0.08 -0.01,0.02 -0.01,0.05 -0.03,0.06z"/>
  <path class="fil1" d="M1.06 0.47c-0.05,0.04 -0.12,0.07 -0.18,0.11 0,0 -0.01,0 -0.01,0 -0.02,0.01 -0.02,0.01 -0.04,0.02 0,0 0.01,0.1 0.01,0.1 0,0 0,0.01 0.01,0 0.08,-0.05 0.22,-0.12 0.29,-0.17 0.01,-0.01 0.02,-0.03 0.02,-0.03 0,0 0.01,-0.01 0.01,-0.01 0.01,-0.01 0.01,-0.01 0.01,-0.02 0.01,-0.02 0.01,-0.02 0.02,-0.03 0,-0.02 0,-0.03 0.01,-0.05 0,-0.01 -0.01,-0.02 -0.01,-0.03 0,0 0,-0.02 0,-0.02 -0.01,-0.01 -0.01,-0.1 -0.07,-0.06 -0.02,0.01 -0.03,0.03 -0.03,0.05 0.01,0.05 0.01,0.1 -0.04,0.14z"/>
  <path class="fil2 str0" d="M2.11 0.05c0.02,0.03 0.02,0.06 0.04,0.08 0.01,0.01 0.03,0.01 0.03,0.05 -0.01,0.01 -0.02,0.01 -0.02,0.01 0,0 0,0.01 0,0.01 0.01,-0.01 0.03,0 0.03,0.01 0.01,0.01 0,0.03 0,0.04 -0.01,0.03 -0.02,0.05 -0.04,0.07 0,0.01 -0.01,0.01 -0.01,0.01 -0.01,0.02 -0.03,0.03 -0.05,0.03 -0.01,0.01 -0.02,0.01 -0.03,0.01l-0.04 0.01 0 0.03c0.01,0 0.01,0 0.02,-0.01 0,0 0.01,0 0.01,0 0.02,-0.01 0.04,-0.02 0.05,-0.03 0.01,-0.01 0.05,-0.03 0.06,-0.03 0,0 0,0.02 0,0.02 0,0.01 0,0.01 0,0.02l0 0c0,0 0,0 0,-0.01 0.01,0 0.01,0 0.02,0 0.01,0 0.01,0 0.01,0l0.03 0c0.01,0 0,0 0.01,0 0,-0.01 -0.01,-0.02 0,-0.03 0,-0.01 0,-0.03 0.01,-0.04 0.01,0 0,0.01 0.03,0.01l0.02 0c0.03,0 0.05,-0.02 0.06,-0.04 0.01,-0.01 0.02,-0.03 0.01,-0.05 0,0 0,-0.01 0,-0.01 0,0 0,0 -0.01,0 0,-0.01 0.01,0 0.01,-0.01 0,0 -0.01,0 -0.01,0 0,-0.01 0,-0.01 -0.01,-0.01 0,-0.01 0,-0.01 -0.01,-0.01 0,0 0,-0.01 -0.01,-0.01 -0.01,0 -0.02,-0.01 -0.03,-0.01 -0.02,0 -0.04,-0.01 -0.05,-0.03 -0.02,-0.03 -0.03,-0.05 -0.06,-0.07 0,-0.01 -0.01,-0.01 -0.01,-0.01 -0.01,-0.01 -0.02,-0.01 -0.03,-0.01 -0.01,0 -0.02,0.01 -0.03,0.01z"/>
  <path class="fil1 str1" d="M0.24 0.88c0.01,0 0.02,-0.01 0.03,-0.01 0,0 0.01,-0.01 0.02,-0.01 0,-0.01 0.02,-0.02 0.03,-0.02l0.01 0.01c0.01,0.01 0.01,0.09 0.02,0.1 0,0.01 0.01,0.01 0.03,0.01 0.01,0 0.02,0 0.03,0 0,-0.01 0,-0.02 0,-0.03 0,-0.02 -0.01,-0.04 0,-0.06 0,0 0,-0.02 0,-0.02 0.01,-0.01 0.01,-0.02 0.01,-0.03 0,-0.01 0,-0.04 0,-0.05 0,-0.01 0,-0.02 0,-0.03 0,-0.01 0,-0.02 0,-0.03 0,-0.01 0,-0.02 0,-0.03 0,-0.01 0,-0.01 0,-0.02 0,-0.05 -0.01,-0.12 -0.01,-0.16l0.01 0c0,0 0,0 -0.01,0 0,-0.02 0,-0.03 -0.01,-0.04 0,-0.02 0,-0.03 0,-0.04l0 -0.01c-0.01,0 -0.01,0.01 -0.01,0.01 -0.01,0 -0.01,-0.01 -0.02,0l0 0.03 0 0.04c0,0.01 -0.01,0.01 -0.01,0.01l-0.01 0.08c0,0.01 0,0.01 0,0.02 0,0.03 0,0.05 -0.01,0.08 0,0 0,0 0,0.01l-0.01 0.04c-0.01,0.01 -0.02,0.06 -0.03,0.08l-0.02 0.03c-0.01,0 -0.01,0.02 -0.02,0.02 0,0 0,0.01 -0.01,0.01 0,0.01 0,0.01 -0.01,0.01z"/>
  <path class="fil3" d="M0.42 0.77c0,0.02 0,0.05 -0.01,0.08 0,0 0,0.02 0,0.02 0.01,0 0.02,0.01 0.04,0.01 0.01,0 0.02,0.01 0.03,0.01 0.01,0 0.03,0.01 0.04,0.01 0.02,0.01 0.05,0.02 0.07,0.02 0.01,0 0.04,0 0.05,0 0.01,0 0.02,0 0.04,-0.01 0.01,0 0.03,-0.01 0.03,-0.01 0.03,-0.02 0.13,-0.1 0.09,-0.13 -0.01,0 -0.05,-0.02 -0.06,-0.02 -0.01,0 -0.01,0.01 -0.02,0.02 -0.07,0.1 -0.15,0.05 -0.24,0.02 -0.02,0 -0.05,-0.01 -0.06,-0.02z"/>
  <path class="fil3" d="M0.22 0.44c0,0 -0.02,0.02 -0.02,0.02 0,0.01 -0.01,0.02 -0.01,0.02 -0.02,0.02 0,0.01 0.03,0.01 0,0 0.01,0 0.01,0 0.01,0 0.01,0 0.02,0.01 0.01,0 0,0 0,-0.01 0,-0.01 0,-0.03 0.01,-0.04 0,-0.01 0,-0.02 0,-0.03 0,0 0.01,-0.01 0,-0.02 0,0.01 -0.01,0.02 -0.02,0.02 -0.01,0.01 -0.01,0.01 -0.02,0.02z"/>
  <path class="fil3" d="M0.76 0.73c0.01,0 0.01,0 0.02,0 0.01,0 0.03,0 0.03,0 0.01,0 0.03,-0.02 0.03,-0.03 0,0 0,0 0,-0.01 0,-0.02 0,-0.03 0,-0.04 0,-0.01 0,-0.01 0,-0.01l-0.01 -0.02c0,0 0,-0.02 0,-0.02 -0.02,-0.01 -0.02,-0.03 -0.04,-0.05 -0.05,-0.06 -0.08,-0.06 -0.14,-0.09 -0.01,0 -0.01,0 -0.02,0 -0.01,0.04 0,0.06 0.02,0.1 0.01,0.01 0.01,0.02 0.01,0.02 0.01,0.01 0.01,0 0.04,0.03 0,0 0.01,0 0.01,0 0,0.01 0,0 0,0.01 0.03,0.03 0.02,0.06 0.02,0.08 0,0.02 0.02,0.03 0.03,0.03z"/>
  <path class="fil4" d="M0.02 0.63c0.01,0 0.03,-0.01 0.04,-0.01 0.02,0 0.06,-0.01 0.08,-0.01 0,0 0,0 0,0l0 -0.01c0.02,0 0.03,0 0.05,0 0.01,0 0.02,0 0.03,0 0,0 0.02,0.01 0.02,0.01 0,0 0,0 0.01,0 0,0 0,0 0,-0.01 0,-0.02 0,-0.05 0,-0.07 0,-0.01 0,-0.02 0,-0.03l0 0c-0.01,-0.01 -0.01,-0.01 -0.02,-0.01 -0.03,-0.01 -0.07,0 -0.1,0.01 -0.02,0 -0.03,0.01 -0.05,0.01 -0.02,0 -0.03,0.01 -0.05,0.01 -0.04,0.01 -0.04,0.11 -0.01,0.11z"/>
  <path class="fil5" d="M0.44 0.34c0,0 0.02,0.01 0.02,0.01 0.03,0.01 0.05,0.02 0.08,0.03 0.01,0 0.01,0 0.01,0.01l0.04 0.01c0.01,0 0.02,0 0.02,0 0,0 0.01,-0.01 0.01,-0.02 0.01,-0.03 0.01,-0.02 -0.01,-0.02l-0.03 -0.02c-0.03,-0.01 -0.04,-0.02 -0.06,-0.04 -0.02,-0.01 -0.02,-0.01 -0.05,-0.04 0,0 -0.01,-0.01 -0.01,-0.01 -0.01,-0.01 -0.01,-0.02 -0.01,-0.02 -0.01,-0.01 -0.03,-0.05 -0.06,-0.06 -0.03,0 -0.06,0.01 -0.06,0.05 0,0.01 0.02,0.03 0.02,0.04 0.01,0 0.01,0.01 0.01,0.01 0.01,0.01 0.01,0.01 0.02,0.02 0,0 0.04,0.03 0.05,0.04l0.01 0.01z"/>
  <path class="fil1" d="M2.23 0.37l0 0.02c0.01,0 0.01,0 0.01,0 0.01,0.01 0.01,0.02 0.02,0.03 0.02,0.04 0.03,0.11 0.04,0.16 0.02,0.07 0.03,0.1 0.07,0.15 0,0.01 0.01,0.02 0.01,0.03 -0.01,0 -0.02,0.01 -0.02,0.01 0,0.01 0.01,0.03 0.02,0.04 0.01,0.02 0.03,0.05 0.04,0.06 0.01,0.01 0.02,0.02 0.02,0.03 0.01,0.01 0,0.01 0.01,0.02 0,0 0,0 0,0 0,0 0,0.01 0,0.01 0,0 0.01,0.01 0.01,0.01 0,0.01 0,0.01 0,0.02 0.01,0 0.01,-0.01 0.01,-0.02 0,0 0,0 0,0l0.01 -0.02c0,-0.01 0,0 0,-0.01 0,0 -0.01,-0.01 -0.01,-0.01 -0.01,-0.01 -0.01,-0.01 -0.02,-0.02 -0.01,-0.01 0,0 -0.01,-0.02l-0.01 -0.02c-0.01,0 -0.01,-0.01 -0.01,-0.02l0 0c-0.01,0 0,0 -0.01,-0.01 0,0 -0.01,-0.01 -0.01,-0.01 -0.01,-0.01 -0.01,-0.01 -0.01,-0.02 0,0 0,0 0,0 0.01,0 0.01,0 0.01,0 0.01,-0.01 0.01,-0.01 0.02,-0.01 0,-0.01 -0.01,-0.01 -0.01,-0.02 -0.01,0 -0.01,0 -0.01,-0.01l-0.03 -0.06c-0.01,-0.01 -0.01,-0.02 -0.02,-0.04 0,0 0,-0.02 -0.01,-0.03 0,-0.01 0,-0.02 0,-0.03 -0.01,-0.02 -0.03,-0.12 -0.04,-0.13 0,-0.01 0,-0.01 -0.01,-0.02l-0.01 -0.03c-0.01,0 -0.01,-0.01 -0.02,-0.02 0,0 0,-0.01 0,-0.02 0,-0.01 0,-0.03 0,-0.04 0,-0.01 0.01,-0.01 0.01,-0.01 -0.03,0 -0.02,-0.01 -0.03,-0.01 -0.01,0.01 -0.01,0.03 -0.01,0.04 -0.01,0.01 0,0.02 0,0.03z"/>
  <path class="fil1" d="M0.32 0.16l-0.01 0c-0.03,0.02 -0.04,0.05 -0.05,0.08 -0.01,0.04 -0.02,0.11 -0.03,0.15 0,0.02 -0.01,0.03 -0.01,0.05 0.01,-0.01 0.01,-0.01 0.02,-0.02 0.01,0 0.02,-0.01 0.02,-0.02 0.02,-0.01 0.02,-0.04 0.03,-0.06 0,-0.03 0.01,-0.05 0.01,-0.08 0,-0.03 0.02,-0.07 0.04,-0.09 0.01,0 0.02,-0.01 0.03,-0.02 0,0 0,0 0,-0.01 0.01,0 0.01,-0.01 0.01,-0.01 0,-0.01 0,-0.03 0,-0.04 0,-0.02 -0.01,-0.03 0,-0.05 0,-0.02 0.01,-0.03 0.02,-0.03 0,-0.01 0,-0.01 0,-0.01 -0.03,0 -0.07,0.02 -0.06,0.06 0,0.02 0,0.04 0,0.06 0,0.01 -0.01,0.04 -0.02,0.04z"/>
  <path class="fil4" d="M0.2 0.78l0 0c-0.01,0.01 -0.02,0.02 -0.04,0.02 -0.01,0 -0.02,0.01 -0.03,0.01 -0.01,0 -0.1,0.02 -0.11,0.03 -0.02,0.01 -0.02,0.09 -0.01,0.1 0.01,0 0.02,-0.01 0.03,-0.01 0.02,0 0.04,-0.01 0.06,-0.01 0,0 0.01,0 0.02,-0.01 0,0 0.01,0 0.02,0 0,0 0,0 0,0l0.01 -0.01c0,-0.01 0,-0.01 0,-0.01 0,0 0,0 0.01,-0.01 0,0 0,0 0,-0.01 0,0 0.01,0 0.01,-0.01l0.03 -0.05c0,-0.01 0.01,-0.02 0.01,-0.03l-0.01 0z"/>
  <path class="fil3" d="M0.14 0.61l0 0c0,0 0.01,0.08 0.02,0.1 0.01,0.04 0.02,0.04 0.03,0.06 0.01,0.01 0.01,0.01 0.01,0.01l0 0c0.01,0 0.01,0.01 0.01,0 0.01,-0.01 0.01,-0.01 0.01,-0.02 0,0 0,-0.01 0.01,-0.01 0,-0.01 0,-0.01 0,-0.02 0.01,-0.02 0.01,-0.03 0.02,-0.07 -0.01,-0.01 -0.01,0 -0.01,-0.02 0,-0.01 0,-0.03 0,-0.03 0,0 -0.02,-0.01 -0.02,-0.01 -0.01,0 -0.02,0 -0.03,0 -0.02,0 -0.03,0 -0.05,0l0 0.01z"/>
  <path class="fil6" d="M2.16 0.2l0 0c-0.01,0.01 -0.01,0 -0.01,0.01 -0.01,0.01 -0.02,0.02 -0.02,0.04 -0.01,0.01 -0.01,0.02 -0.02,0.02 0,0.01 -0.01,0.02 -0.02,0.03 -0.01,0.01 -0.04,0.03 -0.05,0.04 0,0 0,0 -0.01,0 0,0 -0.01,0.01 -0.03,0.01 0,0 0,0 -0.01,0.01 0,0 -0.03,0.01 -0.03,0.01 0,0 0.01,0.02 0.01,0.02 0.01,0 0.03,0 0.05,-0.01l0.04 -0.01c0.01,0 0.02,0 0.03,-0.01 0.02,0 0.04,-0.01 0.05,-0.03 0,0 0.01,0 0.01,-0.01 0.02,-0.02 0.03,-0.04 0.04,-0.07 0,-0.01 0.01,-0.03 0,-0.04 0,-0.01 -0.02,-0.02 -0.03,-0.01z"/>
  <path class="fil3" d="M0.4 0.42c0,0.01 0,0.02 0,0.04 0.01,0.01 0.01,0.02 0.01,0.04 0.01,0 0.01,0 0.01,0l0.1 0.03c0,0 0.01,0.01 0.01,0.01 0,-0.01 -0.01,-0.03 -0.01,-0.06 0,-0.03 0,-0.03 0.01,-0.06l-0.05 -0.02c-0.03,0 -0.06,-0.01 -0.07,-0.02 0,0.01 0,0.01 0,0.02 -0.01,0 -0.01,0.01 -0.01,0.01l0 0.01z"/>
  <path class="fil6" d="M0.38 0.09c0,0.01 0,0.03 0,0.04 0,0 0,0.01 -0.01,0.01 0,0.01 0,0.01 0,0.01 0,0 0.03,0.01 0.04,0.01l0.01 0c0,-0.01 0,-0.02 0,-0.02 0.03,-0.01 0.05,0.01 0.06,-0.02 0.01,-0.03 0.01,-0.05 0,-0.07 -0.01,-0.01 -0.01,-0.03 -0.02,-0.04 -0.02,0 -0.03,0.01 -0.04,0.01 0,0.01 0,0.03 0,0.04 -0.01,0.01 -0.01,0 -0.03,0 0,0.01 0,0.02 -0.01,0.03z"/>
  <path class="fil1" d="M2.17 0.05c0,0 0.01,0 0.01,0.01 0.03,0.02 0.04,0.04 0.06,0.07 0.01,0.02 0.03,0.03 0.05,0.03 0.01,0 0.02,0.01 0.03,0.01 0.01,0 0.01,0.01 0.01,0.01 0.01,0 0.01,0 0.01,0.01 0.01,0 0.01,0 0.01,0.01 0,0 0.01,0 0.01,0 0,0.01 -0.01,0 -0.01,0.01 0.01,0 0.01,0 0.01,0 0,0 0,0.01 0,0.01 0.01,0.02 0,0.04 -0.01,0.05 -0.01,0.02 -0.03,0.04 -0.06,0.04 0,0 -0.01,0 -0.01,0 0,0.01 0.03,0.02 0.05,0.02 0.02,0 0.03,-0.02 0.04,-0.03 0.02,-0.01 0.03,-0.04 0.03,-0.07 0,0 0,-0.01 0,-0.01 -0.01,-0.01 -0.01,-0.01 -0.01,-0.01 0,-0.01 -0.01,-0.01 -0.01,-0.02 -0.03,-0.02 -0.04,-0.02 -0.06,-0.03 -0.01,0 -0.02,0 -0.03,0 -0.01,-0.01 -0.03,-0.04 -0.04,-0.05 0,0 0,0 0,0l-0.02 -0.03c-0.01,-0.01 -0.02,-0.02 -0.03,-0.03 -0.01,0 -0.02,-0.01 -0.03,0z"/>
  <path class="fil1" d="M2.14 0.79c0,0.01 -0.01,0.03 -0.01,0.04 -0.01,0.03 -0.02,0.05 -0.02,0.08 -0.01,0.02 0,0.02 -0.01,0.04 -0.01,0.01 -0.02,0.02 -0.02,0.02 0.03,0 0.04,-0.01 0.06,-0.01 0,-0.01 0,-0.01 0,-0.02 0,-0.02 0.01,-0.03 0.01,-0.04 0,-0.02 0.01,-0.02 0.01,-0.04 0,-0.01 0.01,-0.01 0.01,-0.02 0,-0.01 0,-0.01 0,-0.02 0,-0.01 0,-0.02 0.01,-0.02l0 0 0.12 0c0,-0.01 0,0 0,-0.01 0,0 0,0 -0.01,0 -0.02,-0.01 -0.08,0 -0.11,0 -0.02,0 -0.03,0 -0.04,0z"/>
  <path class="fil5" d="M2.29 0.79c0.01,0 0.01,0 0.01,0 0.01,0 0.04,0.03 0.05,0.04 0,0 0.01,0.01 0.01,0.01 0.02,0.01 0.04,0.05 0.05,0.07 0.01,0.01 0.01,0.02 0.02,0.02 0.01,0 0.01,-0.02 0.01,-0.03 0,-0.01 -0.01,-0.02 -0.02,-0.03 -0.01,-0.01 -0.03,-0.04 -0.04,-0.06 -0.01,-0.01 -0.02,-0.03 -0.02,-0.04 -0.01,0.01 -0.01,0.01 -0.01,0.01l-0.06 0.01z"/>
  <path class="fil5" d="M2.09 0.85c0,0.02 0,0.06 -0.02,0.08 0,0.01 -0.01,0.02 -0.01,0.03 0.01,0 0.03,-0.01 0.04,-0.01 0.01,-0.02 0,-0.02 0.01,-0.04 0,-0.03 0.01,-0.05 0.02,-0.08 0,-0.01 0.01,-0.03 0.01,-0.04 -0.02,0 -0.03,0 -0.04,0 -0.01,0 -0.01,-0.01 -0.01,-0.01 0,0.01 0,0.02 0,0.03 0,0.01 0.01,0.03 0,0.04z"/>
  <path class="fil0" d="M2.11 0.15c0,0 0.03,0.01 0.04,0.01 0,0 0,0.01 0.01,0.01 0,0.01 0,0.01 0,0.02 0,0 0.01,0 0.02,-0.01 0,-0.04 -0.02,-0.04 -0.03,-0.05 -0.02,-0.02 -0.02,-0.05 -0.04,-0.08 0,0.01 0,0 0,0.01 -0.01,0.01 -0.02,0.02 -0.02,0.04 0,0.02 0.01,0.03 0.01,0.04 0.01,0.01 0.01,0.01 0.01,0.01z"/>
  <path class="fil2" d="M0.4 0.01c-0.01,0 -0.02,0.01 -0.02,0.03 -0.01,0.02 0,0.03 0,0.05 0.01,-0.01 0.01,-0.02 0.01,-0.03 0.02,0 0.02,0.01 0.03,0 0,-0.01 0,-0.03 0,-0.04 0.01,0 0.02,-0.01 0.04,-0.01 0,0 -0.02,-0.01 -0.03,-0.01 0,0 -0.01,0 -0.02,0 0,0 0,0.01 -0.01,0.01z"/>
  <path class="fil1" d="M2.05 0.4c0,0 0,0.01 0.01,0.01 0,0 0.01,0 0.01,0l0.06 -0.03c0.01,-0.01 0.01,-0.01 0.02,-0.01 0,-0.01 0.01,-0.01 0.01,-0.01 0,0 0,-0.02 0,-0.02 -0.01,0 -0.05,0.02 -0.06,0.03 -0.01,0.01 -0.03,0.02 -0.05,0.03z"/>
  <path class="fil6" d="M0.65 0.42l0.01 0c0,-0.01 0,-0.01 0,-0.01l0.02 -0.01c0,0 0.01,-0.01 0.01,-0.01 0,0 0,0 0,0l0 0c-0.01,-0.01 -0.03,-0.01 -0.03,-0.01 0,-0.01 0.01,-0.01 0.02,-0.01 -0.01,-0.01 -0.01,-0.01 -0.01,-0.01 0,0 -0.01,0 -0.02,0 0,0.01 -0.01,0.01 -0.01,0.01 -0.01,0.01 -0.02,0.02 -0.02,0.03 0.01,0.01 0.01,0.01 0.02,0.01 0,0 0,0 0.01,0 0,0 0,0 0,0.01l0 0c0,0 0,0 0,0z"/>
  <path class="fil7" d="M0.41 0.38c0.01,0.01 0.04,0.02 0.07,0.02 0,0 -0.01,0 -0.01,-0.01l-0.02 -0.02c-0.01,0 -0.01,0 -0.01,-0.01 -0.01,0 -0.01,-0.01 -0.02,-0.01 0,0.01 0,0.01 0,0.02 -0.01,0.01 -0.01,0 -0.01,0.01z"/>
  <path class="fil8" d="M1.92 0.4c0,0.01 0,0.01 0,0.02 0,0 0.01,0 0.02,0 0,0 0.01,0 0.01,-0.01 0.01,0 0.02,-0.01 0.01,-0.02 0,-0.01 -0.01,-0.02 -0.02,-0.01 -0.01,0 -0.02,0 -0.03,0.01 0.01,0 0.01,0 0.02,0 0,0 -0.01,0.01 -0.01,0.01z"/>
  <path class="fil9" d="M0.16 0.34c-0.06,0.02 0.05,-0.01 0,0zm0 0.01c0.08,-0.03 -0.08,0.03 0,0z"/>
  <path class="fil10" d="M1.36 0.47c0.07,0 0.12,-0.06 0.12,-0.13 0,-0.07 -0.05,-0.13 -0.12,-0.13 -0.07,0 -0.13,0.06 -0.13,0.13 0,0.07 0.06,0.13 0.13,0.13z"/>
  <g id="_2207025097680">
   <path id="Path_7392" class="fil11" d="M1.39 0.41c0,0 0,0 0,0 0,0 0,0 -0.01,-0.01l-0.05 -0.05c0,0 0,0 0,-0.01 0,0 0,-0.01 0,-0.01 0.01,0 0.01,0 0.01,0.01l0.05 0.05c0.02,-0.02 0.03,-0.03 0.03,-0.05 0,-0.02 -0.02,-0.04 -0.04,-0.05 0,0 0,-0.01 0,-0.01 0,0 0,-0.01 0.01,-0.01 0,0 0,0 0,0 0.03,0.02 0.04,0.04 0.04,0.07 0,0.02 -0.01,0.05 -0.04,0.06 0,0.01 0,0.01 0,0.01 0,0 0,0 0,0m0 0l0 0 0 0z" data-name="Path 7392"/>
   <path id="Path_7393" class="fil12" d="M1.32 0.41c0,0 0,0 0,0 0,0 0,0 0,-0.01 -0.03,-0.01 -0.04,-0.04 -0.04,-0.06 0,-0.03 0.01,-0.05 0.04,-0.07 0,0 0,0 0,0 0.01,0 0.01,0 0.01,0l0.06 0.06c0,0 0,0 0,0.01 0,0 -0.01,0 -0.01,0 0,0 0,0 -0.01,0l-0.05 -0.05c-0.01,0.02 -0.02,0.03 -0.02,0.05 0,0.02 0.01,0.04 0.03,0.05 0,0 0,0 0,0.01 0,0 0,0.01 -0.01,0.01 0,0 0,0 0,0m0 0l0 0 0 0z" data-name="Path 7393"/>
  </g>
 </g>
</svg>
