<?xml version="1.0" encoding="UTF-8"?>
<!DOCTYPE svg PUBLIC "-//W3C//DTD SVG 1.1//EN" "http://www.w3.org/Graphics/SVG/1.1/DTD/svg11.dtd">
<!-- Creator: CorelDRAW 2021 (64-Bit) -->
<svg xmlns="http://www.w3.org/2000/svg" xml:space="preserve" width="1192px" height="429px" version="1.1" style="shape-rendering:geometricPrecision; text-rendering:geometricPrecision; image-rendering:optimizeQuality; fill-rule:evenodd; clip-rule:evenodd"
viewBox="0 0 22.36 8.05"
 xmlns:xlink="http://www.w3.org/1999/xlink"
 xmlns:xodm="http://www.corel.com/coreldraw/odm/2003">
 <defs>
  <style type="text/css">
   <![CDATA[
    .str2 {stroke:#C5C6C6;stroke-width:0.02;stroke-linecap:round;stroke-linejoin:round;stroke-miterlimit:22.9256}
    .str3 {stroke:#9D9E9E;stroke-width:0.02;stroke-linecap:round;stroke-linejoin:round;stroke-miterlimit:22.9256}
    .str1 {stroke:#434242;stroke-width:0.02;stroke-linecap:round;stroke-linejoin:round;stroke-miterlimit:22.9256}
    .str0 {stroke:#2B2A29;stroke-width:0.02;stroke-linecap:round;stroke-linejoin:round;stroke-miterlimit:22.9256}
    .fil6 {fill:#C5C6C6}
    .fil3 {fill:#B2B3B3}
    .fil0 {fill:#9D9E9E}
    .fil4 {fill:#898989}
    .fil5 {fill:#727271}
    .fil7 {fill:#5B5B5B}
    .fil1 {fill:#434242}
    .fil2 {fill:#2B2A29}
    .fil8 {fill:#E7E0E1}
    .fil9 {fill:#2B2A29;fill-rule:nonzero}
    .fil11 {fill:url(#id0);fill-rule:nonzero}
    .fil10 {fill:url(#id1);fill-rule:nonzero}
   ]]>
  </style>
  <linearGradient id="id0" gradientUnits="userSpaceOnUse" x1="11.69" y1="2.11" x2="13.17" y2="3.37">
   <stop offset="0" style="stop-opacity:1; stop-color:#EFFE25"/>
   <stop offset="1" style="stop-opacity:1; stop-color:#75EF0A"/>
  </linearGradient>
  <linearGradient id="id1" gradientUnits="userSpaceOnUse" xlink:href="#id0" x1="11.69" y1="2.11" x2="13.17" y2="3.37">
  </linearGradient>
 </defs>
 <g id="Layer_x0020_1">
  <metadata id="CorelCorpID_0Corel-Layer"/>
  <path class="fil0" d="M16.34 1.46c0.04,0.01 0.05,0.09 0.18,0.1 0.08,0 0.32,-0.06 0.52,0.02 0.07,0.02 0.15,0.05 0.19,0.09 0.41,0.22 0.54,0.9 0.69,1.3 0.01,0.06 0.15,0.47 0.18,0.49 0,-0.01 0.08,-0.09 0.08,-0.09 -0.05,-0.01 -0.09,0 -0.12,-0.04 0.03,-0.03 0.17,-0.07 0.22,-0.08 0.11,-0.01 0.15,0.03 0.18,0.11 0.05,0.11 -0.04,0.13 -0.11,0.17 -0.03,0.02 -0.06,0.05 -0.1,0.05 -0.04,0 -0.1,-0.01 -0.12,-0.03 0.02,0.18 0.08,0.33 0.14,0.48 0.08,0.19 0.16,0.39 0.1,0.66 -0.1,0.54 -0.72,0.86 -1.22,0.78 -0.84,-0.14 -1.17,-1.92 -1.44,-2.64 -0.23,-0.59 0.12,-0.77 0.38,-1.13 0.08,-0.1 -0.07,-0.43 -0.17,-0.52 -0.06,-0.06 -0.11,-0.07 -0.19,-0.05 -0.09,0.02 -0.15,0.09 -0.21,0.12 -0.2,0.19 -0.36,0.31 -0.49,0.57 -0.16,0.32 -0.24,0.74 -0.13,1.09 0.45,1.35 0.88,3.93 2.91,3.18 0.53,-0.2 1.11,-0.42 1.25,-1.06 0.02,-0.11 0.05,-0.23 0.05,-0.35 0.03,-0.32 -0.01,-0.57 -0.09,-0.88 -0.01,-0.05 -0.06,-0.26 -0.09,-0.3l-0.06 -0.19c-0.11,0.01 -0.26,0.08 -0.35,0.07 -0.02,-0.03 -0.07,-0.15 -0.08,-0.18 0.03,-0.03 0.21,-0.08 0.24,-0.08 0.03,-0.04 0.05,0.02 0.08,-0.01 -0.26,-0.66 -0.36,-1.34 -0.87,-1.87 -0.03,-0.03 -0.06,-0.06 -0.1,-0.09 -0.14,-0.11 -0.33,-0.21 -0.5,-0.27 -0.2,-0.07 -0.48,-0.08 -0.69,-0.06 -0.24,0.03 -0.46,0.08 -0.36,0.35 0.02,0.07 0.09,0.23 0.1,0.29z"/>
  <path class="fil1" d="M4.83 2.8l0.29 0.17c0.16,0.07 0.13,-0.02 0.04,0.21 -0.02,0.05 -0.04,0.16 -0.06,0.2 -0.05,0 -0.13,-0.05 -0.2,-0.07l-0.28 -0.09c-0.05,-0.02 -0.07,-0.02 -0.1,-0.03 -0.24,-0.09 -0.44,-0.19 -0.67,-0.29 -0.04,-0.01 -0.16,-0.09 -0.2,-0.1 -0.06,-0.01 -0.03,0.04 -0.1,0.14 0,0 0,0 -0.01,0.01l-0.01 0.01c0.06,0 0.09,0.05 0.13,0.09 0.03,0.02 0.04,0.02 0.07,0.04l0.17 0.16c0.05,0.06 0.08,0.08 0.09,0.13l0.42 0.13c-0.04,0.21 -0.06,0.22 -0.07,0.49 0,0.3 0.08,0.39 0.08,0.48 0.2,0.37 0.43,0.81 0.72,1.1 0.23,0.23 0.23,0.18 0.35,0.27 0.13,0.06 0.21,0.11 0.37,0.15 0.07,0.02 0.14,0.04 0.21,0.05 0.06,0.01 0.2,0.01 0.24,0.03 -0.01,-0.02 -0.18,-0.09 -0.2,-0.21 -0.04,-0.22 0.06,-0.46 -0.16,-0.7 -0.03,-0.04 -0.02,-0.03 -0.04,-0.06 -0.01,-0.03 -0.03,-0.03 -0.05,-0.06 -0.24,-0.21 -0.28,-0.16 -0.32,-0.19 -0.05,-0.04 -0.07,-0.1 -0.13,-0.2 -0.17,-0.3 -0.24,-0.48 -0.12,-0.84 0.02,0.02 0.07,0.04 0.11,0.05 -0.03,-0.03 -0.01,-0.01 -0.05,-0.02 -0.02,-0.01 -0.04,-0.02 -0.05,-0.03 -0.01,-0.1 0.04,-0.23 0.1,-0.27 0.02,-0.04 0.03,-0.04 0.06,-0.06 -0.01,0 -0.01,-0.01 -0.01,-0.01l-0.03 -0.01c-0.01,-0.01 -0.02,-0.01 -0.03,-0.01 -0.03,-0.01 -0.05,-0.02 -0.08,-0.03 -0.05,-0.02 -0.09,-0.04 -0.13,-0.07 0.03,-0.06 0.09,-0.2 0.13,-0.25 0.04,-0.05 0.08,-0.05 0.14,-0.06 0.05,-0.02 0.12,-0.05 0.16,-0.05 0.01,0.02 0.02,0.02 0.03,0.05 -0.04,0.05 -0.13,0.06 -0.15,0.09 0.05,0.03 0.17,0.04 0.24,0.08 0.09,0.01 0.08,-0.01 0.12,-0.05 0.74,-0.46 2.14,-1.65 2.97,-0.98 0.11,0.08 0.17,0.12 0.32,0.04 0.07,-0.04 0.24,-0.14 0.3,-0.19 0.03,-0.03 0.04,-0.04 0.06,-0.07 0.03,-0.05 0.03,-0.09 0.01,-0.14 -0.07,-0.17 -0.4,-0.41 -0.56,-0.5 -0.3,-0.18 -0.7,-0.28 -1.13,-0.2 -0.63,0.13 -2.4,1.25 -2.99,1.67z"/>
  <path class="fil2 str0" d="M20.02 3.31l-0.36 1.35c0.01,0.04 -0.04,0.25 -0.05,0.31 -0.04,0.28 -0.06,0.56 -0.09,0.84 -0.01,0.05 -0.01,0.13 -0.02,0.17 0,0.02 0,0.03 0,0.05 -0.01,0.03 0,-0.02 -0.01,0.01 0,0.03 0.01,0.01 -0.01,0.02 0.01,0.06 0,0.12 0,0.18l-0.01 0.12 0 0.05c0.02,0.02 0.02,0.04 0.03,0.07 0.12,0 0.22,0.01 0.35,0.01 0.05,0 0.16,-0.02 0.29,-0.02 0.22,0 0.74,-0.05 0.88,-0.02l0.45 -0.07c0.04,-0.01 0.01,-0.01 0.06,-0.02 0.06,-0.01 0.13,-0.08 0.15,-0.12 0.04,-0.07 -0.03,-0.16 -0.06,-0.2 -0.25,-0.42 -0.37,-0.66 -0.49,-1.18 -0.1,-0.41 -0.16,-0.95 -0.37,-1.3 -0.04,-0.07 -0.07,-0.11 -0.12,-0.17 -0.02,-0.02 -0.05,-0.05 -0.07,-0.07l-0.05 -0.08c-0.04,-0.03 0.01,-0.02 -0.06,-0.03l-0.19 0.01c-0.06,0 -0.05,0.01 -0.11,0.01 -0.05,0 -0.09,0 -0.13,0.01 0,0.01 0,0.03 0,0.04l-0.01 0.03z"/>
  <path class="fil2 str0" d="M2.21 3.38c0.02,0.04 -0.03,0.12 -0.04,0.17 -0.01,0.07 -0.02,0.12 -0.03,0.18 -0.02,0.13 -0.04,0.27 -0.04,0.4 -0.01,0.02 0.03,0.02 -0.04,0.01l0.04 0.03c0,0.25 -0.04,0.5 -0.04,0.75 0,0.04 0.01,0.07 0.01,0.12 0,0.05 0.01,0.06 -0.01,0.09 -0.03,-0.01 -0.04,-0.02 -0.07,-0.04 -0.01,-0.01 -0.01,0.21 0,0.24 0,0.04 0.01,0.08 0.02,0.12 0,0.01 0.01,0.04 0.01,0.05 0.01,0.03 0.03,0.04 0.03,0.04 -0.01,0.27 -0.01,0.36 -0.1,0.59 -0.01,0.04 -0.03,0.09 -0.05,0.12 -0.02,0.04 -0.04,0.08 -0.06,0.12 -0.02,0.04 -0.03,0.07 -0.05,0.11 -0.04,0.08 -0.07,0.03 -0.12,0.07l0.08 -0.01c-0.03,0.07 -0.06,0.13 -0.09,0.21l-0.27 0.47c-0.01,0.02 -0.02,0.04 -0.04,0.06 -0.05,0.1 -0.04,0.05 -0.06,0.1 0,0.02 0,0.01 -0.01,0.04 -0.01,0.01 -0.02,0.04 -0.04,0.06l-0.06 0.1c-0.02,0.02 -0.01,0.01 -0.03,0.03 0.03,0.02 0,-0.01 0.02,0.03 0.03,0.05 0.05,0.02 0.07,0.07 0.17,0.08 0.21,0.29 0.42,0 0.1,-0.13 0.1,-0.2 0.25,-0.29 0.03,-0.02 0.09,-0.05 0.12,-0.07 0.02,-0.03 0.05,-0.04 0.08,-0.07 0.02,-0.03 0.04,-0.06 0.07,-0.09 0.03,-0.04 0.1,-0.14 0.12,-0.18l0.18 -0.29c0.08,-0.13 0.22,-0.5 0.26,-0.66l0.08 -0.32c0,-0.03 0,-0.05 0,-0.07 0.06,-0.25 0.09,-0.41 0.1,-0.67 0,-0.07 0.02,-0.06 0.03,-0.13l0.09 -0.68c0,-0.03 0.01,-0.02 0.02,-0.06l0.05 -0.33 0.01 -0.31c0.01,-0.03 0.08,-0.01 0.12,-0.02 0.04,0 0.05,-0.02 0.08,-0.01l0.03 0.02 -0.03 -0.04c0.02,-0.03 0.04,-0.06 0.06,-0.1 0.02,-0.04 0.03,-0.09 0.05,-0.13 -0.01,-0.08 0,-0.07 0.03,-0.14 0.03,-0.03 0.06,-0.07 0.07,-0.11l0.01 -0.01c0.01,-0.01 0.01,-0.01 0.01,-0.01 0.07,-0.1 0.04,-0.15 0.1,-0.14l-0.08 -0.05c-0.09,-0.04 -0.38,-0.29 -0.44,-0.36 -0.04,-0.04 -0.06,-0.08 -0.1,-0.12 -0.04,-0.05 -0.07,-0.08 -0.1,-0.13 -0.04,-0.06 -0.14,-0.21 -0.14,-0.3 -0.04,-0.37 0.24,-0.45 0.48,-0.38 0.26,0.08 0.38,0.35 0.46,0.44 -0.02,-0.12 -0.21,-0.47 -0.3,-0.56 -0.07,-0.02 -0.32,-0.07 -0.38,-0.06 -0.02,0.03 -0.15,0.1 -0.21,0.15 -0.21,0.16 -0.3,0.51 -0.34,0.77 -0.04,0.21 -0.07,0.42 -0.11,0.62 -0.04,0.22 -0.04,0.46 -0.18,0.56z"/>
  <path class="fil1" d="M7.27 4.85c-0.19,0.11 -0.17,0.11 -0.36,0.15 0,0 0.12,0.87 0.12,0.87 0.01,0.01 0,0.02 0.06,-0.01 0.7,-0.4 1.86,-0.98 2.4,-1.45 0.85,-0.73 0.65,-2.52 -0.08,-2.05 -0.15,0.1 -0.24,0.21 -0.21,0.39 0.26,1.24 -1.09,1.62 -1.93,2.1z"/>
  <path class="fil2 str0" d="M19.64 0.73c0.15,0.2 0.15,0.46 0.27,0.58 0.11,0.11 0.24,0.06 0.21,0.44 -0.02,0.01 -0.09,0.04 -0.11,0.05 -0.01,0.01 -0.04,0.06 -0.02,0.07 0.12,-0.06 0.22,-0.02 0.26,0.09 0.03,0.1 -0.01,0.25 -0.04,0.33 -0.07,0.22 -0.15,0.34 -0.28,0.51 -0.03,0.05 -0.06,0.07 -0.09,0.11 -0.09,0.1 -0.21,0.19 -0.35,0.24 -0.11,0.04 -0.2,0.06 -0.31,0.08l-0.31 0.08 0.06 0.19c0.03,0.01 0.07,-0.02 0.1,-0.04 0.04,-0.02 0.08,-0.04 0.11,-0.06 0.14,-0.06 0.29,-0.14 0.42,-0.21 0.07,-0.04 0.32,-0.21 0.4,-0.23 0.02,0.03 0.05,0.13 0.05,0.16 0.01,0.06 0.01,0.12 0.01,0.19l0.01 -0.03c0,-0.01 0,-0.03 0,-0.04 0.04,-0.01 0.08,-0.01 0.13,-0.01 0.06,0 0.05,-0.01 0.11,-0.01l0.19 -0.01c0.07,0.01 0.02,0 0.06,0.03 -0.01,-0.12 -0.02,-0.19 0,-0.31 0.02,-0.07 0.04,-0.21 0.07,-0.26 0.09,0 0.04,0.05 0.23,0.07l0.23 0.01c0.2,-0.02 0.34,-0.18 0.42,-0.31 0.08,-0.13 0.14,-0.25 0.11,-0.41 -0.02,-0.08 -0.03,-0.08 -0.05,-0.13 0,-0.01 -0.02,-0.04 -0.03,-0.05 -0.04,-0.05 -0.1,-0.11 -0.15,-0.14 -0.03,-0.02 -0.06,-0.04 -0.1,-0.06 -0.06,-0.03 -0.14,-0.05 -0.23,-0.07 -0.18,-0.05 -0.28,-0.1 -0.39,-0.23 -0.18,-0.23 -0.27,-0.45 -0.47,-0.61 -0.02,-0.02 -0.06,-0.04 -0.08,-0.06 -0.09,-0.03 -0.13,-0.05 -0.25,-0.04 -0.06,0 -0.18,0.04 -0.19,0.09z"/>
  <path class="fil1 str1" d="M2.03 7.35c0.06,-0.02 0.14,-0.06 0.19,-0.09 0.06,-0.03 0.12,-0.08 0.19,-0.11 0,-0.01 0.16,-0.15 0.28,-0.11l0.1 0.04c0.08,0.1 0.02,0.75 0.11,0.87 0.05,0.07 0.14,0.07 0.24,0.08 0.07,0.01 0.2,0.02 0.24,-0.02 0.04,-0.04 0.02,-0.19 0.02,-0.25 0,-0.16 -0.05,-0.36 0.01,-0.49 0.01,-0.05 0.03,-0.16 0.05,-0.21 0.02,-0.07 0.04,-0.13 0.05,-0.2 0.02,-0.13 0.03,-0.32 0.03,-0.46 -0.08,-0.42 -0.14,-1.83 -0.11,-2.23l0.07 0c-0.03,-0.02 -0.03,-0.01 -0.07,-0.02 -0.02,-0.22 -0.07,-0.44 -0.08,-0.67l-0.03 -0.02c-0.03,-0.01 -0.04,0.01 -0.08,0.01 -0.04,0.01 -0.11,-0.01 -0.12,0.02l-0.01 0.31 -0.05 0.33c-0.01,0.04 -0.02,0.03 -0.02,0.06l-0.09 0.68c-0.01,0.07 -0.03,0.06 -0.03,0.13 -0.01,0.26 -0.04,0.42 -0.1,0.67 0,0.02 0,0.04 0,0.07l-0.08 0.32c-0.04,0.16 -0.18,0.53 -0.26,0.66l-0.18 0.29c-0.02,0.04 -0.09,0.14 -0.12,0.18 -0.03,0.03 -0.05,0.06 -0.07,0.09 -0.03,0.03 -0.06,0.04 -0.08,0.07z"/>
  <path class="fil3" d="M3.54 6.4c0,0.23 -0.02,0.44 -0.08,0.66 -0.02,0.05 -0.04,0.16 -0.05,0.21 0.13,-0.01 0.21,0.04 0.31,0.08 0.12,0.03 0.19,0.05 0.3,0.09 0.1,0.03 0.19,0.06 0.29,0.09 0.16,0.06 0.45,0.16 0.62,0.17 0.1,0 0.3,0.01 0.39,0 0.12,-0.02 0.21,-0.02 0.33,-0.07 0.07,-0.02 0.25,-0.08 0.3,-0.12 0.21,-0.16 1.03,-0.83 0.7,-1.08 -0.05,-0.04 -0.37,-0.15 -0.46,-0.16 -0.11,-0.02 -0.14,0.06 -0.19,0.13 -0.6,0.84 -1.21,0.44 -2.03,0.19 -0.12,-0.03 -0.36,-0.09 -0.43,-0.19z"/>
  <path class="fil3" d="M1.85 3.66c-0.04,0.03 -0.14,0.14 -0.18,0.19 -0.03,0.05 -0.09,0.13 -0.11,0.17 -0.12,0.16 0,0.04 0.24,0.07 0.06,0.01 0.1,0 0.15,0.02 0.04,0.01 0.07,0.02 0.11,0.03 0.07,0.01 0.03,0.01 0.04,-0.01 0,-0.1 0.12,-0.74 0.11,-0.75 -0.04,0.04 -0.13,0.1 -0.19,0.14 -0.06,0.04 -0.11,0.09 -0.17,0.14z"/>
  <path class="fil3" d="M6.31 6.08c0.1,0.01 0.13,0.01 0.21,0.03 0.04,0.01 0.22,0.02 0.26,0.01 0.06,-0.02 0.21,-0.18 0.25,-0.25 -0.02,-0.06 -0.01,-0.05 -0.01,-0.12 0.02,-0.22 -0.01,-0.35 -0.06,-0.56 -0.02,-0.04 -0.05,-0.17 -0.05,-0.19 -0.11,-0.08 -0.15,-0.23 -0.28,-0.38 -0.42,-0.53 -0.71,-0.55 -1.23,-0.75 -0.04,-0.01 -0.09,-0.03 -0.11,-0.05 -0.12,0.36 -0.05,0.54 0.12,0.84 0.06,0.1 0.08,0.16 0.13,0.2 0.04,0.03 0.08,-0.02 0.32,0.19 0.02,0.03 0.04,0.03 0.05,0.06 0.02,0.03 0.01,0.02 0.04,0.06 0.22,0.24 0.12,0.48 0.16,0.7 0.02,0.12 0.19,0.19 0.2,0.21z"/>
  <path class="fil4" d="M0.19 5.26c0.08,-0.01 0.23,-0.05 0.31,-0.07 0.16,-0.04 0.48,-0.13 0.65,-0.14 0.01,0.01 0.02,0.02 0.02,0.03l0.01 -0.03c0.14,-0.03 0.22,-0.07 0.42,-0.06 0.07,0 0.16,0.01 0.22,0.03 0.04,0 0.15,0.05 0.17,0.07 0.03,0.02 0.04,0.03 0.07,0.04 0.02,-0.03 0.01,-0.04 0.01,-0.09 0,-0.29 0.03,-0.58 0.03,-0.87l-0.04 -0.03c-0.04,-0.01 -0.07,-0.02 -0.11,-0.03 -0.25,-0.07 -0.62,-0.01 -0.86,0.05 -0.15,0.04 -0.28,0.07 -0.42,0.1 -0.14,0.04 -0.28,0.07 -0.42,0.11 -0.34,0.1 -0.31,0.92 -0.06,0.89z"/>
  <path class="fil5" d="M3.65 2.8c0.04,0.01 0.16,0.09 0.2,0.1 0.23,0.1 0.43,0.2 0.67,0.29 0.03,0.01 0.05,0.01 0.1,0.03l0.28 0.09c0.07,0.02 0.15,0.07 0.2,0.07 0.02,-0.04 0.04,-0.15 0.06,-0.2 0.09,-0.23 0.12,-0.14 -0.04,-0.21l-0.29 -0.17c-0.21,-0.01 -0.76,-0.45 -0.89,-0.61 -0.05,-0.05 -0.08,-0.08 -0.12,-0.13 -0.06,-0.08 -0.07,-0.14 -0.09,-0.16 -0.08,-0.09 -0.2,-0.36 -0.46,-0.44 -0.24,-0.07 -0.52,0.01 -0.48,0.38 0,0.09 0.1,0.24 0.14,0.3 0.03,0.05 0.06,0.08 0.1,0.13 0.04,0.04 0.06,0.08 0.1,0.12 0.06,0.07 0.35,0.32 0.44,0.36l0.08 0.05z"/>
  <path class="fil1 str1" d="M20.52 3.24l0.05 0.08c0.02,0.02 0.05,0.05 0.07,0.07 0.05,0.06 0.08,0.1 0.12,0.17 0.21,0.35 0.27,0.89 0.37,1.3 0.12,0.52 0.24,0.76 0.49,1.18 0.03,0.04 0.1,0.13 0.06,0.2 -0.02,0.04 -0.09,0.11 -0.15,0.12 0,0.07 0.12,0.21 0.15,0.26 0.11,0.15 0.25,0.39 0.34,0.51 0.06,0.08 0.16,0.14 0.19,0.24 0.37,0.29 -0.1,-0.44 -0.13,-0.49 -0.09,-0.14 -0.1,-0.19 -0.21,-0.33 -0.06,-0.08 -0.1,-0.09 -0.06,-0.13 0,0 0.02,-0.01 0.02,-0.02 0.02,-0.01 0.04,-0.01 0.06,-0.02 0.03,-0.02 0.07,-0.03 0.11,-0.06 0,-0.06 -0.03,-0.07 -0.06,-0.11 -0.04,-0.04 -0.06,-0.06 -0.09,-0.1l-0.24 -0.48c-0.05,-0.09 -0.06,-0.2 -0.1,-0.29 0,-0.03 -0.06,-0.19 -0.07,-0.23 -0.03,-0.09 -0.04,-0.17 -0.06,-0.26 -0.06,-0.2 -0.22,-0.92 -0.25,-1 -0.04,-0.09 -0.05,-0.14 -0.1,-0.22l-0.12 -0.18c-0.03,-0.03 -0.09,-0.1 -0.11,-0.13 -0.03,-0.05 -0.05,-0.13 -0.05,-0.2 0,-0.08 0.03,-0.23 0.05,-0.31 0.03,-0.09 -0.11,-0.14 -0.21,-0.14 -0.03,0.05 -0.05,0.19 -0.07,0.26 -0.02,0.12 -0.01,0.19 0,0.31z"/>
  <path class="fil1 str1" d="M2.58 1.36c-0.21,0.12 -0.32,0.41 -0.4,0.63 -0.11,0.31 -0.21,0.94 -0.26,1.31 -0.01,0.13 -0.05,0.24 -0.07,0.36 0.06,-0.05 0.11,-0.1 0.17,-0.14 0.06,-0.04 0.15,-0.1 0.19,-0.14 0.14,-0.1 0.14,-0.34 0.18,-0.56 0.04,-0.2 0.07,-0.41 0.11,-0.62 0.04,-0.26 0.13,-0.61 0.34,-0.77 0.06,-0.05 0.19,-0.12 0.21,-0.15 0.04,-0.04 0.05,-0.03 0.08,-0.09 0.02,-0.04 0.03,-0.08 0.04,-0.12 0.02,-0.1 0.02,-0.2 0.01,-0.31 0.01,-0.14 -0.07,-0.29 -0.04,-0.44 0.02,-0.12 0.12,-0.22 0.21,-0.26 -0.01,-0.02 0.01,-0.02 -0.04,-0.02 -0.21,-0.03 -0.58,0.11 -0.5,0.47 0.07,0.37 0.08,0.62 -0.23,0.85z"/>
  <path class="fil4" d="M1.67 6.55l0 0c-0.09,0.07 -0.2,0.1 -0.3,0.12 -0.1,0.03 -0.22,0.07 -0.33,0.09 -0.06,0.03 -0.79,0.2 -0.89,0.26 -0.18,0.1 -0.17,0.72 -0.04,0.79 0.06,0.03 0.18,-0.01 0.23,-0.02 0.15,-0.04 0.31,-0.07 0.46,-0.12 0.05,-0.01 0.1,-0.03 0.16,-0.04 0.07,-0.01 0.13,-0.01 0.19,-0.02 0.02,-0.02 0.01,-0.01 0.03,-0.03l0.06 -0.1c0.02,-0.02 0.03,-0.05 0.04,-0.06 0.01,-0.03 0.01,-0.02 0.01,-0.04 0.02,-0.05 0.01,0 0.06,-0.1 0.02,-0.02 0.03,-0.04 0.04,-0.06l0.27 -0.47c0.03,-0.08 0.06,-0.14 0.09,-0.21l-0.08 0.01z"/>
  <path class="fil3" d="M1.17 5.08l0 0.01c0,0 0.06,0.68 0.13,0.84 0.15,0.32 0.23,0.35 0.32,0.54 0.02,0.04 0.04,0.04 0.05,0.08l0 0c0.05,-0.04 0.08,0.01 0.12,-0.07 0.02,-0.04 0.03,-0.07 0.05,-0.11 0.02,-0.04 0.04,-0.08 0.06,-0.12 0.02,-0.03 0.04,-0.08 0.05,-0.12 0.09,-0.23 0.09,-0.32 0.1,-0.59 -0.03,-0.09 -0.04,-0.07 -0.06,-0.21 -0.01,-0.03 -0.01,-0.25 0,-0.24 -0.02,-0.02 -0.13,-0.07 -0.17,-0.07 -0.06,-0.02 -0.15,-0.03 -0.22,-0.03 -0.2,-0.01 -0.28,0.03 -0.42,0.06l-0.01 0.03z"/>
  <path class="fil6 str2" d="M19.99 1.87l-0.02 0.02c-0.03,0.03 -0.02,0.01 -0.05,0.07 -0.06,0.09 -0.12,0.18 -0.18,0.29 -0.04,0.08 -0.08,0.14 -0.12,0.21 -0.02,0.04 -0.11,0.13 -0.14,0.17 -0.13,0.15 -0.61,0.42 -0.81,0.46 -0.03,0 -0.2,0.08 -0.23,0.11 0.01,0.03 0.06,0.15 0.08,0.18 0.09,0.01 0.24,-0.06 0.35,-0.07l0.31 -0.08c0.11,-0.02 0.2,-0.04 0.31,-0.08 0.14,-0.05 0.26,-0.14 0.35,-0.24 0.03,-0.04 0.06,-0.06 0.09,-0.11 0.13,-0.17 0.21,-0.29 0.28,-0.51 0.03,-0.08 0.07,-0.23 0.04,-0.33 -0.04,-0.11 -0.14,-0.15 -0.26,-0.09z"/>
  <path class="fil3" d="M3.35 3.48c0,0.13 0.01,0.22 0.03,0.34 0.01,0.1 0.04,0.23 0.05,0.33 0.04,0.01 0.04,0 0.07,0.02l0.82 0.26c0.03,0.02 0.07,0.04 0.1,0.05 0,-0.09 -0.08,-0.18 -0.08,-0.48 0.01,-0.27 0.03,-0.28 0.07,-0.49l-0.42 -0.13c-0.2,0 -0.45,-0.09 -0.56,-0.17 -0.02,0.04 -0.03,0.09 -0.05,0.13 -0.02,0.04 -0.04,0.07 -0.06,0.1l0.03 0.04z"/>
  <path class="fil6" d="M3.18 0.76c0.01,0.11 0.01,0.21 -0.01,0.31 -0.01,0.04 -0.02,0.08 -0.04,0.12 -0.03,0.06 -0.04,0.05 -0.08,0.09 0.06,-0.01 0.31,0.04 0.38,0.06l0.03 0.04c0,-0.08 0.04,-0.18 0.07,-0.23 0.24,-0.03 0.41,0.09 0.5,-0.16 0.08,-0.2 0.02,-0.39 -0.02,-0.58 -0.05,-0.08 -0.11,-0.27 -0.21,-0.29 -0.11,0.01 -0.23,0.06 -0.34,0.08 0,0.02 0.07,0.25 0.04,0.32 -0.1,0.11 -0.12,-0.05 -0.21,-0.01 -0.07,0.05 -0.01,0.18 -0.11,0.25z"/>
  <path class="fil1 str1" d="M20.08 0.68c0.02,0.02 0.06,0.04 0.08,0.06 0.2,0.16 0.29,0.38 0.47,0.61 0.11,0.13 0.21,0.18 0.39,0.23 0.09,0.02 0.17,0.04 0.23,0.07 0.15,0.07 0.29,0.22 0.33,0.38 0.03,0.16 -0.03,0.28 -0.11,0.41 -0.08,0.13 -0.22,0.28 -0.43,0.3 -0.05,-0.01 -0.09,-0.01 -0.13,-0.01 0.04,0.08 0.28,0.14 0.4,0.13 0.39,-0.01 0.78,-0.73 0.38,-1.05 -0.22,-0.18 -0.32,-0.15 -0.48,-0.22 -0.05,-0.02 -0.11,-0.04 -0.16,-0.06 -0.26,-0.11 -0.47,-0.68 -0.74,-0.83 -0.05,-0.02 -0.17,-0.06 -0.23,-0.02z"/>
  <path class="fil1 str1" d="M19.85 6.49c-0.04,0.1 -0.06,0.2 -0.09,0.31 -0.04,0.24 -0.14,0.41 -0.18,0.61 -0.03,0.15 0,0.18 -0.08,0.31 -0.02,0.06 -0.12,0.14 -0.12,0.18 0.25,0.03 0.27,-0.07 0.45,-0.07 0.04,-0.1 0.21,-1.25 0.29,-1.27l0.01 -0.01 0.96 -0.02c0.07,-0.03 -0.04,-0.06 -0.07,-0.08 -0.14,-0.03 -0.66,0.02 -0.88,0.02 -0.13,0 -0.24,0.02 -0.29,0.02z"/>
  <path class="fil5" d="M21.02 6.45c0.03,0.02 0.06,0.02 0.09,0.05 0.06,0.02 0.31,0.24 0.38,0.29 0.03,0.02 0.09,0.08 0.11,0.1 0.13,0.1 0.31,0.36 0.38,0.52 0.03,0.07 0.04,0.18 0.11,0.2 0.07,-0.02 0.12,-0.15 0.12,-0.24 -0.03,-0.1 -0.13,-0.16 -0.19,-0.24 -0.09,-0.12 -0.23,-0.36 -0.34,-0.51 -0.03,-0.05 -0.15,-0.19 -0.15,-0.26 -0.05,0.01 -0.02,0.01 -0.06,0.02l-0.45 0.07z"/>
  <path class="fil5" d="M19.31 7.59c-0.02,0.05 -0.09,0.14 -0.06,0.19 0.07,0.06 0.2,-0.03 0.25,-0.06 0.08,-0.13 0.05,-0.16 0.08,-0.31 0.04,-0.2 0.14,-0.37 0.18,-0.61 0.03,-0.11 0.05,-0.21 0.09,-0.31 -0.13,0 -0.23,-0.01 -0.35,-0.01 -0.01,-0.03 -0.01,-0.05 -0.03,-0.07 0,0.09 0.02,0.16 0.02,0.26 0,0.31 -0.02,0.64 -0.18,0.92z"/>
  <path class="fil0 str3" d="M19.6 1.49c0.12,0.01 0.31,0.04 0.38,0.16 0.03,0.06 0.02,0.08 0.03,0.15 0.02,-0.01 0.09,-0.04 0.11,-0.05 0.03,-0.38 -0.1,-0.33 -0.21,-0.44 -0.12,-0.12 -0.12,-0.38 -0.27,-0.58 -0.04,0.01 -0.02,0 -0.04,0.03 -0.22,0.26 -0.09,0.49 0,0.73z"/>
  <path class="fil2 str0" d="M3.35 0.06c-0.09,0.04 -0.19,0.14 -0.21,0.26 -0.03,0.15 0.05,0.3 0.04,0.44 0.1,-0.07 0.04,-0.2 0.11,-0.25 0.09,-0.04 0.11,0.12 0.21,0.01 0.03,-0.07 -0.04,-0.3 -0.04,-0.32 0.11,-0.02 0.23,-0.07 0.34,-0.08 -0.01,-0.18 -0.35,-0.1 -0.45,-0.06z"/>
  <path class="fil1" d="M19.14 3.4c0.01,0.04 0.03,0.09 0.06,0.11 0.04,0.04 0.08,0 0.12,-0.02l0.45 -0.25c0.04,-0.02 0.08,-0.04 0.12,-0.06 0.04,-0.02 0.08,-0.05 0.12,-0.06 0,-0.03 -0.03,-0.13 -0.05,-0.16 -0.08,0.02 -0.33,0.19 -0.4,0.23 -0.13,0.07 -0.28,0.15 -0.42,0.21z"/>
  <path class="fil6" d="M5.46 3.49l0.03 -0.02c0.02,-0.01 0,-0.01 0.04,-0.01l0.12 -0.09c0.04,-0.03 0.09,-0.08 0.11,-0.12 0,0 0,-0.01 0,0l-0.03 -0.03c-0.07,-0.04 -0.19,-0.05 -0.24,-0.08 0.02,-0.03 0.11,-0.04 0.15,-0.09 -0.01,-0.03 -0.02,-0.03 -0.03,-0.05 -0.04,0 -0.11,0.03 -0.16,0.05 -0.06,0.01 -0.1,0.01 -0.14,0.06 -0.04,0.05 -0.1,0.19 -0.13,0.25 0.04,0.03 0.08,0.05 0.13,0.07 0.03,0.01 0.05,0.02 0.08,0.03 0.01,0 0.02,0 0.03,0.01l0.03 0.01c0,0 0,0.01 0.01,0.01z"/>
  <path class="fil7" d="M3.43 3.21c0.11,0.08 0.36,0.17 0.56,0.17 -0.01,-0.05 -0.04,-0.07 -0.09,-0.13l-0.17 -0.16c-0.03,-0.02 -0.04,-0.02 -0.07,-0.04 -0.04,-0.04 -0.07,-0.09 -0.13,-0.09 -0.01,0.04 -0.04,0.08 -0.07,0.11 -0.03,0.07 -0.04,0.06 -0.03,0.14z"/>
  <path class="fil8" d="M18.1 3.46c0,0.05 0.01,0.05 0.03,0.09 0.02,0.02 0.08,0.03 0.12,0.03 0.04,0 0.07,-0.03 0.1,-0.05 0.07,-0.04 0.16,-0.06 0.11,-0.17 -0.03,-0.08 -0.07,-0.12 -0.18,-0.11 -0.05,0.01 -0.19,0.05 -0.22,0.08 0.03,0.04 0.07,0.03 0.12,0.04 0,0 -0.08,0.08 -0.08,0.09z"/>
  <path class="fil9" d="M12.41 4.18c0.88,0 1.59,-0.71 1.59,-1.59 0,-0.89 -0.71,-1.6 -1.59,-1.6 -0.88,0 -1.6,0.71 -1.6,1.6 0,0.88 0.72,1.59 1.6,1.59z"/>
  <g id="_2207213272288">
   <path id="Path_7392" class="fil10" d="M12.82 3.44c0,0 0,0 0,0 -0.03,0 -0.06,-0.01 -0.08,-0.04l-0.7 -0.69c-0.02,-0.02 -0.03,-0.05 -0.03,-0.08 0,-0.06 0.05,-0.11 0.11,-0.11 0.03,0 0.06,0.01 0.08,0.03l0.63 0.63c0.21,-0.17 0.32,-0.38 0.32,-0.59 0,-0.24 -0.14,-0.47 -0.4,-0.65 -0.03,-0.02 -0.04,-0.06 -0.04,-0.09 0,-0.07 0.05,-0.12 0.11,-0.12 0.02,0 0.04,0.01 0.06,0.02 0.32,0.23 0.49,0.52 0.49,0.84 0,0.31 -0.17,0.6 -0.49,0.83 -0.02,0.01 -0.04,0.02 -0.06,0.02 0,0 0,0 0,0m0 0l0 0 0 0z" data-name="Path 7392"/>
   <path id="Path_7393" class="fil11" d="M12 3.44c0,0 0,0 0,0 -0.03,0 -0.05,-0.01 -0.07,-0.02 -0.31,-0.23 -0.49,-0.52 -0.49,-0.83 0,-0.32 0.18,-0.61 0.49,-0.84 0.02,-0.01 0.04,-0.02 0.07,-0.02 0.03,0 0.05,0.01 0.08,0.04l0.69 0.69c0.02,0.02 0.04,0.05 0.04,0.08 0,0.06 -0.05,0.11 -0.12,0.11 -0.03,0 -0.05,-0.01 -0.08,-0.03l-0.62 -0.63c-0.21,0.17 -0.32,0.38 -0.32,0.6 0,0.23 0.14,0.46 0.39,0.64 0.03,0.02 0.05,0.06 0.05,0.1 0,0.06 -0.05,0.11 -0.11,0.11 0,0 0,0 0,0m0 0l0 0 0 0z" data-name="Path 7393"/>
  </g>
 </g>
</svg>
