<?xml version="1.0" encoding="UTF-8"?>
<!DOCTYPE svg PUBLIC "-//W3C//DTD SVG 1.1//EN" "http://www.w3.org/Graphics/SVG/1.1/DTD/svg11.dtd">
<!-- Creator: CorelDRAW 2021 (64-Bit) -->
<svg xmlns="http://www.w3.org/2000/svg" xml:space="preserve" width="1243px" height="1243px" version="1.1" style="shape-rendering:geometricPrecision; text-rendering:geometricPrecision; image-rendering:optimizeQuality; fill-rule:evenodd; clip-rule:evenodd"
viewBox="0 0 26.74 26.74"
 xmlns:xlink="http://www.w3.org/1999/xlink"
 xmlns:xodm="http://www.corel.com/coreldraw/odm/2003">
 <defs>
  <style type="text/css">
   <![CDATA[
    .str0 {stroke:#2B2A29;stroke-width:0.07;stroke-miterlimit:22.9256;stroke-opacity:0.200000}
    .fil5 {fill:none;fill-rule:nonzero}
    .fil4 {fill:#B2B3B3;fill-rule:nonzero}
    .fil2 {fill:#2B2A29;fill-rule:nonzero}
    .fil1 {fill:white;fill-rule:nonzero}
    .fil3 {fill:#B2B3B3;fill-rule:nonzero;fill-opacity:0.101961}
    .fil0 {fill:#2B2A29;fill-rule:nonzero;fill-opacity:0.101961}
    .fil7 {fill:url(#id0);fill-rule:nonzero}
    .fil6 {fill:url(#id1);fill-rule:nonzero}
   ]]>
  </style>
  <linearGradient id="id0" gradientUnits="userSpaceOnUse" x1="11.59" y1="11.64" x2="15.26" y2="14.77">
   <stop offset="0" style="stop-opacity:1; stop-color:#EFFE25"/>
   <stop offset="1" style="stop-opacity:1; stop-color:#75EF0A"/>
  </linearGradient>
  <linearGradient id="id1" gradientUnits="userSpaceOnUse" xlink:href="#id0" x1="11.59" y1="11.64" x2="15.26" y2="14.77">
  </linearGradient>
 </defs>
 <g id="Layer_x0020_1">
  <metadata id="CorelCorpID_0Corel-Layer"/>
  <path class="fil0" d="M13.37 26.74c7.38,0 13.37,-5.99 13.37,-13.37 0,-7.38 -5.99,-13.37 -13.37,-13.37 -7.38,0 -13.37,5.99 -13.37,13.37 0,7.38 5.99,13.37 13.37,13.37z"/>
  <path class="fil1" d="M21.39 26.74l-16.04 0 0 -17.29c0.75,0 1.48,-0.3 2.01,-0.84 0.54,-0.53 0.84,-1.26 0.84,-2.02l10.34 0c0,0.38 0.07,0.75 0.21,1.1 0.15,0.34 0.36,0.66 0.62,0.92 0.27,0.27 0.58,0.48 0.93,0.62 0.34,0.14 0.71,0.22 1.09,0.22l0 17.29z"/>
  <path class="fil2" d="M13.37 16.78c2.18,0 3.95,-1.77 3.95,-3.95 0,-2.18 -1.77,-3.95 -3.95,-3.95 -2.18,0 -3.95,1.77 -3.95,3.95 0,2.18 1.77,3.95 3.95,3.95z"/>
  <g id="_2207254861488">
   <g>
    <path class="fil3" d="M17.66 18.25l-8.55 0c-0.32,0 -0.58,0.26 -0.58,0.59 0,0.32 0.26,0.58 0.58,0.58l8.55 0c0.32,0 0.58,-0.26 0.58,-0.58 0,-0.33 -0.26,-0.59 -0.58,-0.59z"/>
    <g>
     <path class="fil4" d="M9.11 18.46l8.55 0c0.21,0 0.38,0.17 0.38,0.38 0,0.21 -0.17,0.38 -0.38,0.38l-8.55 0c-0.21,0 -0.38,-0.17 -0.38,-0.38 0,-0.21 0.17,-0.38 0.38,-0.38z"/>
     <path id="_1" class="fil5 str0" d="M9.11 18.46l8.55 0c0.21,0 0.38,0.17 0.38,0.38 0,0.21 -0.17,0.38 -0.38,0.38l-8.55 0c-0.21,0 -0.38,-0.17 -0.38,-0.38 0,-0.21 0.17,-0.38 0.38,-0.38z"/>
    </g>
   </g>
   <g id="_2207254860720">
    <path class="fil3" d="M17.66 20.3l-8.55 0c-0.32,0 -0.58,0.26 -0.58,0.58 0,0.32 0.26,0.58 0.58,0.58l8.55 0c0.32,0 0.58,-0.26 0.58,-0.58 0,-0.32 -0.26,-0.58 -0.58,-0.58z"/>
    <g>
     <path class="fil4" d="M9.11 20.5l8.55 0c0.21,0 0.38,0.17 0.38,0.38 0,0.21 -0.17,0.38 -0.38,0.38l-8.55 0c-0.21,0 -0.38,-0.17 -0.38,-0.38 0,-0.21 0.17,-0.38 0.38,-0.38z"/>
     <path id="_1_0" class="fil5 str0" d="M9.11 20.5l8.55 0c0.21,0 0.38,0.17 0.38,0.38 0,0.21 -0.17,0.38 -0.38,0.38l-8.55 0c-0.21,0 -0.38,-0.17 -0.38,-0.38 0,-0.21 0.17,-0.38 0.38,-0.38z"/>
    </g>
   </g>
   <g>
    <path class="fil3" d="M17.63 22.29l-8.55 0c-0.33,0 -0.59,0.26 -0.59,0.58 0,0.32 0.26,0.58 0.59,0.58l8.55 0c0.32,0 0.58,-0.26 0.58,-0.58 0,-0.32 -0.26,-0.58 -0.58,-0.58z"/>
    <g>
     <path class="fil4" d="M9.08 22.49l8.55 0c0.21,0 0.38,0.17 0.38,0.38 0,0.21 -0.17,0.38 -0.38,0.38l-8.55 0c-0.21,0 -0.38,-0.17 -0.38,-0.38 0,-0.21 0.17,-0.38 0.38,-0.38z"/>
     <path id="_1_1" class="fil5 str0" d="M9.08 22.49l8.55 0c0.21,0 0.38,0.17 0.38,0.38 0,0.21 -0.17,0.38 -0.38,0.38l-8.55 0c-0.21,0 -0.38,-0.17 -0.38,-0.38 0,-0.21 0.17,-0.38 0.38,-0.38z"/>
    </g>
   </g>
  </g>
  <g>
   <path id="Path_7392" class="fil6" d="M14.39 14.94c-0.01,0 -0.01,0 -0.01,0 -0.07,0 -0.14,-0.03 -0.19,-0.08l-1.73 -1.72c-0.05,-0.06 -0.08,-0.13 -0.08,-0.2 0,-0.16 0.13,-0.28 0.28,-0.28 0.07,0 0.14,0.03 0.2,0.08l1.55 1.55c0.51,-0.42 0.79,-0.93 0.79,-1.46 0,-0.59 -0.34,-1.16 -0.98,-1.61 -0.07,-0.05 -0.11,-0.13 -0.11,-0.22 0,-0.16 0.12,-0.28 0.28,-0.28 0.05,0 0.11,0.02 0.16,0.05 0.78,0.55 1.21,1.28 1.21,2.06 0,0.77 -0.43,1.5 -1.21,2.06 -0.05,0.03 -0.11,0.05 -0.16,0.05 0,0 -0.01,0 -0.01,0m0.01 0l0 0 0 0z" data-name="Path 7392"/>
   <path id="Path_7393" class="fil7" d="M12.35 14.94c0,0 0,0 0,0 -0.06,0 -0.11,-0.02 -0.16,-0.05 -0.78,-0.56 -1.21,-1.29 -1.21,-2.06 0,-0.78 0.43,-1.51 1.21,-2.06 0.05,-0.03 0.1,-0.05 0.16,-0.05 0.07,0 0.15,0.03 0.2,0.08l1.72 1.72c0.05,0.05 0.08,0.12 0.08,0.19 0,0.16 -0.12,0.28 -0.28,0.28 -0.07,0 -0.14,-0.03 -0.19,-0.08l-1.55 -1.54c-0.52,0.42 -0.8,0.93 -0.8,1.46 0,0.59 0.35,1.15 0.98,1.6 0.08,0.05 0.12,0.14 0.12,0.23 0,0.15 -0.12,0.28 -0.28,0.28 0,0 0,0 0,0m0 0l0 0 0 0z" data-name="Path 7393"/>
  </g>
 </g>
</svg>
