<?xml version="1.0" encoding="UTF-8"?>
<!DOCTYPE svg PUBLIC "-//W3C//DTD SVG 1.1//EN" "http://www.w3.org/Graphics/SVG/1.1/DTD/svg11.dtd">
<!-- Creator: CorelDRAW 2021 (64-Bit) -->
<svg xmlns="http://www.w3.org/2000/svg" xml:space="preserve" width="105.282mm" height="105.282mm" version="1.1" style="shape-rendering:geometricPrecision; text-rendering:geometricPrecision; image-rendering:optimizeQuality; fill-rule:evenodd; clip-rule:evenodd"
viewBox="0 0 226.45 226.45"
 xmlns:xlink="http://www.w3.org/1999/xlink"
 xmlns:xodm="http://www.corel.com/coreldraw/odm/2003">
 <defs>
  <style type="text/css">
   <![CDATA[
    .str0 {stroke:#2B2A29;stroke-width:0.57;stroke-miterlimit:22.9256;stroke-opacity:0.200000}
    .fil3 {fill:none;fill-rule:nonzero}
    .fil2 {fill:#2B2A29;fill-rule:nonzero}
    .fil1 {fill:white;fill-rule:nonzero}
    .fil0 {fill:#2B2A29;fill-rule:nonzero;fill-opacity:0.101961}
    .fil5 {fill:url(#id0);fill-rule:nonzero}
    .fil4 {fill:url(#id1);fill-rule:nonzero}
   ]]>
  </style>
  <linearGradient id="id0" gradientUnits="userSpaceOnUse" x1="98.18" y1="98.6" x2="129.23" y2="125.11">
   <stop offset="0" style="stop-opacity:1; stop-color:#EFFE25"/>
   <stop offset="1" style="stop-opacity:1; stop-color:#75EF0A"/>
  </linearGradient>
  <linearGradient id="id1" gradientUnits="userSpaceOnUse" xlink:href="#id0" x1="98.18" y1="98.6" x2="129.23" y2="125.11">
  </linearGradient>
 </defs>
 <g id="Layer_x0020_1">
  <metadata id="CorelCorpID_0Corel-Layer"/>
  <path class="fil0" d="M113.23 226.45c62.53,0 113.23,-50.69 113.23,-113.23 0,-62.53 -50.69,-113.23 -113.23,-113.23 -62.53,0 -113.23,50.69 -113.23,113.23 0,62.53 50.69,113.23 113.23,113.23z"/>
  <path class="fil1" d="M181.16 226.45l-135.87 0 0 -146.44c6.4,-0.01 12.54,-2.55 17.07,-7.08 4.53,-4.53 7.08,-10.67 7.08,-17.07l87.56 0c-0.01,3.17 0.62,6.32 1.83,9.25 1.22,2.93 3,5.59 5.25,7.83 2.24,2.25 4.9,4.04 7.83,5.25 2.93,1.22 6.07,1.84 9.25,1.83l0 146.44z"/>
  <path class="fil2" d="M113.23 142.09c18.47,0 33.44,-14.97 33.44,-33.44 0,-18.47 -14.97,-33.44 -33.44,-33.44 -18.47,0 -33.44,14.97 -33.44,33.44 0,18.47 14.97,33.44 33.44,33.44z"/>
  <g id="_2206835367392">
   <g>
    <path class="fil0" d="M149.57 154.6l-72.42 0c-2.73,0 -4.94,2.21 -4.94,4.94 0,2.73 2.21,4.94 4.94,4.94l72.42 0c2.73,0 4.94,-2.21 4.94,-4.94 0,-2.73 -2.21,-4.94 -4.94,-4.94z"/>
    <g>
     <path class="fil2" d="M77.16 156.32l72.42 0c1.78,0 3.22,1.44 3.22,3.22 0,1.78 -1.44,3.22 -3.22,3.22l-72.42 0c-1.78,0 -3.22,-1.44 -3.22,-3.22 0,-1.78 1.44,-3.22 3.22,-3.22z"/>
     <path id="_1" class="fil3 str0" d="M77.16 156.32l72.42 0c1.78,0 3.22,1.44 3.22,3.22 0,1.78 -1.44,3.22 -3.22,3.22l-72.42 0c-1.78,0 -3.22,-1.44 -3.22,-3.22 0,-1.78 1.44,-3.22 3.22,-3.22z"/>
    </g>
   </g>
   <g id="_2206835369600">
    <path class="fil0" d="M149.57 171.92l-72.42 0c-2.73,0 -4.94,2.21 -4.94,4.94 0,2.73 2.21,4.94 4.94,4.94l72.42 0c2.73,0 4.94,-2.21 4.94,-4.94 0,-2.73 -2.21,-4.94 -4.94,-4.94z"/>
    <g>
     <path class="fil2" d="M77.16 173.64l72.42 0c1.78,0 3.22,1.44 3.22,3.22 0,1.78 -1.44,3.22 -3.22,3.22l-72.42 0c-1.78,0 -3.22,-1.44 -3.22,-3.22 0,-1.78 1.44,-3.22 3.22,-3.22z"/>
     <path id="_1_0" class="fil3 str0" d="M77.16 173.64l72.42 0c1.78,0 3.22,1.44 3.22,3.22 0,1.78 -1.44,3.22 -3.22,3.22l-72.42 0c-1.78,0 -3.22,-1.44 -3.22,-3.22 0,-1.78 1.44,-3.22 3.22,-3.22z"/>
    </g>
   </g>
   <g>
    <path class="fil0" d="M149.3 188.78l-72.42 0c-2.73,0 -4.94,2.21 -4.94,4.94 0,2.73 2.21,4.94 4.94,4.94l72.42 0c2.73,0 4.94,-2.21 4.94,-4.94 0,-2.73 -2.21,-4.94 -4.94,-4.94z"/>
    <g>
     <path class="fil2" d="M76.88 190.49l72.42 0c1.78,0 3.22,1.44 3.22,3.22 0,1.78 -1.44,3.22 -3.22,3.22l-72.42 0c-1.78,0 -3.22,-1.44 -3.22,-3.22 0,-1.78 1.44,-3.22 3.22,-3.22z"/>
     <path id="_1_1" class="fil3 str0" d="M76.88 190.49l72.42 0c1.78,0 3.22,1.44 3.22,3.22 0,1.78 -1.44,3.22 -3.22,3.22l-72.42 0c-1.78,0 -3.22,-1.44 -3.22,-3.22 0,-1.78 1.44,-3.22 3.22,-3.22z"/>
    </g>
   </g>
  </g>
  <g>
   <path id="Path_7392" class="fil4" d="M121.84 126.51c-0,-0 -0,-0 -0,-0 -0.62,0 -1.22,-0.25 -1.66,-0.69l-14.62 -14.56c-0.44,-0.44 -0.69,-1.04 -0.69,-1.67 0,-1.3 1.06,-2.36 2.36,-2.36 0.62,0 1.22,0.25 1.66,0.69l13.16 13.11c4.35,-3.57 6.72,-7.91 6.72,-12.38 0,-4.98 -2.94,-9.8 -8.29,-13.58 -0.62,-0.44 -0.99,-1.16 -0.99,-1.92 0,-1.3 1.06,-2.36 2.36,-2.36 0.48,0 0.95,0.15 1.35,0.42 6.63,4.68 10.28,10.87 10.28,17.43 0,6.56 -3.65,12.75 -10.28,17.43 -0.4,0.28 -0.87,0.43 -1.36,0.43 -0,0 -0,0 -0,0m0 0l0 0 0 0z" data-name="Path 7392"/>
   <path id="Path_7393" class="fil5" d="M104.61 126.51c-0,-0 -0,-0 -0,-0 -0.49,0 -0.96,-0.15 -1.36,-0.43 -6.63,-4.68 -10.28,-10.87 -10.28,-17.43 0,-6.56 3.65,-12.75 10.28,-17.43 0.4,-0.28 0.87,-0.43 1.36,-0.43 0.62,0 1.22,0.25 1.66,0.69l14.62 14.56c0.43,0.44 0.66,1.03 0.66,1.64 0,1.3 -1.06,2.36 -2.36,2.36 -0.61,0 -1.2,-0.24 -1.63,-0.66l-13.16 -13.11c-4.35,3.57 -6.72,7.91 -6.72,12.38 0,4.98 2.94,9.8 8.29,13.58 0.63,0.44 1,1.16 1,1.93 0,1.3 -1.06,2.36 -2.36,2.36 -0,0 -0,0 -0,0m0 0l0 0 0 0z" data-name="Path 7393"/>
  </g>
 </g>
</svg>
