<?xml version="1.0" encoding="UTF-8"?>
<!DOCTYPE svg PUBLIC "-//W3C//DTD SVG 1.1//EN" "http://www.w3.org/Graphics/SVG/1.1/DTD/svg11.dtd">
<!-- Creator: CorelDRAW 2021 (64-Bit) -->
<svg xmlns="http://www.w3.org/2000/svg" xml:space="preserve" width="795px" height="312px" version="1.1" style="shape-rendering:geometricPrecision; text-rendering:geometricPrecision; image-rendering:optimizeQuality; fill-rule:evenodd; clip-rule:evenodd"
viewBox="0 0 9.89 3.87"
 xmlns:xlink="http://www.w3.org/1999/xlink"
 xmlns:xodm="http://www.corel.com/coreldraw/odm/2003">
 <defs>
  <style type="text/css">
   <![CDATA[
    .str1 {stroke:#434242;stroke-width:0.01;stroke-linecap:round;stroke-linejoin:round;stroke-miterlimit:22.9256}
    .str0 {stroke:#2B2A29;stroke-width:0.01;stroke-linecap:round;stroke-linejoin:round;stroke-miterlimit:22.9256}
    .fil6 {fill:#C5C6C6}
    .fil3 {fill:#B2B3B3}
    .fil0 {fill:#9D9E9E}
    .fil4 {fill:#898989}
    .fil5 {fill:#727271}
    .fil7 {fill:#5B5B5B}
    .fil1 {fill:#434242}
    .fil2 {fill:#2B2A29}
    .fil8 {fill:#E7E0E1}
    .fil9 {fill:#434242;fill-rule:nonzero}
    .fil11 {fill:url(#id0);fill-rule:nonzero}
    .fil10 {fill:url(#id1);fill-rule:nonzero}
   ]]>
  </style>
  <linearGradient id="id0" gradientUnits="userSpaceOnUse" x1="5.18" y1="1.21" x2="5.64" y2="1.6">
   <stop offset="0" style="stop-opacity:1; stop-color:#EFFE25"/>
   <stop offset="1" style="stop-opacity:1; stop-color:#75EF0A"/>
  </linearGradient>
  <linearGradient id="id1" gradientUnits="userSpaceOnUse" xlink:href="#id0" x1="5.18" y1="1.21" x2="5.64" y2="1.6">
  </linearGradient>
 </defs>
 <g id="Layer_x0020_1">
  <metadata id="CorelCorpID_0Corel-Layer"/>
  <path class="fil0" d="M6.74 0.59c0.02,0.01 0.02,0.05 0.09,0.05 0.04,0 0.16,-0.03 0.26,0.01 0.04,0.01 0.08,0.03 0.1,0.05 0.21,0.11 0.28,0.46 0.35,0.66 0.01,0.03 0.08,0.24 0.09,0.25 0.01,-0.01 0.04,-0.05 0.05,-0.05 -0.03,0 -0.05,0 -0.07,-0.02 0.02,-0.01 0.09,-0.03 0.11,-0.03 0.06,-0.01 0.08,0.01 0.1,0.05 0.02,0.05 -0.02,0.07 -0.06,0.09 -0.01,0.01 -0.03,0.02 -0.05,0.02 -0.02,0 -0.05,0 -0.06,-0.01 0.02,0.21 0.17,0.33 0.12,0.58 -0.05,0.27 -0.37,0.44 -0.62,0.39 -0.43,-0.07 -0.6,-0.97 -0.73,-1.34 -0.12,-0.3 0.06,-0.39 0.19,-0.57 0.04,-0.06 -0.04,-0.23 -0.09,-0.27 -0.03,-0.03 -0.05,-0.04 -0.09,-0.02 -0.05,0.01 -0.08,0.04 -0.11,0.05 -0.1,0.1 -0.19,0.16 -0.25,0.3 -0.08,0.16 -0.12,0.37 -0.06,0.55 0.23,0.69 0.44,2 1.47,1.62 0.28,-0.1 0.57,-0.21 0.64,-0.54 0.01,-0.06 0.03,-0.12 0.03,-0.18 0.01,-0.16 -0.01,-0.29 -0.05,-0.45 0,-0.02 -0.03,-0.13 -0.04,-0.15l-0.04 -0.09c-0.05,0 -0.13,0.03 -0.17,0.03 -0.01,-0.01 -0.04,-0.08 -0.04,-0.09 0.01,-0.02 0.1,-0.06 0.11,-0.06 0.02,-0.02 0.02,-0.01 0.04,-0.02 -0.14,-0.34 -0.17,-0.65 -0.43,-0.92 -0.02,-0.01 -0.04,-0.03 -0.05,-0.04 -0.08,-0.06 -0.17,-0.11 -0.26,-0.14 -0.1,-0.04 -0.24,-0.04 -0.35,-0.03 -0.12,0.01 -0.24,0.04 -0.18,0.17 0.01,0.04 0.04,0.12 0.05,0.15z"/>
  <path class="fil1" d="M2.37 1.3c-0.04,0.03 -0.03,0.02 -0.06,0.04l-0.01 0 0.14 0.08c0.08,0.03 0.07,-0.01 0.02,0.1 -0.01,0.03 -0.02,0.08 -0.03,0.09 -0.02,0.01 -0.06,-0.02 -0.09,-0.03l-0.14 -0.04c-0.02,-0.01 -0.03,-0.01 -0.04,-0.02 -0.12,-0.04 -0.21,-0.08 -0.32,-0.13 -0.02,-0.01 -0.08,-0.05 -0.1,-0.05 -0.03,-0.01 -0.01,0.02 -0.05,0.07 0,0 0,0 0,0l-0.01 0.01c0.03,-0.01 0.05,0.02 0.07,0.04 0.01,0.01 0.02,0.01 0.03,0.02l0.08 0.08c0.02,0.02 0.04,0.03 0.04,0.05l0.2 0.07c-0.01,0.1 -0.03,0.1 -0.03,0.23 0,0.14 0.04,0.19 0.04,0.23 0.09,0.18 0.2,0.39 0.34,0.53 0.11,0.11 0.11,0.08 0.17,0.12 0.06,0.03 0.1,0.06 0.18,0.08 0.03,0.01 0.06,0.02 0.1,0.02 0.02,0 0.09,0.01 0.11,0.01 -0.01,-0.01 -0.08,-0.04 -0.09,-0.1 -0.02,-0.1 0.03,-0.21 -0.08,-0.33 -0.02,-0.02 -0.01,-0.01 -0.02,-0.03 -0.01,-0.01 -0.01,-0.01 -0.03,-0.02 -0.11,-0.11 -0.13,-0.08 -0.15,-0.1 -0.02,-0.02 -0.03,-0.05 -0.06,-0.09 -0.08,-0.14 -0.11,-0.23 -0.06,-0.4 0.01,0.01 0.04,0.02 0.05,0.02 -0.01,-0.01 0,0 -0.02,-0.01 -0.01,-0.01 -0.02,-0.01 -0.02,-0.02 -0.01,-0.04 0.02,-0.1 0.05,-0.12 0.01,-0.02 0.01,-0.02 0.02,-0.03 0,0 0,0 0,0l-0.01 -0.01c-0.01,0 -0.01,0 -0.02,-0.01 -0.01,0 -0.02,0 -0.03,-0.01 -0.03,-0.01 -0.05,-0.02 -0.07,-0.03 0.01,-0.03 0.04,-0.1 0.06,-0.12 0.02,-0.03 0.04,-0.03 0.07,-0.03 0.02,-0.01 0.06,-0.02 0.07,-0.02 0.01,0 0.02,0.01 0.02,0.02 -0.02,0.02 -0.06,0.03 -0.07,0.04 0.02,0.02 0.08,0.02 0.11,0.04 0.05,0.01 0.04,-0.01 0.06,-0.02 0.25,-0.16 0.85,-0.58 1.11,-0.58 0.15,0 0.22,0.04 0.31,0.11 0.05,0.04 0.08,0.05 0.15,0.02 0.04,-0.02 0.12,-0.07 0.14,-0.09 0.02,-0.02 0.02,-0.02 0.04,-0.04 0.01,-0.02 0.01,-0.04 0,-0.07 -0.04,-0.07 -0.19,-0.19 -0.27,-0.23 -0.14,-0.09 -0.34,-0.14 -0.54,-0.1 -0.27,0.06 -1.07,0.56 -1.36,0.76z"/>
  <path class="fil2 str0" d="M8.61 1.53l-0.18 0.69c0,0.02 -0.02,0.13 -0.03,0.16 -0.02,0.14 -0.03,0.29 -0.05,0.43 0,0.02 0,0.06 0,0.08 -0.01,0.01 0,0.02 -0.01,0.03 0,0.01 0.01,-0.01 0,0.01 0,0.01 0,0 0,0.01 0,0.02 0,0.06 -0.01,0.09l0 0.06 0 0.02c0.01,0.01 0.01,0.02 0.01,0.04 0.07,0 0.12,0.01 0.19,0 0.02,0 0.08,-0.01 0.14,-0.01 0.12,0 0.38,-0.02 0.45,0l0.23 -0.04c0.02,-0.01 0.01,-0.01 0.03,-0.02 0.03,0 0.07,-0.03 0.08,-0.05 0.02,-0.04 -0.02,-0.08 -0.03,-0.11 -0.13,-0.21 -0.19,-0.33 -0.26,-0.6 -0.04,-0.2 -0.08,-0.48 -0.18,-0.66 -0.03,-0.04 -0.04,-0.06 -0.06,-0.08 -0.02,-0.01 -0.03,-0.03 -0.04,-0.04l-0.02 -0.04c-0.03,-0.02 0,-0.01 -0.03,-0.02l-0.1 0.01c-0.03,0 -0.03,0.01 -0.06,0.01 -0.02,0 -0.04,-0.01 -0.06,0 0,0 0,0.01 -0.01,0.02l0 0.01z"/>
  <path class="fil2 str0" d="M1.05 1.62c0.01,0.01 -0.01,0.05 -0.01,0.08 -0.01,0.03 -0.02,0.05 -0.02,0.08 -0.01,0.07 -0.02,0.13 -0.02,0.2 0,0 0.02,0 -0.02,0l0.02 0.01c0,0.05 0,0.09 0,0.13 0,0.08 -0.01,0.15 -0.01,0.23 0,0.02 0,0.04 0,0.06 0,0.02 0,0.03 -0.01,0.04 -0.01,0 -0.02,-0.01 -0.03,-0.02 -0.01,0 0,0.1 0,0.12 0,0.02 0,0.03 0.01,0.05 0,0.01 0,0.03 0,0.03 0.01,0.01 0.02,0.02 0.02,0.02 -0.01,0.12 -0.01,0.17 -0.05,0.28 0,0.02 -0.01,0.04 -0.02,0.05 -0.01,0.02 -0.02,0.04 -0.03,0.06 -0.01,0.02 -0.02,0.04 -0.03,0.06 -0.02,0.03 -0.03,0.01 -0.05,0.03l0.04 -0.01c-0.02,0.04 -0.04,0.07 -0.05,0.1l-0.12 0.23c-0.01,0.01 -0.02,0.02 -0.02,0.03 -0.03,0.05 -0.02,0.02 -0.03,0.04 -0.01,0.01 0,0.01 -0.01,0.02 0,0.01 -0.01,0.02 -0.02,0.04l-0.03 0.04c0,0.01 0,0.01 -0.01,0.02 0.01,0 0,-0.01 0.01,0.01 0.01,0.02 0.02,0.01 0.03,0.03 0.08,0.04 0.1,0.14 0.2,0 0.05,-0.06 0.05,-0.09 0.12,-0.14 0.02,-0.01 0.05,-0.02 0.06,-0.03 0.01,-0.01 0.02,-0.02 0.04,-0.03 0.01,-0.02 0.01,-0.03 0.03,-0.05 0.02,-0.01 0.05,-0.06 0.06,-0.08l0.08 -0.14c0.04,-0.06 0.11,-0.24 0.13,-0.32l0.03 -0.15c0.01,-0.01 0,-0.02 0.01,-0.03 0.02,-0.12 0.04,-0.19 0.04,-0.32 0.01,-0.03 0.01,-0.03 0.02,-0.06l0.04 -0.33c0,-0.01 0,-0.01 0.01,-0.03l0.02 -0.16 0.01 -0.14c0,-0.01 0.04,-0.01 0.06,-0.01 0.02,0 0.02,-0.01 0.03,-0.01l0.02 0.01 -0.01 -0.02c0,-0.01 0.01,-0.03 0.02,-0.04 0.01,-0.02 0.02,-0.04 0.02,-0.06 0,-0.04 0,-0.04 0.02,-0.07 0.01,-0.02 0.03,-0.04 0.03,-0.05l0.01 -0.01c0,0 0,0 0,0 0.04,-0.05 0.02,-0.08 0.05,-0.07l-0.04 -0.02c-0.04,-0.02 -0.18,-0.14 -0.2,-0.17 -0.02,-0.03 -0.04,-0.05 -0.05,-0.06 -0.02,-0.03 -0.04,-0.04 -0.05,-0.07 -0.02,-0.03 -0.07,-0.1 -0.07,-0.14 -0.02,-0.17 0.12,-0.21 0.23,-0.18 0.12,0.04 0.18,0.17 0.22,0.21 0,-0.03 -0.02,-0.05 -0.02,-0.08 0,0 -0.01,-0.01 -0.01,-0.01l-0.01 -0.02c-0.03,-0.07 -0.05,-0.07 -0.07,-0.11 -0.02,-0.04 0,-0.01 -0.03,-0.05 -0.04,-0.01 -0.16,-0.03 -0.18,-0.02 -0.02,0.01 -0.08,0.04 -0.11,0.07 -0.1,0.07 -0.14,0.24 -0.16,0.36 -0.01,0.1 -0.03,0.2 -0.05,0.3 -0.02,0.1 -0.02,0.22 -0.09,0.27z"/>
  <path class="fil1" d="M4.22 1.87c-0.21,0.15 -0.49,0.29 -0.72,0.43 -0.01,0.01 -0.02,0.01 -0.03,0.02 -0.09,0.05 -0.08,0.05 -0.17,0.07 0,0 0.05,0.41 0.05,0.42 0.01,0 0,0 0.03,-0.01 0.34,-0.19 0.89,-0.47 1.15,-0.69 0.4,-0.35 0.31,-1.2 -0.04,-0.98 -0.07,0.05 -0.12,0.1 -0.1,0.18 0.05,0.22 0.04,0.42 -0.17,0.56z"/>
  <path class="fil2 str0" d="M8.42 0.22c0.08,0.1 0.07,0.24 0.14,0.3 0.05,0.05 0.12,0.03 0.1,0.22 -0.01,0.01 -0.05,0.02 -0.06,0.02 0,0.01 -0.02,0.04 0,0.04 0.06,-0.03 0.11,-0.01 0.13,0.05 0.01,0.05 -0.01,0.12 -0.02,0.17 -0.04,0.11 -0.08,0.17 -0.14,0.26 -0.02,0.02 -0.03,0.03 -0.05,0.05 -0.05,0.05 -0.11,0.1 -0.18,0.12 -0.05,0.02 -0.1,0.03 -0.16,0.04l-0.16 0.05 0.04 0.09c0.01,0.01 0.03,-0.01 0.05,-0.02 0.02,-0.01 0.04,-0.02 0.05,-0.03 0.08,-0.03 0.15,-0.07 0.22,-0.11 0.03,-0.02 0.16,-0.11 0.2,-0.11 0.01,0.01 0.02,0.06 0.02,0.08 0.01,0.03 0.01,0.06 0.01,0.09l0 -0.01c0.01,-0.01 0.01,-0.02 0.01,-0.02 0.02,-0.01 0.04,0 0.06,0 0.03,0 0.03,-0.01 0.06,-0.01l0.1 -0.01c0.03,0.01 0,0 0.03,0.02 -0.01,-0.06 -0.01,-0.1 0,-0.16 0,-0.03 0.01,-0.1 0.03,-0.13 0.05,0 0.02,0.03 0.12,0.03l0.11 0.01c0.11,-0.01 0.18,-0.09 0.22,-0.16 0.04,-0.06 0.07,-0.13 0.05,-0.21 0,-0.01 0,-0.03 -0.01,-0.03 -0.01,-0.03 0.01,0 -0.02,-0.01 0,-0.04 0.02,0 0.01,-0.02 0,-0.01 -0.01,-0.02 -0.02,-0.03 -0.02,-0.03 -0.02,-0.03 -0.04,-0.04 0.01,-0.01 -0.02,-0.02 -0.03,-0.03 -0.02,-0.01 -0.03,-0.02 -0.05,-0.03 -0.03,-0.02 -0.08,-0.03 -0.12,-0.04 -0.09,-0.02 -0.14,-0.05 -0.2,-0.11 -0.09,-0.12 -0.13,-0.23 -0.24,-0.31 -0.01,-0.02 -0.03,-0.02 -0.04,-0.03 -0.04,-0.02 -0.06,-0.03 -0.13,-0.03 -0.03,0 -0.09,0.02 -0.09,0.05z"/>
  <path class="fil1 str1" d="M0.97 3.51c0.03,-0.01 0.06,-0.03 0.09,-0.04 0.03,-0.02 0.06,-0.04 0.09,-0.05 0,-0.01 0.08,-0.07 0.13,-0.06l0.05 0.02c0.04,0.05 0.01,0.36 0.05,0.42 0.03,0.03 0.07,0.03 0.12,0.03 0.03,0.01 0.09,0.01 0.11,-0.01 0.02,-0.02 0.01,-0.08 0.01,-0.12 0,-0.07 -0.02,-0.17 0.01,-0.23 0,-0.02 0.01,-0.07 0.02,-0.1 0.01,-0.03 0.02,-0.06 0.02,-0.09 0.02,-0.07 0.02,-0.16 0.02,-0.22 -0.01,-0.04 -0.02,-0.07 -0.02,-0.11 0,-0.04 0,-0.1 0,-0.12 -0.01,-0.02 0,-0.08 -0.01,-0.11 0,-0.03 0,-0.06 0,-0.1 0,-0.19 -0.03,-0.47 -0.02,-0.63l0.03 0c-0.02,-0.01 -0.01,0 -0.04,-0.01 0,-0.04 -0.01,-0.11 -0.02,-0.15 -0.01,-0.06 -0.01,-0.1 -0.01,-0.17l-0.02 -0.01c-0.01,0 -0.01,0.01 -0.03,0.01 -0.02,0 -0.06,0 -0.06,0.01l-0.01 0.14 -0.02 0.16c-0.01,0.02 -0.01,0.02 -0.01,0.03l-0.04 0.33c-0.01,0.03 -0.01,0.03 -0.02,0.06 0,0.13 -0.02,0.2 -0.04,0.32 -0.01,0.01 0,0.02 -0.01,0.03l-0.03 0.15c-0.02,0.08 -0.09,0.26 -0.13,0.32l-0.08 0.14c-0.01,0.02 -0.04,0.07 -0.06,0.08 -0.02,0.02 -0.02,0.03 -0.03,0.05 -0.02,0.01 -0.03,0.02 -0.04,0.03z"/>
  <path class="fil3" d="M1.69 3.06c0,0.11 -0.01,0.21 -0.04,0.31 -0.01,0.03 -0.02,0.08 -0.02,0.1 0.06,0 0.1,0.02 0.15,0.04 0.05,0.01 0.09,0.03 0.14,0.04 0.04,0.02 0.09,0.03 0.14,0.05 0.07,0.02 0.21,0.07 0.29,0.08 0.05,0 0.15,0 0.19,0 0.05,-0.01 0.1,-0.01 0.16,-0.03 0.03,-0.02 0.11,-0.04 0.14,-0.07 0.1,-0.07 0.49,-0.39 0.34,-0.51 -0.03,-0.02 -0.18,-0.07 -0.23,-0.08 -0.05,0 -0.06,0.03 -0.09,0.07 -0.28,0.4 -0.58,0.21 -0.97,0.09 -0.05,-0.02 -0.17,-0.05 -0.2,-0.09z"/>
  <path class="fil3" d="M0.88 1.75c-0.02,0.01 -0.07,0.07 -0.08,0.09 -0.02,0.02 -0.04,0.06 -0.06,0.08 -0.05,0.08 0.01,0.02 0.12,0.04 0.03,0 0.05,0 0.07,0 0.02,0.01 0.03,0.02 0.05,0.02 0.04,0 0.02,0 0.02,0 0,-0.07 0.01,-0.13 0.02,-0.2 0,-0.03 0.01,-0.05 0.02,-0.08 0,-0.03 0.02,-0.07 0.01,-0.08 -0.01,0.02 -0.06,0.04 -0.09,0.06 -0.03,0.02 -0.05,0.05 -0.08,0.07z"/>
  <path class="fil3" d="M3.01 2.9c0.05,0.01 0.06,0.01 0.1,0.02 0.02,0 0.1,0.01 0.12,0 0.03,-0.01 0.1,-0.08 0.12,-0.11 -0.01,-0.04 0,-0.03 0,-0.06 0.01,-0.09 -0.01,-0.12 -0.01,-0.18 0,-0.02 0.01,0 0,-0.02l-0.02 -0.07c-0.01,-0.02 -0.02,-0.08 -0.02,-0.09 -0.06,-0.04 -0.08,-0.11 -0.14,-0.18 -0.19,-0.25 -0.33,-0.26 -0.59,-0.36 -0.01,0 -0.04,-0.01 -0.05,-0.02 -0.05,0.17 -0.02,0.26 0.06,0.4 0.03,0.04 0.04,0.07 0.06,0.09 0.02,0.02 0.04,-0.01 0.15,0.1 0.02,0.01 0.02,0.01 0.03,0.02 0.01,0.02 0,0.01 0.02,0.03 0.11,0.12 0.06,0.23 0.08,0.33 0.01,0.06 0.08,0.09 0.09,0.1z"/>
  <path class="fil4" d="M0.09 2.52c0.04,-0.01 0.11,-0.03 0.15,-0.04 0.07,-0.02 0.23,-0.06 0.31,-0.07 0,0.01 0.01,0.01 0.01,0.02l0 -0.02c0.07,-0.01 0.11,-0.03 0.21,-0.02 0.03,0 0.07,0 0.1,0.01 0.02,0 0.07,0.02 0.08,0.03 0.01,0.01 0.02,0.02 0.03,0.02 0.01,-0.01 0.01,-0.02 0.01,-0.04 0,-0.1 0.01,-0.2 0.01,-0.29 0,-0.04 0,-0.08 0,-0.13l-0.02 -0.01c-0.02,0 -0.03,-0.01 -0.05,-0.02 -0.12,-0.03 -0.29,0 -0.41,0.03 -0.07,0.02 -0.13,0.03 -0.2,0.05 -0.07,0.01 -0.13,0.03 -0.2,0.05 -0.16,0.04 -0.15,0.44 -0.03,0.43z"/>
  <path class="fil5" d="M1.74 1.34c0.02,0 0.08,0.04 0.1,0.05 0.11,0.05 0.2,0.09 0.32,0.13 0.01,0.01 0.02,0.01 0.04,0.02l0.14 0.04c0.03,0.01 0.07,0.04 0.09,0.03 0.01,-0.01 0.02,-0.06 0.03,-0.09 0.05,-0.11 0.06,-0.07 -0.02,-0.1l-0.14 -0.08c-0.12,-0.01 -0.14,-0.07 -0.22,-0.13 -0.07,-0.06 -0.1,-0.04 -0.2,-0.16 -0.02,-0.03 -0.04,-0.04 -0.06,-0.06 -0.03,-0.04 -0.03,-0.07 -0.04,-0.08 -0.04,-0.04 -0.1,-0.17 -0.22,-0.21 -0.11,-0.03 -0.25,0.01 -0.23,0.18 0,0.04 0.05,0.11 0.07,0.14 0.01,0.03 0.03,0.04 0.05,0.07 0.01,0.01 0.03,0.03 0.05,0.06 0.02,0.03 0.16,0.15 0.2,0.17l0.04 0.02z"/>
  <path class="fil1" d="M8.87 1.5l0.02 0.04c0.01,0.01 0.02,0.03 0.04,0.04 0.02,0.02 0.03,0.04 0.06,0.08 0.1,0.18 0.14,0.46 0.18,0.66 0.07,0.27 0.13,0.39 0.26,0.6 0.01,0.03 0.05,0.07 0.03,0.11 -0.01,0.02 -0.05,0.05 -0.08,0.05 0,0.04 0.06,0.12 0.08,0.14 0.05,0.08 0.12,0.2 0.17,0.26 0.03,0.04 0.08,0.07 0.09,0.12 0.02,0.01 0,0.03 0.02,0.05 0,0.01 0.01,0 0.02,0.03 0,0.01 0,0.01 0,0.02 0.01,0.02 0.02,0.03 0.02,0.05 0,0.03 0,0.05 0.01,0.07 0.03,-0.01 0.04,-0.04 0.05,-0.06 0,-0.01 0.01,-0.01 0.01,-0.02l0.02 -0.06c0.01,-0.06 0.01,-0.01 0.02,-0.06 -0.03,-0.01 -0.05,-0.03 -0.08,-0.05 -0.03,-0.03 -0.02,-0.02 -0.04,-0.04 -0.05,-0.06 -0.03,-0.03 -0.07,-0.1l-0.04 -0.08c-0.01,-0.02 -0.01,-0.05 -0.03,-0.07l0 0c-0.02,-0.03 0,-0.01 -0.03,-0.05 -0.01,-0.01 -0.04,-0.03 -0.05,-0.04 -0.03,-0.05 -0.05,-0.05 -0.03,-0.07 0,0 0.01,-0.01 0.01,-0.01 0.01,-0.01 0.02,-0.01 0.03,-0.01 0.02,-0.01 0.04,-0.02 0.06,-0.03 0,-0.03 -0.02,-0.04 -0.03,-0.06 -0.02,-0.02 -0.03,-0.03 -0.05,-0.05l-0.12 -0.25c-0.02,-0.04 -0.03,-0.1 -0.05,-0.14 0,-0.02 -0.03,-0.1 -0.04,-0.12 -0.01,-0.05 -0.02,-0.09 -0.03,-0.13 -0.03,-0.1 -0.11,-0.47 -0.13,-0.51 -0.01,-0.04 -0.02,-0.07 -0.04,-0.11l-0.07 -0.1c-0.01,-0.01 -0.04,-0.04 -0.05,-0.06 -0.02,-0.03 -0.03,-0.07 -0.03,-0.1 0,-0.04 0.02,-0.12 0.03,-0.16 0.01,-0.02 0.02,-0.02 0.01,-0.04 -0.1,0 -0.07,-0.03 -0.12,-0.03 -0.02,0.03 -0.03,0.1 -0.03,0.13 -0.01,0.06 -0.01,0.1 0,0.16z"/>
  <path class="fil1" d="M1.26 0.63l-0.03 0.02c-0.1,0.06 -0.15,0.2 -0.19,0.31 -0.05,0.14 -0.1,0.44 -0.12,0.62 -0.01,0.06 -0.03,0.11 -0.04,0.17 0.03,-0.02 0.05,-0.05 0.08,-0.07 0.03,-0.02 0.08,-0.04 0.09,-0.06 0.07,-0.05 0.07,-0.17 0.09,-0.27 0.02,-0.1 0.04,-0.2 0.05,-0.3 0.02,-0.12 0.06,-0.29 0.16,-0.36 0.03,-0.03 0.09,-0.06 0.11,-0.07 0.01,-0.03 0.02,-0.02 0.03,-0.05 0.01,-0.02 0.02,-0.03 0.02,-0.06 0.01,-0.04 0.01,-0.09 0.01,-0.15 0,-0.06 -0.04,-0.13 -0.02,-0.2 0.01,-0.06 0.05,-0.11 0.1,-0.13 0,-0.01 0,-0.01 -0.02,-0.01 -0.1,-0.01 -0.28,0.05 -0.24,0.23 0.01,0.07 0.02,0.15 0.01,0.23 -0.01,0.05 -0.03,0.14 -0.09,0.15z"/>
  <path class="fil4" d="M0.8 3.13l0 0c-0.04,0.03 -0.1,0.05 -0.14,0.06 -0.05,0.01 -0.11,0.03 -0.16,0.04 -0.03,0.01 -0.38,0.09 -0.43,0.12 -0.08,0.05 -0.08,0.35 -0.02,0.38 0.03,0.01 0.09,-0.01 0.11,-0.01 0.07,-0.02 0.15,-0.03 0.22,-0.06 0.03,0 0.05,-0.01 0.08,-0.01 0.03,-0.01 0.06,-0.01 0.09,-0.01 0.01,-0.01 0.01,-0.01 0.01,-0.02l0.03 -0.04c0.01,-0.02 0.02,-0.03 0.02,-0.04 0.01,-0.01 0,-0.01 0.01,-0.02 0.01,-0.02 0,0.01 0.03,-0.04 0,-0.01 0.01,-0.02 0.02,-0.03l0.12 -0.23c0.01,-0.03 0.03,-0.06 0.05,-0.1l-0.04 0.01z"/>
  <path class="fil3" d="M0.56 2.43l0 0c0,0 0.03,0.33 0.06,0.4 0.07,0.16 0.11,0.17 0.15,0.26 0.01,0.02 0.02,0.02 0.03,0.04l0 0c0.02,-0.02 0.03,0 0.05,-0.03 0.01,-0.02 0.02,-0.04 0.03,-0.06 0.01,-0.02 0.02,-0.04 0.03,-0.06 0.01,-0.01 0.02,-0.03 0.02,-0.05 0.04,-0.11 0.04,-0.16 0.05,-0.28 -0.02,-0.05 -0.02,-0.04 -0.03,-0.1 0,-0.02 -0.01,-0.12 0,-0.12 -0.01,-0.01 -0.06,-0.03 -0.08,-0.03 -0.03,-0.01 -0.07,-0.01 -0.1,-0.01 -0.1,-0.01 -0.14,0.01 -0.21,0.02l0 0.02z"/>
  <path class="fil6" d="M8.6 0.8l-0.01 0.01c-0.02,0.02 -0.01,0.01 -0.03,0.04 -0.03,0.04 -0.06,0.09 -0.09,0.15 -0.02,0.03 -0.04,0.07 -0.06,0.1 -0.01,0.02 -0.06,0.07 -0.07,0.09 -0.05,0.05 -0.16,0.14 -0.22,0.15 -0.01,0.01 -0.01,0 -0.02,0.01 -0.04,0.03 -0.08,0.04 -0.12,0.05 -0.03,0 -0.03,0.02 -0.06,0.02 -0.01,0 -0.1,0.04 -0.11,0.06 0,0.01 0.03,0.08 0.04,0.09 0.04,0 0.12,-0.03 0.17,-0.03l0.16 -0.05c0.06,-0.01 0.11,-0.02 0.16,-0.04 0.07,-0.02 0.13,-0.07 0.18,-0.12 0.02,-0.02 0.03,-0.03 0.05,-0.05 0.06,-0.09 0.1,-0.15 0.14,-0.26 0.01,-0.05 0.03,-0.12 0.02,-0.17 -0.02,-0.06 -0.07,-0.08 -0.13,-0.05z"/>
  <path class="fil3" d="M1.6 1.66c0,0.07 0,0.11 0.01,0.17 0.01,0.04 0.02,0.11 0.02,0.15 0.03,0.01 0.02,0 0.04,0.01l0.39 0.13c0.02,0 0.03,0.02 0.05,0.02 0,-0.04 -0.04,-0.09 -0.04,-0.23 0,-0.13 0.02,-0.13 0.03,-0.23l-0.2 -0.07c-0.09,0.01 -0.21,-0.04 -0.27,-0.07 0,0.02 -0.01,0.04 -0.02,0.06 -0.01,0.01 -0.02,0.03 -0.02,0.04l0.01 0.02z"/>
  <path class="fil6" d="M1.52 0.36c0,0.06 0,0.11 -0.01,0.15 0,0.03 -0.01,0.04 -0.02,0.06 -0.01,0.03 -0.02,0.02 -0.03,0.05 0.02,-0.01 0.14,0.01 0.18,0.02l0.02 0.01c0,-0.04 0.01,-0.08 0.02,-0.1 0.12,-0.01 0.2,0.04 0.25,-0.07 0.03,-0.1 0,-0.19 -0.02,-0.28 -0.02,-0.04 -0.05,-0.13 -0.1,-0.14 -0.05,0 -0.11,0.03 -0.16,0.04 0,0.01 0.04,0.12 0.02,0.15 -0.05,0.05 -0.06,-0.02 -0.1,0 -0.04,0.02 0,0.08 -0.05,0.11z"/>
  <path class="fil1" d="M8.64 0.2c0.01,0.01 0.03,0.01 0.04,0.03 0.11,0.08 0.15,0.19 0.24,0.31 0.06,0.06 0.11,0.09 0.2,0.11 0.04,0.01 0.09,0.02 0.12,0.04 0.02,0.01 0.03,0.02 0.05,0.03 0.01,0.01 0.04,0.02 0.03,0.03 0.02,0.01 0.02,0.01 0.04,0.04 0.01,0.01 0.02,0.02 0.02,0.03 0.01,0.02 -0.01,-0.02 -0.01,0.02 0.03,0.01 0.01,-0.02 0.02,0.01 0.01,0 0.01,0.02 0.01,0.03 0.02,0.08 -0.01,0.15 -0.05,0.21 -0.04,0.07 -0.11,0.15 -0.22,0.16 -0.01,0.01 -0.04,0 -0.07,0 0.03,0.04 0.15,0.06 0.21,0.06 0.07,-0.01 0.13,-0.06 0.17,-0.1 0.06,-0.07 0.12,-0.17 0.11,-0.27 -0.01,-0.03 -0.01,-0.04 -0.01,-0.06 -0.01,-0.02 -0.02,-0.03 -0.02,-0.05 -0.02,-0.02 -0.03,-0.04 -0.06,-0.06 -0.11,-0.09 -0.16,-0.07 -0.24,-0.11 -0.03,-0.01 -0.06,-0.02 -0.09,-0.03 -0.06,-0.03 -0.15,-0.14 -0.17,-0.19 0,0 0,0 0,-0.01l-0.09 -0.12c-0.03,-0.04 -0.06,-0.08 -0.11,-0.1 -0.03,-0.02 -0.09,-0.04 -0.12,-0.01z"/>
  <path class="fil1" d="M8.53 3.15c-0.03,0.05 -0.04,0.1 -0.05,0.16 -0.02,0.12 -0.07,0.21 -0.09,0.31 -0.02,0.08 0,0.09 -0.04,0.16 -0.01,0.03 -0.06,0.07 -0.07,0.09 0.13,0.01 0.14,-0.03 0.23,-0.04 0.02,-0.03 0.01,-0.05 0.01,-0.08 0,-0.09 0.03,-0.13 0.03,-0.17 0.02,-0.06 0.03,-0.06 0.05,-0.15 0.01,-0.02 0.02,-0.04 0.03,-0.07 0,-0.03 0.01,-0.06 0.01,-0.09 0.02,-0.05 0,-0.07 0.02,-0.08l0.01 -0.01 0.48 -0.01c0.02,0 0.02,0.01 0.01,-0.01 -0.01,-0.02 -0.02,-0.02 -0.04,-0.02 -0.07,-0.02 -0.33,0 -0.45,0 -0.06,0 -0.12,0.01 -0.14,0.01z"/>
  <path class="fil5" d="M9.12 3.14c0.02,0 0.03,0 0.04,0.02 0.03,0.01 0.16,0.12 0.2,0.15 0.01,0.01 0.05,0.04 0.05,0.05 0.07,0.05 0.16,0.18 0.2,0.26 0.01,0.04 0.02,0.09 0.06,0.1 0.03,-0.01 0.05,-0.07 0.05,-0.12 -0.01,-0.05 -0.06,-0.08 -0.09,-0.12 -0.05,-0.06 -0.12,-0.18 -0.17,-0.26 -0.02,-0.02 -0.08,-0.1 -0.08,-0.14 -0.02,0.01 -0.01,0.01 -0.03,0.02l-0.23 0.04z"/>
  <path class="fil5" d="M8.34 3.37c-0.01,0.12 -0.04,0.25 -0.09,0.34 -0.01,0.03 -0.05,0.07 -0.03,0.1 0.03,0.03 0.1,-0.01 0.13,-0.03 0.04,-0.07 0.02,-0.08 0.04,-0.16 0.02,-0.1 0.07,-0.19 0.09,-0.31 0.01,-0.06 0.02,-0.11 0.05,-0.16 -0.07,0.01 -0.12,0 -0.19,0 0,-0.02 0,-0.03 -0.01,-0.04 0,0.05 0.01,0.08 0.01,0.13 0,0.04 0.01,0.1 0,0.13z"/>
  <path class="fil0" d="M8.4 0.61c0,0 0.13,0.02 0.14,0.03 0.02,0.01 0.04,0.03 0.05,0.05 0.01,0.03 0.01,0.04 0.01,0.07 0.01,0 0.05,-0.01 0.06,-0.02 0.02,-0.19 -0.05,-0.17 -0.1,-0.22 -0.07,-0.06 -0.06,-0.2 -0.14,-0.3 -0.03,0.01 -0.01,0 -0.02,0.02 -0.04,0.04 -0.06,0.1 -0.06,0.17 0,0.06 0,0.11 0.03,0.16 0.01,0.02 0.02,0.02 0.03,0.04z"/>
  <path class="fil2 str0" d="M1.6 0.03c-0.05,0.02 -0.09,0.07 -0.1,0.13 -0.02,0.07 0.02,0.14 0.02,0.2 0.05,-0.03 0.01,-0.09 0.05,-0.11 0.04,-0.02 0.05,0.05 0.1,0 0.02,-0.03 -0.02,-0.14 -0.02,-0.15 0.05,-0.01 0.11,-0.04 0.16,-0.04 0,-0.03 -0.07,-0.05 -0.09,-0.05 -0.03,-0.01 -0.04,0 -0.07,0 -0.02,0 -0.03,0.02 -0.05,0.02z"/>
  <path class="fil1" d="M8.16 1.58c0.01,0.02 0.02,0.05 0.03,0.06 0.02,0.02 0.05,0 0.06,-0.01l0.23 -0.13c0.03,-0.01 0.04,-0.02 0.06,-0.03 0.02,-0.01 0.04,-0.03 0.06,-0.03 0,-0.02 -0.01,-0.07 -0.02,-0.08 -0.04,0 -0.17,0.09 -0.2,0.11 -0.07,0.04 -0.14,0.08 -0.22,0.11z"/>
  <path class="fil6" d="M2.6 1.67l0.02 -0.01c0.01,-0.01 0,0 0.02,-0.01l0.06 -0.04c0.01,-0.01 0.04,-0.04 0.05,-0.06 0,0 0,0 0,0l-0.02 -0.01c-0.03,-0.02 -0.09,-0.02 -0.11,-0.04 0.01,-0.01 0.05,-0.02 0.07,-0.04 0,-0.01 -0.01,-0.02 -0.02,-0.02 -0.01,0 -0.05,0.01 -0.07,0.02 -0.03,0 -0.05,0 -0.07,0.03 -0.02,0.02 -0.05,0.09 -0.06,0.12 0.02,0.01 0.04,0.02 0.07,0.03 0.01,0.01 0.02,0.01 0.03,0.01 0.01,0.01 0.01,0.01 0.02,0.01l0.01 0.01c0,0 0,0 0,0z"/>
  <path class="fil7" d="M1.63 1.54c0.06,0.03 0.18,0.08 0.27,0.07 0,-0.02 -0.02,-0.03 -0.04,-0.05l-0.08 -0.08c-0.01,-0.01 -0.02,-0.01 -0.03,-0.02 -0.02,-0.02 -0.04,-0.05 -0.07,-0.04 0,0.01 -0.02,0.03 -0.03,0.05 -0.02,0.03 -0.02,0.03 -0.02,0.07z"/>
  <path class="fil8" d="M7.63 1.61c0,0.02 0.01,0.03 0.02,0.05 0.01,0.01 0.04,0.01 0.06,0.01 0.02,0 0.04,-0.01 0.05,-0.02 0.04,-0.02 0.08,-0.04 0.06,-0.09 -0.02,-0.04 -0.04,-0.06 -0.1,-0.05 -0.02,0 -0.09,0.02 -0.11,0.03 0.02,0.02 0.04,0.02 0.07,0.02 -0.01,0 -0.04,0.04 -0.05,0.05z"/>
  <path class="fil9" d="M5.4 1.86c0.28,0 0.5,-0.23 0.5,-0.5 0,-0.28 -0.22,-0.5 -0.5,-0.5 -0.27,0 -0.5,0.22 -0.5,0.5 0,0.27 0.23,0.5 0.5,0.5z"/>
  <g id="_2206901102432">
   <path id="Path_7392" class="fil10" d="M5.53 1.62c0,0 0,0 0,0 -0.01,0 -0.02,0 -0.02,-0.01l-0.22 -0.21c-0.01,-0.01 -0.01,-0.02 -0.01,-0.03 0,-0.02 0.01,-0.03 0.03,-0.03 0.01,0 0.02,0 0.03,0.01l0.2 0.19c0.06,-0.05 0.1,-0.12 0.1,-0.18 0,-0.08 -0.05,-0.15 -0.13,-0.21 -0.01,0 -0.01,-0.01 -0.01,-0.03 0,-0.02 0.01,-0.03 0.03,-0.03 0.01,0 0.02,0 0.02,0.01 0.1,0.07 0.16,0.16 0.16,0.26 0,0.09 -0.06,0.19 -0.16,0.26 0,0 -0.01,0 -0.02,0 0,0 0,0 0,0m0 0l0 0 0 0z" data-name="Path 7392"/>
   <path id="Path_7393" class="fil11" d="M5.27 1.62c0,0 0,0 0,0 0,0 -0.01,0 -0.02,0 -0.1,-0.07 -0.15,-0.17 -0.15,-0.26 0,-0.1 0.05,-0.19 0.15,-0.26 0.01,-0.01 0.02,-0.01 0.02,-0.01 0.01,0 0.02,0 0.03,0.01l0.22 0.22c0,0 0.01,0.01 0.01,0.02 0,0.02 -0.02,0.04 -0.04,0.04 -0.01,0 -0.01,-0.01 -0.02,-0.01l-0.2 -0.2c-0.06,0.05 -0.1,0.12 -0.1,0.19 0,0.07 0.04,0.14 0.12,0.2 0.01,0.01 0.02,0.02 0.02,0.03 0,0.02 -0.02,0.03 -0.04,0.03 0,0 0,0 0,0m0 0l0 0 0 0z" data-name="Path 7393"/>
  </g>
 </g>
</svg>
