<?xml version="1.0" encoding="UTF-8"?>
<!DOCTYPE svg PUBLIC "-//W3C//DTD SVG 1.1//EN" "http://www.w3.org/Graphics/SVG/1.1/DTD/svg11.dtd">
<!-- Creator: CorelDRAW 2021 (64-Bit) -->
<svg xmlns="http://www.w3.org/2000/svg" xml:space="preserve" width="105.282mm" height="105.282mm" version="1.1" style="shape-rendering:geometricPrecision; text-rendering:geometricPrecision; image-rendering:optimizeQuality; fill-rule:evenodd; clip-rule:evenodd"
viewBox="0 0 226.45 226.45"
 xmlns:xlink="http://www.w3.org/1999/xlink"
 xmlns:xodm="http://www.corel.com/coreldraw/odm/2003">
 <defs>
  <style type="text/css">
   <![CDATA[
    .str0 {stroke:#2B2A29;stroke-width:0.57;stroke-miterlimit:22.9256;stroke-opacity:0.200000}
    .fil4 {fill:none;fill-rule:nonzero}
    .fil5 {fill:#FEFEFE;fill-rule:nonzero}
    .fil1 {fill:white;fill-rule:nonzero}
    .fil3 {fill:#78EF0B;fill-rule:nonzero;fill-opacity:0.101961}
    .fil2 {fill:url(#id0);fill-rule:nonzero}
    .fil0 {fill:url(#id1);fill-rule:nonzero;fill-opacity:0.101961}
   ]]>
  </style>
  <linearGradient id="id0" gradientUnits="userSpaceOnUse" x1="99.36" y1="86.97" x2="152.43" y2="163.36">
   <stop offset="0" style="stop-opacity:1; stop-color:#EFFE25"/>
   <stop offset="1" style="stop-opacity:1; stop-color:#75EF0A"/>
  </linearGradient>
  <linearGradient id="id1" gradientUnits="userSpaceOnUse" x1="28.86" y1="48.19" x2="206.33" y2="163.29">
   <stop offset="0" style="stop-opacity:1; stop-color:#77EF0A"/>
   <stop offset="1" style="stop-opacity:1; stop-color:#EFFE25"/>
  </linearGradient>
 </defs>
 <g id="Layer_x0020_1">
  <metadata id="CorelCorpID_0Corel-Layer"/>
  <path class="fil0" d="M113.23 226.45c62.53,0 113.23,-50.69 113.23,-113.23 0,-62.53 -50.69,-113.23 -113.23,-113.23 -62.53,0 -113.23,50.69 -113.23,113.23 0,62.53 50.69,113.23 113.23,113.23z"/>
  <path class="fil1" d="M181.16 226.45l-135.87 0 0 -146.44c6.4,-0.01 12.54,-2.55 17.07,-7.08 4.53,-4.53 7.08,-10.67 7.08,-17.07l87.56 0c-0.01,3.17 0.62,6.32 1.83,9.25 1.22,2.93 3,5.59 5.25,7.83 2.24,2.25 4.9,4.04 7.83,5.25 2.93,1.22 6.07,1.84 9.25,1.83l0 146.44z"/>
  <path class="fil2" d="M113.23 146.7c20.01,0 36.23,-16.22 36.23,-36.23 0,-20.01 -16.22,-36.23 -36.23,-36.23 -20.01,0 -36.23,16.22 -36.23,36.23 0,20.01 16.22,36.23 36.23,36.23z"/>
  <g id="_2206835380832">
   <g>
    <path class="fil3" d="M146.57 158.25l-66.43 0c-2.5,0 -4.53,2.03 -4.53,4.53 0,2.5 2.03,4.53 4.53,4.53l66.43 0c2.5,0 4.53,-2.03 4.53,-4.53 0,-2.5 -2.03,-4.53 -4.53,-4.53z"/>
    <path class="fil4 str0" d="M80.14 159.82l66.43 0c1.63,0 2.96,1.32 2.96,2.96 0,1.63 -1.32,2.96 -2.96,2.96l-66.43 0c-1.63,0 -2.96,-1.32 -2.96,-2.96 0,-1.63 1.32,-2.96 2.96,-2.96z"/>
   </g>
   <g>
    <path class="fil3" d="M146.57 174.13l-66.43 0c-2.5,0 -4.53,2.03 -4.53,4.53 0,2.5 2.03,4.53 4.53,4.53l66.43 0c2.5,0 4.53,-2.03 4.53,-4.53 0,-2.5 -2.03,-4.53 -4.53,-4.53z"/>
    <path class="fil4 str0" d="M80.14 175.71l66.43 0c1.63,0 2.96,1.32 2.96,2.96 0,1.63 -1.32,2.96 -2.96,2.96l-66.43 0c-1.63,0 -2.96,-1.32 -2.96,-2.96 0,-1.63 1.32,-2.96 2.96,-2.96z"/>
   </g>
   <g>
    <path class="fil3" d="M146.31 189.6l-66.43 0c-2.5,0 -4.53,2.03 -4.53,4.53 0,2.5 2.03,4.53 4.53,4.53l66.43 0c2.5,0 4.53,-2.03 4.53,-4.53 0,-2.5 -2.03,-4.53 -4.53,-4.53z"/>
    <path class="fil4 str0" d="M79.89 191.17l66.43 0c1.63,0 2.96,1.32 2.96,2.96 0,1.63 -1.32,2.96 -2.96,2.96l-66.43 0c-1.63,0 -2.96,-1.32 -2.96,-2.96 0,-1.63 1.32,-2.96 2.96,-2.96z"/>
   </g>
  </g>
  <g id="_2206835388848">
   <g>
    <path id="Path_7392" class="fil5" d="M122.56 129.82c-0,-0 -0,-0 -0,-0 -0.68,0 -1.32,-0.27 -1.8,-0.74l-15.84 -15.78c-0.48,-0.48 -0.75,-1.13 -0.75,-1.81 0,-1.41 1.14,-2.56 2.55,-2.56 0.68,0 1.32,0.27 1.8,0.75l14.26 14.21c4.71,-3.87 7.28,-8.57 7.28,-13.42 0,-5.4 -3.19,-10.62 -8.98,-14.71 -0.67,-0.48 -1.07,-1.25 -1.07,-2.08 0,-1.41 1.14,-2.56 2.56,-2.56 0.52,0 1.03,0.16 1.46,0.46 7.19,5.07 11.14,11.78 11.14,18.88 0,7.1 -3.96,13.81 -11.14,18.88 -0.43,0.3 -0.94,0.47 -1.47,0.47 -0,0 -0,0 -0,0l0 0zm0 0l0 0 0 0z" data-name="Path 7392"/>
   </g>
   <g>
    <path id="Path_7393" class="fil5" d="M103.89 129.82c-0,-0 -0,-0 -0,-0 -0.53,0 -1.04,-0.16 -1.47,-0.47 -7.19,-5.07 -11.14,-11.78 -11.14,-18.88 0,-7.1 3.96,-13.81 11.14,-18.88 0.43,-0.3 0.95,-0.47 1.47,-0.47 0.68,0 1.32,0.27 1.8,0.74l15.84 15.78c0.46,0.48 0.72,1.11 0.72,1.78 0,1.41 -1.14,2.56 -2.56,2.56 -0.66,0 -1.3,-0.26 -1.77,-0.71l-14.26 -14.21c-4.71,3.87 -7.28,8.57 -7.28,13.42 0,5.4 3.19,10.62 8.98,14.71 0.68,0.48 1.08,1.26 1.08,2.09 0,1.41 -1.14,2.56 -2.55,2.56 -0,0 -0,0 -0,0l0 0zm0 0l0 0 0 0z" data-name="Path 7393"/>
   </g>
  </g>
 </g>
</svg>
