<?xml version="1.0" encoding="UTF-8"?>
<!DOCTYPE svg PUBLIC "-//W3C//DTD SVG 1.1//EN" "http://www.w3.org/Graphics/SVG/1.1/DTD/svg11.dtd">
<!-- Creator: CorelDRAW 2021 (64-Bit) -->
<svg xmlns="http://www.w3.org/2000/svg" xml:space="preserve" width="654px" height="256px" version="1.1" style="shape-rendering:geometricPrecision; text-rendering:geometricPrecision; image-rendering:optimizeQuality; fill-rule:evenodd; clip-rule:evenodd"
viewBox="0 0 6.68 2.61"
 xmlns:xlink="http://www.w3.org/1999/xlink"
 xmlns:xodm="http://www.corel.com/coreldraw/odm/2003">
 <defs>
  <style type="text/css">
   <![CDATA[
    .str0 {stroke:#2B2A29;stroke-width:0.01;stroke-linecap:round;stroke-linejoin:round;stroke-miterlimit:22.9256}
    .fil6 {fill:#C5C6C6}
    .fil3 {fill:#B2B3B3}
    .fil0 {fill:#9D9E9E}
    .fil4 {fill:#898989}
    .fil5 {fill:#727271}
    .fil7 {fill:#5B5B5B}
    .fil1 {fill:#434242}
    .fil2 {fill:#2B2A29}
    .fil9 {fill:#DB739A}
    .fil8 {fill:#E7E0E1}
    .fil10 {fill:#434242;fill-rule:nonzero}
    .fil11 {fill:url(#id0);fill-rule:nonzero}
    .fil12 {fill:url(#id1);fill-rule:nonzero}
   ]]>
  </style>
  <linearGradient id="id0" gradientUnits="userSpaceOnUse" x1="3.49" y1="0.81" x2="3.81" y2="1.08">
   <stop offset="0" style="stop-opacity:1; stop-color:#EFFE25"/>
   <stop offset="1" style="stop-opacity:1; stop-color:#75EF0A"/>
  </linearGradient>
  <linearGradient id="id1" gradientUnits="userSpaceOnUse" xlink:href="#id0" x1="3.49" y1="0.81" x2="3.81" y2="1.08">
  </linearGradient>
 </defs>
 <g id="Layer_x0020_1">
  <metadata id="CorelCorpID_0Corel-Layer"/>
  <path class="fil0" d="M4.55 0.39c0.01,0.01 0.01,0.04 0.06,0.04 0.03,0 0.11,-0.02 0.18,0.01 0.02,0 0.05,0.02 0.06,0.03 0.02,0.01 0.05,0.02 0.05,0.04 0.01,0 0.04,0.03 0.04,0.04l0.02 0.02c0.02,0.03 0.07,0.17 0.08,0.21l0.03 0.07 0.02 0.07c0.01,0.03 0.02,0.05 0.03,0.08 0,0.02 0.02,0.08 0.03,0.08 0,0 0.03,-0.03 0.03,-0.03 -0.02,0 -0.03,0 -0.04,-0.01 0.01,-0.01 0.06,-0.02 0.07,-0.03 0.04,0 0.06,0.01 0.07,0.04 0.01,0.04 -0.02,0.04 -0.04,0.06 -0.01,0.01 -0.02,0.02 -0.04,0.02 -0.01,0 -0.03,-0.01 -0.04,-0.01 0,0.02 0.03,0.07 0.03,0.09 0.01,0.03 0.02,0.07 0.04,0.1 0.01,0.03 0.02,0.07 0.02,0.11 0,0.03 0,0.05 0,0.09 -0.01,0.01 -0.01,0.02 -0.01,0.02 0,0.03 -0.04,0.09 -0.06,0.11 -0.02,0.03 -0.05,0.06 -0.09,0.08 -0.08,0.04 -0.17,0.07 -0.27,0.06 -0.13,-0.03 -0.22,-0.13 -0.25,-0.24 -0.01,-0.02 -0.02,-0.05 -0.03,-0.07 0,-0.02 -0.02,-0.05 -0.02,-0.06 -0.01,-0.01 0,-0.01 -0.01,-0.02l-0.08 -0.24c-0.01,-0.01 -0.01,-0.03 -0.02,-0.05 -0.01,-0.03 -0.03,-0.08 -0.03,-0.1 -0.01,-0.01 -0.02,-0.05 -0.03,-0.07 -0.01,-0.02 -0.01,-0.04 -0.02,-0.06 -0.01,-0.03 -0.02,-0.12 -0.01,-0.15 0,-0.04 0.02,-0.1 0.03,-0.12 0.06,-0.09 0.08,-0.08 0.11,-0.12 0.03,-0.04 -0.04,-0.15 -0.04,-0.16l-0.02 -0.02c-0.02,-0.02 -0.04,-0.02 -0.06,-0.02 -0.03,0.01 -0.05,0.04 -0.08,0.04l-0.01 0.01c0,0.01 -0.01,0.01 -0.01,0.01 -0.01,0.01 -0.01,0.02 -0.02,0.03 -0.06,0.05 -0.09,0.08 -0.13,0.15 -0.05,0.11 -0.06,0.19 -0.05,0.31 0,0.02 0.01,0.04 0.01,0.06l0.06 0.17 0.04 0.13c0.01,0.03 0.05,0.12 0.05,0.14 0.01,0.02 0.02,0.05 0.03,0.07l0.1 0.28c0.01,0.03 0.04,0.09 0.06,0.12 0.01,0.02 0.04,0.05 0.04,0.06 0.01,0 0.01,0.01 0.02,0.01 0.03,0.03 0.1,0.09 0.14,0.11 0.14,0.07 0.32,0.06 0.46,0.01 0.03,-0.01 0.07,-0.02 0.1,-0.04 0.03,-0.01 0.08,-0.03 0.1,-0.04 0.01,-0.02 0.03,-0.01 0.06,-0.04 0.02,-0.02 0.03,-0.01 0.07,-0.05 0.05,-0.06 0.05,-0.06 0.08,-0.14 0.01,-0.01 0.02,-0.04 0.02,-0.06l0.01 -0.05c0.01,-0.03 0.01,-0.04 0.01,-0.06 0.01,-0.12 0,-0.2 -0.03,-0.31 -0.01,-0.02 -0.02,-0.09 -0.03,-0.1l-0.02 -0.07c-0.04,0.01 -0.09,0.03 -0.12,0.03 -0.01,-0.01 -0.03,-0.06 -0.03,-0.07 0.01,0 0.07,-0.03 0.08,-0.03 0.01,-0.02 0.01,-0.01 0.02,-0.02 -0.02,-0.05 -0.04,-0.1 -0.06,-0.15 -0.01,-0.03 -0.02,-0.06 -0.03,-0.08 -0.03,-0.09 -0.06,-0.22 -0.12,-0.3 -0.01,-0.01 -0.04,-0.05 -0.04,-0.05 -0.02,-0.01 -0.03,-0.03 -0.04,-0.04 -0.01,-0.01 -0.02,-0.02 -0.03,-0.03 -0.05,-0.04 -0.12,-0.07 -0.17,-0.09 -0.08,-0.03 -0.17,-0.03 -0.24,-0.02 -0.09,0.01 -0.16,0.02 -0.13,0.12 0.01,0.01 0.01,0.03 0.02,0.05 0,0.01 0.02,0.03 0.02,0.04z"/>
  <path class="fil1" d="M1.92 0.68c-0.01,0 -0.02,0.01 -0.02,0.01l-0.17 0.1c-0.06,0.03 -0.07,0.04 -0.13,0.09 -0.03,0.02 -0.03,0.01 -0.04,0.02l-0.01 0 0.1 0.06c0.05,0.02 0.04,-0.01 0.01,0.06 -0.01,0.02 -0.01,0.05 -0.02,0.07 -0.02,0 -0.04,-0.02 -0.06,-0.02l-0.1 -0.03c-0.01,-0.01 -0.02,-0.01 -0.03,-0.01 -0.08,-0.03 -0.14,-0.06 -0.21,-0.1 -0.02,0 -0.06,-0.03 -0.07,-0.03 -0.02,0 -0.01,0.02 -0.03,0.05 0,0 0,0 0,0l-0.01 0c0.02,0 0.03,0.02 0.05,0.03 0,0.01 0.01,0.01 0.02,0.02l0.05 0.05c0.02,0.02 0.03,0.02 0.03,0.04l0.14 0.04c-0.02,0.07 -0.02,0.07 -0.02,0.16 0,0.09 0.02,0.12 0.02,0.15 0.01,0.02 0.01,0.02 0.04,0.06 0.02,0.06 0.07,0.14 0.1,0.19 0.03,0.04 0.06,0.08 0.09,0.11 0.08,0.07 0.08,0.06 0.11,0.08 0.05,0.02 0.07,0.04 0.12,0.05 0.03,0.01 0.05,0.02 0.07,0.02 0.02,0 0.07,0 0.08,0.01 0,-0.01 -0.06,-0.03 -0.07,-0.07 -0.01,-0.07 0.02,-0.15 -0.05,-0.23 -0.01,-0.01 0,0 -0.01,-0.02 0,0 -0.01,-0.01 -0.02,-0.01 -0.07,-0.07 -0.09,-0.06 -0.1,-0.07 -0.02,-0.01 -0.02,-0.03 -0.04,-0.06 -0.06,-0.09 -0.08,-0.15 -0.04,-0.27 0.01,0.01 0.02,0.01 0.03,0.02 0,-0.01 0,-0.01 -0.01,-0.01 -0.01,0 -0.01,-0.01 -0.02,-0.01 0,-0.03 0.02,-0.07 0.04,-0.09 0,-0.01 0.01,-0.01 0.01,-0.02 0,0 0,0 0,0l-0.01 0c0,0 0,-0.01 -0.01,-0.01 -0.01,0 -0.01,0 -0.02,-0.01 -0.02,0 -0.03,-0.01 -0.05,-0.02 0.01,-0.02 0.03,-0.06 0.05,-0.08 0.01,-0.01 0.02,-0.01 0.04,-0.02 0.02,0 0.04,-0.01 0.05,-0.01 0.01,0 0.01,0 0.01,0.01 -0.01,0.02 -0.04,0.02 -0.05,0.03 0.02,0.01 0.06,0.01 0.08,0.03 0.03,0 0.03,-0.01 0.04,-0.02 0.02,-0.01 0.03,-0.02 0.05,-0.03 0.02,-0.01 0.04,-0.02 0.06,-0.03 0.02,-0.02 0.04,-0.03 0.06,-0.04l0.05 -0.03c0.01,-0.01 0.08,-0.05 0.09,-0.05 0.01,-0.01 0.04,-0.03 0.05,-0.03 0.02,-0.02 0.11,-0.07 0.13,-0.08 0.01,-0.01 0.03,-0.02 0.04,-0.03 0.07,-0.03 0.12,-0.07 0.22,-0.07 0.1,0 0.15,0.03 0.21,0.07 0.03,0.03 0.05,0.04 0.1,0.02 0.03,-0.02 0.07,-0.05 0.09,-0.06 0,0 0,0 0.01,0 0,0 0,0 0,0 0.01,-0.01 0.01,-0.02 0.02,-0.03 0.01,-0.01 0.01,-0.03 0,-0.04 -0.02,-0.05 -0.13,-0.13 -0.18,-0.16 -0.1,-0.06 -0.23,-0.09 -0.37,-0.07 -0.13,0.03 -0.29,0.14 -0.41,0.21l-0.11 0.06c-0.02,0.02 -0.05,0.04 -0.07,0.05z"/>
  <path class="fil2 str0" d="M5.81 1.03l-0.12 0.47c0,0.01 -0.01,0.08 -0.02,0.11 -0.01,0.09 -0.02,0.19 -0.03,0.28 0,0.02 0,0.05 -0.01,0.06 0,0.01 0,0.01 0,0.02 0,0.01 0,-0.01 0,0 0,0.01 0,0 0,0.01 0,0.02 0,0.04 0,0.06l-0.01 0.04 0 0.02c0.01,0.01 0.01,0.01 0.01,0.02 0.05,0 0.08,0.01 0.13,0.01 0.01,0 0.05,-0.01 0.09,-0.01 0.08,0 0.26,-0.02 0.31,-0.01l0.15 -0.02c0.01,-0.01 0.01,0 0.02,-0.01 0.02,0 0.05,-0.03 0.05,-0.04 0.02,-0.02 -0.01,-0.05 -0.02,-0.07 -0.08,-0.14 -0.12,-0.23 -0.17,-0.4 -0.03,-0.14 -0.05,-0.33 -0.12,-0.45 -0.02,-0.03 -0.03,-0.04 -0.04,-0.06 -0.01,-0.01 -0.02,-0.02 -0.03,-0.02l-0.02 -0.03c-0.01,-0.01 0.01,-0.01 -0.01,-0.01l-0.07 0c-0.02,0 -0.02,0.01 -0.04,0.01 -0.01,0 -0.03,0 -0.04,0 0,0 0,0.01 0,0.01l-0.01 0.01z"/>
  <path class="fil2" d="M0.71 1.09c0,0.01 -0.01,0.04 -0.01,0.05 -0.01,0.02 -0.01,0.04 -0.02,0.06 0,0.04 -0.01,0.09 -0.01,0.13 0,0.01 0.01,0.01 -0.01,0l0.01 0.01c0,0.03 0,0.06 0,0.09 0,0.01 0,0.02 0,0.03l0 0.12c0,0.02 -0.01,0.03 -0.01,0.04 0,0.02 0.01,0.02 0,0.03 -0.01,0 -0.01,0 -0.02,-0.01 -0.01,0 -0.01,0.07 0,0.08 0,0.01 0,0.01 0,0.01 0,0.01 0,0.02 0,0.03 0,0 0,0.01 0.01,0.01 0,0.01 0.01,0.01 0.01,0.02 -0.01,0.08 -0.01,0.11 -0.04,0.19 0,0.01 -0.01,0.02 -0.01,0.03 -0.01,0.02 -0.02,0.03 -0.02,0.04 -0.01,0.01 -0.01,0.02 -0.02,0.04 -0.01,0.02 -0.02,0.01 -0.04,0.02l0.03 0c-0.01,0.02 -0.02,0.04 -0.03,0.06l-0.09 0.16c0,0 0,0.01 -0.01,0.02 -0.02,0.03 -0.01,0.01 -0.02,0.03 0,0 0,0 0,0.01 0,0 -0.01,0.01 -0.01,0.02l-0.02 0.03c-0.01,0.01 -0.01,0.01 -0.01,0.01 0.01,0.01 -0.01,0 0,0.01 0.01,0.02 0.02,0.01 0.03,0.02 0.05,0.03 0.06,0.1 0.13,0 0.03,-0.04 0.03,-0.06 0.08,-0.09 0.01,-0.01 0.03,-0.02 0.04,-0.02 0.01,-0.01 0.02,-0.01 0.03,-0.02 0,-0.01 0.01,-0.02 0.02,-0.03 0.01,-0.02 0.03,-0.05 0.04,-0.06l0.05 -0.09c0.03,-0.05 0.08,-0.17 0.09,-0.22l0.02 -0.1c0,-0.01 0,-0.02 0.01,-0.02 0.01,-0.09 0.02,-0.13 0.03,-0.22 0,-0.02 0,-0.02 0,-0.04l0.03 -0.22c0.01,-0.01 0.01,-0.01 0.01,-0.02l0.02 -0.11 0 -0.1c0,0 0.03,0 0.04,0 0.01,0 0.01,-0.01 0.02,-0.01l0.01 0.01 0 -0.01c0,-0.01 0.01,-0.02 0.01,-0.03 0.01,-0.02 0.01,-0.03 0.02,-0.05 0,-0.02 0,-0.02 0.01,-0.04 0.01,-0.01 0.02,-0.02 0.02,-0.04l0.01 0c0,0 0,0 0,0 0.02,-0.03 0.01,-0.05 0.03,-0.05l-0.02 -0.01c-0.03,-0.02 -0.13,-0.1 -0.14,-0.12 -0.02,-0.01 -0.03,-0.03 -0.04,-0.04 -0.01,-0.01 -0.02,-0.03 -0.03,-0.04 -0.01,-0.02 -0.04,-0.07 -0.05,-0.1 -0.01,-0.12 0.08,-0.14 0.16,-0.12 0.08,0.03 0.12,0.11 0.15,0.14 0,-0.02 -0.02,-0.04 -0.02,-0.06 0,0 0,0 0,0l-0.01 -0.01c-0.02,-0.05 -0.03,-0.05 -0.05,-0.08 -0.01,-0.02 0,-0.01 -0.02,-0.03 -0.02,-0.01 -0.1,-0.02 -0.12,-0.02 -0.01,0.01 -0.05,0.03 -0.07,0.05 -0.07,0.05 -0.1,0.16 -0.11,0.25 -0.01,0.06 -0.02,0.13 -0.03,0.2 -0.02,0.07 -0.02,0.15 -0.06,0.18z"/>
  <path class="fil1" d="M2.97 1.06c0.01,0.03 -0.03,0.1 -0.04,0.12 -0.03,0.03 -0.05,0.06 -0.08,0.08 -0.05,0.03 -0.25,0.15 -0.31,0.18l-0.18 0.11c-0.01,0 -0.01,0.01 -0.02,0.01 -0.06,0.04 -0.05,0.04 -0.12,0.05 0,0.01 0.01,0.05 0.02,0.06l0.01 0.05c0.01,0.01 0,0 0,0.01 0,0.04 0.01,0.06 0.01,0.12 0,0.03 -0.01,0.02 0,0.04 0.01,0.01 0,0.01 0.02,0l0.04 -0.03c0.01,0 0.01,0 0.01,-0.01 0,0 0,0 0,0 0.02,0 0.02,0 0.04,-0.01 0.01,-0.01 0.03,-0.02 0.05,-0.03 0.01,-0.02 0.03,-0.01 0.03,-0.03 0.03,0 0.03,-0.01 0.05,-0.02l0.39 -0.23c0.06,-0.03 0.11,-0.06 0.16,-0.11 0.03,-0.02 0.06,-0.06 0.07,-0.07 0.01,-0.01 0.02,-0.03 0.03,-0.04 0.01,-0.01 0.01,-0.03 0.02,-0.04 0.03,-0.05 0.03,-0.06 0.04,-0.09 0.01,-0.04 0.02,-0.08 0.03,-0.13 0,-0.02 0,-0.05 -0.01,-0.07 0,-0.02 0,-0.05 0,-0.07 -0.02,-0.03 -0.03,-0.26 -0.2,-0.15 -0.05,0.03 -0.08,0.07 -0.07,0.12 0.02,0.08 0.02,0.06 0.02,0.14 0,0.01 0,0.03 -0.01,0.04z"/>
  <path class="fil2 str0" d="M5.68 0.14c0.05,0.08 0.05,0.16 0.1,0.21 0.03,0.03 0.08,0.02 0.07,0.15 -0.01,0 -0.04,0.01 -0.04,0.01 -0.01,0.01 -0.02,0.02 -0.01,0.03 0.04,-0.02 0.08,-0.01 0.09,0.03 0.01,0.03 0,0.08 -0.01,0.11 -0.02,0.08 -0.05,0.12 -0.1,0.18 -0.01,0.02 -0.02,0.02 -0.03,0.04 -0.03,0.03 -0.07,0.06 -0.12,0.08 -0.04,0.01 -0.07,0.02 -0.11,0.03l-0.1 0.02 0.02 0.07c0.01,0 0.02,-0.01 0.03,-0.02 0.02,0 0.03,-0.01 0.04,-0.02 0.05,-0.02 0.1,-0.04 0.14,-0.07 0.03,-0.01 0.12,-0.07 0.14,-0.08 0.01,0.01 0.02,0.05 0.02,0.06 0,0.02 0,0.04 0,0.06l0.01 -0.01c0,0 0,-0.01 0,-0.01 0.01,0 0.03,0 0.04,0 0.02,0 0.02,-0.01 0.04,-0.01l0.07 0c0.02,0 0,0 0.01,0.01 0,-0.04 0,-0.07 0.01,-0.11 0,-0.02 0.01,-0.07 0.02,-0.09 0.03,0 0.01,0.02 0.08,0.03l0.08 0c0.07,-0.01 0.11,-0.06 0.14,-0.11 0.03,-0.04 0.05,-0.08 0.04,-0.14 0,0 -0.01,-0.02 -0.01,-0.02 -0.01,-0.02 0.01,0 -0.01,-0.01 0,-0.02 0.01,0.01 0,-0.01 0,0 -0.01,-0.02 -0.01,-0.02 -0.01,-0.02 -0.01,-0.02 -0.03,-0.02 0.01,-0.01 -0.01,-0.02 -0.02,-0.03 -0.01,0 -0.02,-0.01 -0.03,-0.02 -0.03,-0.01 -0.05,-0.02 -0.08,-0.02 -0.07,-0.02 -0.1,-0.04 -0.14,-0.08 -0.06,-0.08 -0.09,-0.16 -0.16,-0.21 -0.01,-0.01 -0.02,-0.01 -0.03,-0.02 -0.03,-0.01 -0.04,-0.02 -0.08,-0.02 -0.03,0 -0.06,0.02 -0.07,0.03z"/>
  <path class="fil1" d="M0.65 2.37c0.02,-0.01 0.04,-0.02 0.06,-0.03 0.02,-0.01 0.04,-0.03 0.06,-0.04 0,0 0.05,-0.04 0.09,-0.03l0.03 0.01c0.03,0.03 0.01,0.24 0.04,0.28 0.01,0.02 0.05,0.02 0.08,0.03 0.02,0 0.06,0 0.08,-0.01 0.01,-0.01 0,-0.06 0,-0.08 0,-0.05 -0.02,-0.12 0.01,-0.16 0,-0.01 0.01,-0.05 0.01,-0.07 0.01,-0.02 0.01,-0.04 0.02,-0.06 0,-0.04 0.01,-0.1 0.01,-0.15 -0.01,-0.02 -0.01,-0.04 -0.01,-0.07 0,-0.03 -0.01,-0.07 -0.01,-0.08 -0.01,-0.02 0,-0.05 0,-0.07 0,-0.03 0,-0.05 0,-0.07 0,-0.13 -0.03,-0.32 -0.02,-0.43l0.02 0c-0.01,0 -0.01,0 -0.02,0 0,-0.04 -0.01,-0.08 -0.02,-0.11 0,-0.04 0,-0.07 -0.01,-0.11l-0.01 -0.01c-0.01,0 -0.01,0.01 -0.02,0.01 -0.01,0 -0.04,0 -0.04,0l0 0.1 -0.02 0.11c0,0.01 0,0.01 -0.01,0.02l-0.03 0.22c0,0.02 0,0.02 0,0.04 -0.01,0.09 -0.02,0.13 -0.03,0.22 -0.01,0 -0.01,0.01 -0.01,0.02l-0.02 0.1c-0.01,0.05 -0.06,0.17 -0.09,0.22l-0.05 0.09c-0.01,0.01 -0.03,0.04 -0.04,0.06 -0.01,0.01 -0.02,0.02 -0.02,0.03 -0.01,0.01 -0.02,0.01 -0.03,0.02z"/>
  <path class="fil3" d="M1.14 2.06c0,0.05 -0.01,0.11 -0.01,0.15 -0.01,0.02 -0.01,0.04 -0.02,0.06 0,0.02 -0.01,0.06 -0.01,0.07 0.04,0 0.06,0.02 0.1,0.03 0.03,0.01 0.06,0.02 0.09,0.03 0.03,0.01 0.06,0.02 0.09,0.03 0.06,0.01 0.15,0.05 0.2,0.05 0.04,0 0.1,0 0.13,0 0.04,-0.01 0.07,-0.01 0.11,-0.02l0.09 -0.04c0,0 0,0 0,0l0.11 -0.08 0.07 -0.08c0.01,-0.01 0.01,-0.01 0.01,-0.02 0.01,0 0.01,-0.01 0.01,-0.01l0.01 0c0,-0.01 0,0 0,-0.01 0,-0.01 0,0 0,-0.01 0.02,-0.04 0.08,-0.1 0.02,-0.14 -0.02,-0.01 -0.12,-0.05 -0.15,-0.05 -0.04,-0.01 -0.04,0.02 -0.06,0.04 -0.01,0.02 -0.02,0.04 -0.04,0.06 -0.1,0.11 -0.25,0.13 -0.39,0.08l-0.15 -0.05c-0.03,-0.01 -0.05,-0.02 -0.08,-0.03 -0.02,0 -0.05,-0.01 -0.07,-0.02 -0.03,-0.01 -0.05,-0.02 -0.06,-0.04z"/>
  <path class="fil3" d="M2.03 1.96c0.03,0 0.04,0 0.07,0.01 0.01,0 0.07,0 0.08,0 0.02,0 0.07,-0.06 0.08,-0.08 -0.01,-0.02 0,-0.01 0,-0.04 0,-0.06 -0.01,-0.08 -0.01,-0.12 0,-0.01 0.01,0 0,-0.01l-0.01 -0.05c-0.01,-0.01 -0.02,-0.05 -0.02,-0.06 -0.03,-0.02 -0.05,-0.07 -0.09,-0.12 -0.13,-0.17 -0.23,-0.18 -0.4,-0.24 -0.01,-0.01 -0.02,-0.01 -0.03,-0.02 -0.04,0.12 -0.02,0.18 0.04,0.27 0.02,0.03 0.02,0.05 0.04,0.06 0.01,0.01 0.03,0 0.1,0.07 0.01,0 0.02,0.01 0.02,0.01 0.01,0.02 0,0.01 0.01,0.02 0.07,0.08 0.04,0.16 0.05,0.23 0.01,0.04 0.07,0.06 0.07,0.07z"/>
  <path class="fil4" d="M0 1.5l0 0.13c0.02,0.02 0,0.07 0.06,0.07 0.02,-0.01 0.07,-0.02 0.1,-0.03 0.05,-0.01 0.15,-0.04 0.21,-0.04 0,0 0,0 0,0.01l0 -0.01c0.05,-0.01 0.08,-0.02 0.14,-0.02 0.02,0 0.05,0 0.07,0.01 0.01,0 0.05,0.01 0.06,0.02 0.01,0.01 0.01,0.01 0.02,0.01 0.01,-0.01 0,-0.01 0,-0.03 0,-0.01 0.01,-0.02 0.01,-0.04l0 -0.12c0,-0.01 0,-0.02 0,-0.03 0,-0.03 0,-0.06 0,-0.09l-0.01 -0.01c-0.01,0 -0.02,0 -0.04,-0.01 -0.01,0 -0.03,0 -0.04,0 -0.03,-0.01 -0.07,-0.01 -0.1,-0.01 -0.08,0.03 -0.06,0.01 -0.13,0.03 -0.05,0.01 -0.09,0.02 -0.14,0.03 -0.04,0.01 -0.09,0.02 -0.13,0.04 -0.09,0.02 -0.06,0.07 -0.08,0.09z"/>
  <path class="fil5" d="M1.17 0.9c0.01,0 0.05,0.03 0.07,0.03 0.07,0.04 0.13,0.07 0.21,0.1 0.01,0 0.02,0 0.03,0.01l0.1 0.03c0.02,0 0.04,0.02 0.06,0.02 0.01,-0.02 0.01,-0.05 0.02,-0.07 0.03,-0.07 0.04,-0.04 -0.01,-0.06l-0.1 -0.06c-0.08,0 -0.1,-0.05 -0.15,-0.09 -0.05,-0.03 -0.07,-0.03 -0.14,-0.11 -0.01,-0.01 -0.02,-0.02 -0.03,-0.04 -0.02,-0.02 -0.03,-0.04 -0.03,-0.05 -0.03,-0.03 -0.07,-0.11 -0.15,-0.14 -0.08,-0.02 -0.17,0 -0.16,0.12 0.01,0.03 0.04,0.08 0.05,0.1 0.01,0.01 0.02,0.03 0.03,0.04 0.01,0.01 0.02,0.03 0.04,0.04 0.01,0.02 0.11,0.1 0.14,0.12l0.02 0.01z"/>
  <path class="fil1" d="M5.98 1.01l0.02 0.03c0.01,0 0.02,0.01 0.03,0.02 0.01,0.02 0.02,0.03 0.04,0.06 0.07,0.12 0.09,0.31 0.12,0.45 0.05,0.17 0.09,0.26 0.17,0.4 0.01,0.02 0.04,0.05 0.02,0.07 0,0.01 -0.03,0.04 -0.05,0.04 0,0.03 0.04,0.07 0.05,0.09 0.04,0.05 0.09,0.14 0.12,0.18 0.02,0.02 0.06,0.05 0.06,0.08 0.01,0 0,0.02 0.01,0.03 0.01,0.01 0.01,0 0.02,0.02 0,0.01 0,0.01 0,0.01 0.01,0.02 0.01,0.03 0.01,0.04 0,0.02 0,0.03 0.01,0.05 0.02,-0.01 0.02,-0.03 0.03,-0.04 0.01,-0.01 0.01,-0.01 0.01,-0.02l0.01 -0.04c0.01,-0.04 0.01,-0.01 0.02,-0.04 -0.02,-0.01 -0.04,-0.02 -0.05,-0.03 -0.02,-0.02 -0.02,-0.01 -0.04,-0.03 -0.03,-0.04 -0.02,-0.02 -0.04,-0.06l-0.03 -0.06c-0.01,-0.01 -0.01,-0.04 -0.02,-0.05l0 0c-0.01,-0.02 0,0 -0.02,-0.03 -0.01,-0.01 -0.03,-0.02 -0.03,-0.03 -0.02,-0.03 -0.04,-0.03 -0.02,-0.05 0,0 0,0 0,0 0.01,-0.01 0.02,-0.01 0.02,-0.01 0.02,-0.01 0.03,-0.01 0.04,-0.02 0,-0.02 -0.01,-0.03 -0.02,-0.04 -0.01,-0.01 -0.02,-0.02 -0.03,-0.04l-0.08 -0.16c-0.02,-0.03 -0.02,-0.07 -0.03,-0.1 -0.01,-0.01 -0.02,-0.06 -0.03,-0.08 -0.01,-0.03 -0.01,-0.06 -0.02,-0.09 -0.02,-0.07 -0.08,-0.31 -0.09,-0.34 -0.01,-0.03 -0.01,-0.05 -0.03,-0.08l-0.04 -0.06c-0.01,-0.01 -0.03,-0.03 -0.04,-0.04 -0.01,-0.02 -0.02,-0.05 -0.02,-0.07 0,-0.03 0.01,-0.08 0.02,-0.11 0.01,-0.01 0.01,-0.01 0.01,-0.02 -0.07,-0.01 -0.05,-0.03 -0.08,-0.03 -0.01,0.02 -0.02,0.07 -0.02,0.09 -0.01,0.04 -0.01,0.07 -0.01,0.11z"/>
  <path class="fil1" d="M0.84 0.42l-0.01 0.02c-0.07,0.03 -0.11,0.13 -0.13,0.2 -0.06,0.15 -0.05,0.25 -0.06,0.3 -0.01,0.04 -0.02,0.08 -0.02,0.12 -0.01,0.04 -0.02,0.08 -0.03,0.12 0.02,-0.02 0.04,-0.03 0.06,-0.05 0.01,-0.01 0.04,-0.03 0.06,-0.04 0.04,-0.03 0.04,-0.11 0.06,-0.18 0.01,-0.07 0.02,-0.14 0.03,-0.2 0.01,-0.09 0.04,-0.2 0.11,-0.25 0.02,-0.02 0.06,-0.04 0.07,-0.05 0.01,-0.01 0.01,-0.01 0.02,-0.03 0.01,-0.01 0.01,-0.02 0.02,-0.04 0,-0.03 0,-0.06 0,-0.1 0,-0.04 -0.02,-0.09 -0.01,-0.14 0,-0.04 0.03,-0.07 0.07,-0.08 -0.01,-0.01 0,-0.01 -0.02,-0.01 -0.07,-0.01 -0.18,0.04 -0.16,0.15 0.01,0.05 0.01,0.1 0.01,0.16 -0.01,0.03 -0.03,0.1 -0.07,0.1z"/>
  <path class="fil4" d="M0.53 2.11l0 0c-0.02,0.02 -0.06,0.03 -0.09,0.04 -0.04,0.01 -0.07,0.02 -0.11,0.03 -0.02,0.01 -0.26,0.06 -0.29,0.08 -0.04,0.03 -0.02,0.06 -0.04,0.08l0 0.11c0.02,0.02 0,0.05 0.03,0.06 0.02,0.01 0.06,0 0.08,0 0.04,-0.01 0.09,-0.02 0.14,-0.04 0.02,0 0.04,-0.01 0.06,-0.01 0.02,-0.01 0.04,-0.01 0.06,-0.01 0,0 0,0 0.01,-0.01l0.02 -0.03c0,-0.01 0.01,-0.02 0.01,-0.02 0,-0.01 0,-0.01 0,-0.01 0.01,-0.02 0,0 0.02,-0.03 0.01,-0.01 0.01,-0.02 0.01,-0.02l0.09 -0.16c0.01,-0.02 0.02,-0.04 0.03,-0.06l-0.03 0z"/>
  <path class="fil3" d="M0.37 1.64l0 0c0.01,0.01 0,0.11 0.01,0.15 0,0.02 0.03,0.1 0.04,0.12 0.04,0.11 0.07,0.11 0.1,0.17 0,0.02 0.01,0.02 0.01,0.03l0 0c0.02,-0.01 0.03,0 0.04,-0.02 0.01,-0.02 0.01,-0.03 0.02,-0.04 0,-0.01 0.01,-0.02 0.02,-0.04 0,-0.01 0.01,-0.02 0.01,-0.03 0.03,-0.08 0.03,-0.11 0.04,-0.19 0,-0.01 -0.01,-0.01 -0.01,-0.02 -0.01,0 -0.01,-0.01 -0.01,-0.01 0,-0.01 0,-0.02 0,-0.03 0,0 0,0 0,-0.01 -0.01,-0.01 -0.01,-0.08 0,-0.08 -0.01,-0.01 -0.05,-0.02 -0.06,-0.02 -0.02,-0.01 -0.05,-0.01 -0.07,-0.01 -0.06,0 -0.09,0.01 -0.14,0.02l0 0.01z"/>
  <path class="fil6" d="M5.8 0.54l0 0.01c-0.02,0 -0.01,0 -0.02,0.02 -0.02,0.03 -0.04,0.06 -0.07,0.1 -0.01,0.02 -0.02,0.05 -0.03,0.07 -0.01,0.01 -0.04,0.05 -0.05,0.06 -0.03,0.03 -0.11,0.09 -0.15,0.1 -0.01,0.01 -0.01,0 -0.01,0.01 -0.03,0.02 -0.05,0.02 -0.08,0.03 -0.02,0 -0.02,0.01 -0.04,0.02 -0.01,0 -0.07,0.03 -0.08,0.03 0,0.01 0.02,0.06 0.03,0.07 0.03,0 0.08,-0.02 0.12,-0.03l0.1 -0.02c0.04,-0.01 0.07,-0.02 0.11,-0.03 0.05,-0.02 0.09,-0.05 0.12,-0.08 0.01,-0.02 0.02,-0.02 0.03,-0.04 0.05,-0.06 0.08,-0.1 0.1,-0.18 0.01,-0.03 0.02,-0.08 0.01,-0.11 -0.01,-0.04 -0.05,-0.05 -0.09,-0.03z"/>
  <path class="fil3" d="M1.07 1.12c0.01,0.04 0.01,0.07 0.01,0.11 0.01,0.03 0.02,0.07 0.02,0.11 0.01,0 0.01,0 0.02,0l0.27 0.09c0.01,0 0.02,0.01 0.03,0.01 0,-0.03 -0.02,-0.06 -0.02,-0.15 0,-0.09 0,-0.09 0.02,-0.16l-0.14 -0.04c-0.06,0 -0.14,-0.03 -0.18,-0.06 -0.01,0.02 -0.01,0.03 -0.02,0.05 0,0.01 -0.01,0.02 -0.01,0.03l0 0.01z"/>
  <path class="fil6" d="M1.02 0.24c0,0.04 0,0.07 0,0.1 -0.01,0.02 -0.01,0.03 -0.02,0.04 -0.01,0.02 -0.01,0.02 -0.02,0.03 0.02,0 0.1,0.01 0.12,0.02l0.01 0c0,-0.02 0.01,-0.05 0.02,-0.06 0.08,-0.01 0.14,0.03 0.17,-0.05 0.02,-0.07 0,-0.13 -0.01,-0.19 -0.02,-0.03 -0.04,-0.09 -0.07,-0.09 -0.03,0 -0.08,0.02 -0.11,0.02 0,0.01 0.02,0.08 0.01,0.11 -0.03,0.03 -0.03,-0.02 -0.06,-0.01 -0.03,0.02 -0.01,0.06 -0.04,0.08z"/>
  <path class="fil1" d="M5.83 0.13c0.01,0.01 0.02,0.01 0.03,0.02 0.07,0.05 0.1,0.13 0.16,0.21 0.04,0.04 0.07,0.06 0.14,0.08 0.03,0 0.05,0.01 0.08,0.02 0.01,0.01 0.02,0.02 0.03,0.02 0.01,0.01 0.03,0.02 0.02,0.03 0.02,0 0.02,0 0.03,0.02 0,0 0.01,0.02 0.01,0.02 0.01,0.02 0,-0.01 0,0.01 0.02,0.01 0,-0.01 0.01,0.01 0,0 0.01,0.02 0.01,0.02 0.01,0.06 -0.01,0.1 -0.04,0.14 -0.03,0.05 -0.07,0.1 -0.14,0.11 -0.02,0.01 -0.04,0 -0.05,0 0.01,0.03 0.09,0.04 0.14,0.04 0.05,0 0.09,-0.04 0.11,-0.06 0.04,-0.05 0.09,-0.12 0.08,-0.19 -0.01,-0.02 -0.01,-0.03 -0.01,-0.04 -0.01,-0.01 -0.01,-0.02 -0.02,-0.03 -0.01,-0.01 -0.01,-0.03 -0.03,-0.04 -0.08,-0.07 -0.11,-0.05 -0.17,-0.08 -0.02,-0.01 -0.04,-0.01 -0.05,-0.02 -0.05,-0.02 -0.11,-0.09 -0.12,-0.13 0,0 0,0 0,0l-0.06 -0.08c-0.03,-0.03 -0.04,-0.06 -0.08,-0.07 -0.02,-0.01 -0.06,-0.03 -0.08,-0.01z"/>
  <path class="fil1" d="M5.76 2.13c-0.02,0.03 -0.03,0.06 -0.04,0.1 -0.01,0.09 -0.04,0.14 -0.06,0.21 -0.01,0.05 0,0.06 -0.02,0.11 -0.01,0.02 -0.05,0.05 -0.05,0.06 0.09,0.01 0.1,-0.02 0.16,-0.02 0.01,-0.02 0,-0.04 0,-0.06 0,-0.06 0.02,-0.09 0.02,-0.12 0.01,-0.04 0.02,-0.04 0.04,-0.09 0,-0.02 0.01,-0.03 0.01,-0.06 0.01,-0.02 0.01,-0.03 0.01,-0.05 0.01,-0.04 0,-0.05 0.02,-0.06l0 0 0.33 -0.01c0.01,0 0.01,0.01 0.01,-0.01 -0.01,-0.01 -0.02,-0.01 -0.03,-0.02 -0.05,-0.01 -0.23,0.01 -0.31,0.01 -0.04,0 -0.08,0.01 -0.09,0.01z"/>
  <path class="fil5" d="M6.16 2.11c0.01,0.01 0.02,0.01 0.03,0.02 0.02,0.01 0.11,0.08 0.13,0.1 0.01,0.01 0.03,0.03 0.04,0.03 0.04,0.04 0.1,0.13 0.13,0.18 0.01,0.03 0.01,0.06 0.04,0.07 0.02,-0.01 0.03,-0.05 0.03,-0.08 0,-0.03 -0.04,-0.06 -0.06,-0.08 -0.03,-0.04 -0.08,-0.13 -0.12,-0.18 -0.01,-0.02 -0.05,-0.06 -0.05,-0.09 -0.01,0.01 -0.01,0 -0.02,0.01l-0.15 0.02z"/>
  <path class="fil5" d="M5.63 2.28c-0.01,0.07 -0.03,0.16 -0.06,0.23 -0.01,0.01 -0.03,0.04 -0.02,0.06 0.02,0.02 0.07,-0.01 0.09,-0.02 0.02,-0.05 0.01,-0.06 0.02,-0.11 0.02,-0.07 0.05,-0.12 0.06,-0.21 0.01,-0.04 0.02,-0.07 0.04,-0.1 -0.05,0 -0.08,-0.01 -0.13,-0.01 0,-0.01 0,-0.01 -0.01,-0.02 0,0.03 0.01,0.05 0.01,0.09 0,0.02 0.01,0.06 0,0.09z"/>
  <path class="fil0" d="M5.67 0.41c0,0 0.09,0.01 0.1,0.02 0.01,0 0.02,0.02 0.03,0.03 0.01,0.02 0.01,0.03 0.01,0.05 0,0 0.03,-0.01 0.04,-0.01 0.01,-0.13 -0.04,-0.12 -0.07,-0.15 -0.05,-0.05 -0.05,-0.13 -0.1,-0.21 -0.01,0.01 -0.01,0.01 -0.01,0.02 -0.03,0.03 -0.04,0.07 -0.04,0.11 0,0.04 0,0.08 0.02,0.11 0.01,0.01 0.01,0.01 0.02,0.03z"/>
  <path class="fil3" d="M0.59 1.18c-0.01,0.01 -0.05,0.04 -0.06,0.06 -0.01,0.01 -0.01,0.02 -0.02,0.04 -0.01,0.01 -0.02,0.01 -0.03,0.03 0.03,0 0.07,0 0.1,0.01 0.01,0 0.03,0 0.04,0 0.02,0.01 0.03,0.01 0.04,0.01 0.02,0.01 0.01,0.01 0.01,0 0,-0.04 0.01,-0.09 0.01,-0.13 0.01,-0.02 0.01,-0.04 0.02,-0.06 0,-0.01 0.01,-0.04 0.01,-0.05 -0.02,0.01 -0.05,0.03 -0.06,0.04 -0.02,0.02 -0.04,0.03 -0.06,0.05z"/>
  <path class="fil2" d="M1.08 0.02c-0.04,0.01 -0.07,0.04 -0.07,0.08 -0.01,0.05 0.01,0.1 0.01,0.14 0.03,-0.02 0.01,-0.06 0.04,-0.08 0.03,-0.01 0.03,0.04 0.06,0.01 0.01,-0.03 -0.01,-0.1 -0.01,-0.11 0.03,0 0.08,-0.02 0.11,-0.02 0,-0.03 -0.05,-0.04 -0.06,-0.04 -0.02,0 -0.03,0 -0.05,0 -0.02,0.01 -0.02,0.01 -0.03,0.02z"/>
  <path class="fil1" d="M5.51 1.06c0,0.02 0.01,0.04 0.02,0.04 0.01,0.01 0.03,0 0.04,-0.01l0.16 -0.08c0.01,-0.01 0.02,-0.01 0.04,-0.02 0.01,-0.01 0.03,-0.02 0.04,-0.02 0,-0.01 -0.01,-0.05 -0.02,-0.06 -0.02,0.01 -0.11,0.07 -0.14,0.08 -0.04,0.03 -0.09,0.05 -0.14,0.07z"/>
  <path class="fil6" d="M1.75 1.12l0.01 0c0.01,-0.01 0.01,-0.01 0.02,-0.01l0.04 -0.03c0.01,0 0.03,-0.02 0.03,-0.03 0,0 0,-0.01 0,-0.01l-0.01 0c-0.02,-0.02 -0.06,-0.02 -0.08,-0.03 0.01,-0.01 0.04,-0.01 0.05,-0.03 0,-0.01 0,-0.01 -0.01,-0.01 -0.01,0 -0.03,0.01 -0.05,0.01 -0.02,0.01 -0.03,0.01 -0.04,0.02 -0.02,0.02 -0.04,0.06 -0.05,0.08 0.02,0.01 0.03,0.02 0.05,0.02 0.01,0.01 0.01,0.01 0.02,0.01 0.01,0 0.01,0.01 0.01,0.01l0.01 0c0,0 0,0 0,0z"/>
  <path class="fil7" d="M1.1 1.03c0.04,0.03 0.12,0.06 0.18,0.06 0,-0.02 -0.01,-0.02 -0.03,-0.04l-0.05 -0.05c-0.01,-0.01 -0.02,-0.01 -0.02,-0.02 -0.02,-0.01 -0.03,-0.03 -0.05,-0.03 0,0.02 -0.01,0.03 -0.02,0.04 -0.01,0.02 -0.01,0.02 -0.01,0.04z"/>
  <path class="fil8" d="M5.15 1.08c0,0.02 0.01,0.02 0.01,0.04 0.01,0 0.03,0.01 0.04,0.01 0.02,0 0.03,-0.01 0.04,-0.02 0.02,-0.02 0.05,-0.02 0.04,-0.06 -0.01,-0.03 -0.03,-0.04 -0.07,-0.04 -0.01,0.01 -0.06,0.02 -0.07,0.03 0.01,0.01 0.02,0.01 0.04,0.01 0,0 -0.03,0.03 -0.03,0.03z"/>
  <path class="fil9" d="M0.42 0.92c-0.15,0.05 0.14,-0.04 0,0zm0.01 0.03c0.21,-0.08 -0.22,0.07 0,0z"/>
  <path class="fil10" d="M3.65 1.25c0.18,0 0.33,-0.15 0.33,-0.34 0,-0.18 -0.15,-0.34 -0.33,-0.34 -0.19,0 -0.34,0.16 -0.34,0.34 0,0.19 0.15,0.34 0.34,0.34z"/>
  <g id="_2242289817984">
   <path id="Path_7392" class="fil11" d="M3.73 1.09c0,0 0,0 0,0 0,0 -0.01,0 -0.01,0l-0.15 -0.15c-0.01,-0.01 -0.01,-0.01 -0.01,-0.02 0,-0.01 0.01,-0.02 0.02,-0.02 0.01,0 0.02,0 0.02,0.01l0.14 0.13c0.04,-0.04 0.06,-0.08 0.06,-0.13 0,-0.05 -0.03,-0.1 -0.08,-0.13 -0.01,-0.01 -0.01,-0.02 -0.01,-0.02 0,-0.02 0.01,-0.03 0.02,-0.03 0.01,0 0.01,0 0.02,0.01 0.06,0.04 0.1,0.11 0.1,0.17 0,0.07 -0.04,0.13 -0.1,0.18 -0.01,0 -0.01,0 -0.02,0 0,0 0,0 0,0m0 0l0 0 0 0z" data-name="Path 7392"/>
   <path id="Path_7393" class="fil12" d="M3.56 1.09c0,0 0,0 0,0 -0.01,0 -0.01,0 -0.02,0 -0.06,-0.05 -0.1,-0.11 -0.1,-0.18 0,-0.06 0.04,-0.13 0.1,-0.17 0.01,-0.01 0.01,-0.01 0.02,-0.01 0,0 0.01,0 0.02,0.01l0.14 0.15c0.01,0 0.01,0.01 0.01,0.01 0,0.02 -0.01,0.03 -0.02,0.03 -0.01,0 -0.02,-0.01 -0.02,-0.01l-0.13 -0.13c-0.05,0.03 -0.07,0.08 -0.07,0.12 0,0.05 0.03,0.1 0.08,0.14 0.01,0 0.01,0.01 0.01,0.02 0,0.01 -0.01,0.02 -0.02,0.02 0,0 0,0 0,0m0 0l0 0 0 0z" data-name="Path 7393"/>
  </g>
 </g>
</svg>
