<svg width="72" height="72" viewBox="0 0 72 72" fill="none" xmlns="http://www.w3.org/2000/svg">
<path opacity="0.1" d="M36 72C55.8822 72 72 55.8822 72 36C72 16.1177 55.8822 0 36 0C16.1177 0 0 16.1177 0 36C0 55.8822 16.1177 72 36 72Z" fill="#00D8A7"/>
<path d="M57.5999 71.9998H14.3999V25.4398C16.4361 25.4375 18.3882 24.6276 19.828 23.1878C21.2677 21.748 22.0776 19.7959 22.0799 17.7598H49.9199C49.9177 18.7684 50.1156 19.7675 50.5021 20.6992C50.8886 21.6309 51.4561 22.4767 52.1716 23.1876C52.8825 23.9033 53.7283 24.4709 54.6601 24.8575C55.5919 25.2441 56.5911 25.442 57.5999 25.4398V71.9998Z" fill="white"/>
<path d="M36 48.9599C42.3623 48.9599 47.52 43.8022 47.52 37.4399C47.52 31.0776 42.3623 25.9199 36 25.9199C29.6377 25.9199 24.48 31.0776 24.48 37.4399C24.48 43.8022 29.6377 48.9599 36 48.9599Z" fill="#00D8A7"/>
<path d="M30.8799 38.0802L34.0799 41.2802L41.1199 34.2402" stroke="white" stroke-width="2" stroke-linecap="round" stroke-linejoin="round"/>
<path d="M42.2398 51.8398H29.7598C28.9645 51.8398 28.3198 52.4846 28.3198 53.2798C28.3198 54.0751 28.9645 54.7198 29.7598 54.7198H42.2398C43.0351 54.7198 43.6798 54.0751 43.6798 53.2798C43.6798 52.4846 43.0351 51.8398 42.2398 51.8398Z" fill="#00D8A7" fill-opacity="0.1"/>
<path d="M29.7598 52.3398H42.2398C42.759 52.3398 43.1798 52.7607 43.1798 53.2798C43.1798 53.799 42.759 54.2198 42.2398 54.2198H29.7598C29.2407 54.2198 28.8198 53.799 28.8198 53.2798C28.8198 52.7607 29.2407 52.3398 29.7598 52.3398Z" stroke="#00D8A7" stroke-opacity="0.2"/>
<path d="M46.56 57.5996H25.44C24.6447 57.5996 24 58.2443 24 59.0396C24 59.8349 24.6447 60.4796 25.44 60.4796H46.56C47.3553 60.4796 48 59.8349 48 59.0396C48 58.2443 47.3553 57.5996 46.56 57.5996Z" fill="#00D8A7" fill-opacity="0.1"/>
<path d="M25.44 58.0996H46.56C47.0791 58.0996 47.5 58.5205 47.5 59.0396C47.5 59.5588 47.0791 59.9796 46.56 59.9796H25.44C24.9209 59.9796 24.5 59.5588 24.5 59.0396C24.5 58.5205 24.9209 58.0996 25.44 58.0996Z" stroke="#00D8A7" stroke-opacity="0.2"/>
</svg>
