<?xml version="1.0" encoding="UTF-8"?>
<!DOCTYPE svg PUBLIC "-//W3C//DTD SVG 1.1//EN" "http://www.w3.org/Graphics/SVG/1.1/DTD/svg11.dtd">
<!-- Creator: CorelDRAW 2021 (64-Bit) -->
<svg xmlns="http://www.w3.org/2000/svg" xml:space="preserve" width="19.05mm" height="19.05mm" version="1.1" style="shape-rendering:geometricPrecision; text-rendering:geometricPrecision; image-rendering:optimizeQuality; fill-rule:evenodd; clip-rule:evenodd"
viewBox="0 0 7.93 7.93"
 xmlns:xlink="http://www.w3.org/1999/xlink"
 xmlns:xodm="http://www.corel.com/coreldraw/odm/2003">
 <defs>
  <style type="text/css">
   <![CDATA[
    .str0 {stroke:#FF0D0D;stroke-width:0.11;stroke-miterlimit:22.9256;stroke-opacity:0.200000}
    .fil3 {fill:none;fill-rule:nonzero}
    .fil5 {fill:#FEFEFE}
    .fil4 {fill:#DB4646;fill-rule:nonzero}
    .fil1 {fill:white;fill-rule:nonzero}
    .fil0 {fill:#DB4646;fill-rule:nonzero;fill-opacity:0.101961}
    .fil2 {fill:#FC0000;fill-rule:nonzero;fill-opacity:0.101961}
   ]]>
  </style>
 </defs>
 <g id="Layer_x0020_1">
  <metadata id="CorelCorpID_0Corel-Layer"/>
  <path class="fil0" d="M3.97 7.93c2.19,0 3.97,-1.78 3.97,-3.97 0,-2.19 -1.78,-3.97 -3.97,-3.97 -2.19,0 -3.97,1.78 -3.97,3.97 0,2.19 1.78,3.97 3.97,3.97z"/>
  <path class="fil1" d="M6.34 7.93l-4.76 0 0 -5.13c0.22,-0 0.44,-0.09 0.6,-0.25 0.16,-0.16 0.25,-0.37 0.25,-0.6l3.07 0c-0,0.11 0.02,0.22 0.06,0.32 0.04,0.1 0.11,0.2 0.18,0.27 0.08,0.08 0.17,0.14 0.27,0.18 0.1,0.04 0.21,0.06 0.32,0.06l0 5.13z"/>
  <path class="fil2" d="M4.65 5.71l-1.37 0c-0.09,0 -0.16,0.07 -0.16,0.16 0,0.09 0.07,0.16 0.16,0.16l1.37 0c0.09,0 0.16,-0.07 0.16,-0.16 0,-0.09 -0.07,-0.16 -0.16,-0.16z"/>
  <path class="fil3 str0" d="M3.28 5.77l1.37 0c0.06,0 0.1,0.05 0.1,0.1 0,0.06 -0.05,0.1 -0.1,0.1l-1.37 0c-0.06,0 -0.1,-0.05 -0.1,-0.1 0,-0.06 0.05,-0.1 0.1,-0.1z"/>
  <path class="fil4" d="M3.97 5.39c0.7,0 1.27,-0.57 1.27,-1.27 0,-0.7 -0.57,-1.27 -1.27,-1.27 -0.7,0 -1.27,0.57 -1.27,1.27 0,0.7 0.57,1.27 1.27,1.27z"/>
  <path class="fil5" d="M3.97 3.95c-0.01,-0.01 -0.02,-0.02 -0.03,-0.03l-0.35 -0.35c-0.05,-0.05 -0.12,-0.05 -0.17,-0 -0.05,0.05 -0.04,0.13 0,0.18l0.25 0.25c0.02,0.02 0.04,0.04 0.06,0.06l0.06 0.06c-0.01,0.01 -0.02,0.02 -0.03,0.03l-0.34 0.34c-0.05,0.05 -0.06,0.12 -0,0.17 0.05,0.05 0.13,0.05 0.18,-0 0.04,-0.04 0.08,-0.08 0.12,-0.12l0.22 -0.22c0.01,-0.01 0.02,-0.02 0.03,-0.03l0.25 0.25c0.04,0.04 0.08,0.08 0.13,0.13 0.05,0.05 0.13,0.05 0.18,0 0.05,-0.05 0.05,-0.12 -0,-0.18 -0.04,-0.04 -0.08,-0.08 -0.13,-0.13 -0.04,-0.04 -0.08,-0.08 -0.13,-0.13l-0.12 -0.12 0.38 -0.38c0.05,-0.05 0.05,-0.12 0,-0.17 -0.05,-0.05 -0.13,-0.04 -0.18,0 -0.04,0.04 -0.08,0.08 -0.13,0.13l-0.22 0.22c-0.01,0.01 -0.02,0.02 -0.03,0.03z"/>
  <path class="fil2" d="M5.13 6.37l-2.3 0c-0.09,0 -0.16,0.07 -0.16,0.16 0,0.09 0.07,0.16 0.16,0.16l2.3 0c0.09,0 0.16,-0.07 0.16,-0.16 0,-0.09 -0.07,-0.16 -0.16,-0.16z"/>
  <path class="fil3 str0" d="M2.81 6.43l2.33 0c0.06,0 0.1,0.05 0.1,0.1 0,0.06 -0.05,0.1 -0.1,0.1l-2.33 0c-0.06,0 -0.1,-0.05 -0.1,-0.1 0,-0.06 0.05,-0.1 0.1,-0.1z"/>
 </g>
</svg>
